<svg xmlns="http://www.w3.org/2000/svg" viewBox="0 0 64 64"><title>web-page-ribbon</title><g id="web-page-ribbon"><rect x="2" y="2" width="60" height="60" fill="#fff"/><rect x="4" y="12" width="56" height="48" fill="#e6e6e6"/><polyline points="44 2 2 2 2 62 62 62 62 2 60 2" fill="none" stroke="#3e3948" stroke-miterlimit="10" stroke-width="2"/><line x1="60" y1="10" x2="62" y2="10" fill="none" stroke="#3e3948" stroke-miterlimit="10" stroke-width="2"/><line x1="2" y1="10" x2="44" y2="10" fill="none" stroke="#3e3948" stroke-miterlimit="10" stroke-width="2"/><line x1="5" y1="6" x2="7" y2="6" fill="none" stroke="#3e3948" stroke-miterlimit="10" stroke-width="2"/><line x1="9" y1="6" x2="11" y2="6" fill="none" stroke="#3e3948" stroke-miterlimit="10" stroke-width="2"/><line x1="13" y1="6" x2="15" y2="6" fill="none" stroke="#3e3948" stroke-miterlimit="10" stroke-width="2"/><line x1="18" y1="2" x2="18" y2="10" fill="none" stroke="#3e3948" stroke-miterlimit="10" stroke-width="2"/><polygon points="58 29 52 26 46 29 46 2 58 2 58 29" fill="#ff504d"/><rect x="46" y="2" width="12" height="4" fill="#de3d3a"/><polygon points="58 29 52 26 46 29 46 2 58 2 58 29" fill="none" stroke="#3e3948" stroke-miterlimit="10" stroke-width="2"/><rect x="46" y="33" width="12" height="11" fill="#ffcb47"/><rect x="46" y="33" width="12" height="11" fill="none" stroke="#3e3948" stroke-miterlimit="10" stroke-width="2"/><rect x="6" y="15" width="36" height="14" fill="#00c9e0"/><rect x="6" y="15" width="36" height="14" fill="none" stroke="#3e3948" stroke-miterlimit="10" stroke-width="2"/><line x1="5" y1="37" x2="43" y2="37" fill="none" stroke="#3e3948" stroke-miterlimit="10" stroke-width="2"/><line x1="5" y1="33" x2="43" y2="33" fill="none" stroke="#3e3948" stroke-miterlimit="10" stroke-width="2"/><line x1="5" y1="45" x2="43" y2="45" fill="none" stroke="#3e3948" stroke-miterlimit="10" stroke-width="2"/><line x1="24" y1="49" x2="43" y2="49" fill="none" stroke="#3e3948" stroke-miterlimit="10" stroke-width="2"/><line x1="24" y1="53" x2="43" y2="53" fill="none" stroke="#3e3948" stroke-miterlimit="10" stroke-width="2"/><line x1="24" y1="57" x2="43" y2="57" fill="none" stroke="#3e3948" stroke-miterlimit="10" stroke-width="2"/><line x1="5" y1="41" x2="43" y2="41" fill="none" stroke="#3e3948" stroke-miterlimit="10" stroke-width="2"/><line x1="45" y1="49" x2="59" y2="49" fill="none" stroke="#3e3948" stroke-miterlimit="10" stroke-width="2"/><line x1="45" y1="53" x2="59" y2="53" fill="none" stroke="#3e3948" stroke-miterlimit="10" stroke-width="2"/><line x1="45" y1="57" x2="59" y2="57" fill="none" stroke="#3e3948" stroke-miterlimit="10" stroke-width="2"/><line x1="19" y1="22" x2="21" y2="22" fill="none" stroke="#5ce7ff" stroke-miterlimit="10" stroke-width="2"/><line x1="23" y1="22" x2="25" y2="22" fill="none" stroke="#5ce7ff" stroke-miterlimit="10" stroke-width="2"/><line x1="27" y1="22" x2="29" y2="22" fill="none" stroke="#5ce7ff" stroke-miterlimit="10" stroke-width="2"/><rect x="6" y="49" width="15" height="8" fill="#fff"/><rect x="6" y="49" width="15" height="8" fill="none" stroke="#3e3948" stroke-miterlimit="10" stroke-width="2"/><line x1="46" y1="5" x2="58" y2="5" fill="none" stroke="#3e3948" stroke-miterlimit="10" stroke-width="2"/><rect x="51" y="21" width="2" height="2" fill="#3e3948"/></g></svg>