<svg version="1.2" xmlns="http://www.w3.org/2000/svg" viewBox="0 0 512 512" width="512" height="512">
	<title>icon-04-svg</title>
	<style>
		.s0 { fill: #ffcc00 } 
		.s1 { fill: #000000 } 
		.s2 { opacity: .1;fill: #000000 } 
	</style>
	<g id="Page-1">
		<g id="Full-Color">
			<g id="database">
				<path id="Fill-92" fill-rule="evenodd" class="s0" d="m458.8 72.9v367.7c0 33.9-91.5 61.3-204.3 61.3-112.8 0-204.3-27.4-204.3-61.3v-367.7c0-33.9 91.5-61.3 204.3-61.3 112.8 0 204.3 27.4 204.3 61.3z"/>
				<path id="Fill-205" fill-rule="evenodd" class="s1" d="m254.5 512.1c-106.6 0-214.5-24.6-214.5-71.5v-367.7c0-47 107.9-71.5 214.5-71.5 106.6 0 214.5 24.5 214.5 71.5v367.7c0 46.9-107.9 71.5-214.5 71.5zm-194.1-439.2c0 21.3 73.9 51.1 194.1 51.1 120.2 0 194.1-29.8 194.1-51.1 0-21.3-73.9-51.1-194.1-51.1-120.2 0-194.1 29.8-194.1 51.1zm2.1 33.6c-0.6-0.4-1.5-0.8-2.1-1.2v90.2c0 21.3 73.9 51 194.1 51 120.2 0 194.1-29.7 194.1-51v-90.2c-0.6 0.4-1.5 0.8-2.1 1.2-3.5 2.3-7.3 4.5-11.5 6.7-1.1 0.6-2.2 1.2-3.4 1.7-5.4 2.6-11.1 5-17.3 7.2q-0.5 0.2-1 0.3c-41.3 14.5-100.2 22-158.8 22-58.6 0-117.5-7.5-158.8-22q-0.5-0.1-1-0.3c-6.2-2.2-11.9-4.6-17.3-7.2-1.2-0.5-2.3-1.1-3.4-1.7-4.2-2.2-8-4.4-11.5-6.7zm192 262.6c120.2 0 194.1-29.7 194.1-51.1v-90.2c-0.6 0.5-1.5 0.8-2.1 1.3-3.5 2.3-7.3 4.5-11.5 6.7-1.1 0.5-2.2 1.1-3.4 1.7-5.4 2.6-11.1 5-17.3 7.1q-0.5 0.2-1 0.4c-41.3 14.5-100.2 22-158.8 22-58.6 0-117.5-7.5-158.8-22q-0.5-0.2-1-0.4c-6.2-2.1-11.9-4.5-17.3-7.1-1.2-0.6-2.3-1.2-3.4-1.7-4.2-2.2-8-4.4-11.5-6.7-0.6-0.5-1.5-0.8-2.1-1.3v90.2c0 21.4 73.9 51.1 194.1 51.1zm194.1-18.7c-0.6 0.4-1.5 0.8-2.1 1.2-3.5 2.4-7.3 4.6-11.5 6.7-1.1 0.6-2.2 1.2-3.4 1.8-5.4 2.5-11.1 4.9-17.3 7.1q-0.5 0.2-1 0.3c-41.3 14.6-100.2 22-158.8 22-58.6 0-117.5-7.4-158.8-22q-0.5-0.1-1-0.3c-6.2-2.2-11.9-4.6-17.3-7.1-1.2-0.6-2.3-1.2-3.4-1.8-4.2-2.1-8-4.3-11.5-6.7-0.6-0.4-1.5-0.8-2.1-1.2v90.2c0 21.3 73.9 51.1 194.1 51.1 120.2 0 194.1-29.8 194.1-51.1z"/>
				<path id="Fill-342" fill-rule="evenodd" class="s2" d="m254.5 512.1c-106.6 0-214.5-24.6-214.5-71.5v-40.9c0-5.6 4.6-10.2 10.2-10.2 5.7 0 10.2 4.6 10.2 10.2 0 21.4 73.9 51.1 194.1 51.1 120.2 0 194.1-29.7 194.1-51.1 0-5.6 4.5-10.2 10.2-10.2 5.6 0 10.2 4.6 10.2 10.2v40.9c0 46.9-107.9 71.5-214.5 71.5z"/>
			</g>
		</g>
	</g>
</svg>