<?xml version="1.0" encoding="UTF-8"?>
<svg width="21px" height="25px" viewBox="0 0 21 25" version="1.1" xmlns="http://www.w3.org/2000/svg" xmlns:xlink="http://www.w3.org/1999/xlink">
    <!-- Generator: Sketch 42 (36781) - http://www.bohemiancoding.com/sketch -->
    <title>database</title>
    <desc>Created with Sketch.</desc>
    <defs></defs>
    <g id="Page-1" stroke="none" stroke-width="1" fill="none" fill-rule="evenodd">
        <g id="Full-Color" transform="translate(-202.000000, -200.000000)">
            <g id="database" transform="translate(202.000000, 200.000000)">
                <path d="M10.5,0.5031 C4.98,0.5031 0.5,1.8431 0.5,3.5031 L0.5,21.5031 C0.5,23.1631 4.98,24.5031 10.5,24.5031 C16.02,24.5031 20.5,23.1631 20.5,21.5031 L20.5,3.5031 C20.5,1.8431 16.02,0.5031 10.5,0.5031" id="Fill-92" fill="#FFCC00"></path>
                <path d="M20,21.5031 C20,22.5471 16.386,24.0031 10.5,24.0031 C4.614,24.0031 1,22.5471 1,21.5031 L1,17.0881 C1.03,17.1091 1.072,17.1271 1.103,17.1491 C1.273,17.2631 1.459,17.3711 1.663,17.4761 C1.72,17.5041 1.773,17.5341 1.832,17.5621 C2.093,17.6871 2.374,17.8041 2.678,17.9111 C2.694,17.9171 2.711,17.9221 2.727,17.9271 C4.746,18.6381 7.63,19.0031 10.5,19.0031 C13.37,19.0031 16.254,18.6381 18.273,17.9271 C18.289,17.9221 18.306,17.9171 18.322,17.9111 C18.626,17.8041 18.907,17.6871 19.168,17.5621 C19.227,17.5341 19.28,17.5041 19.337,17.4761 C19.541,17.3711 19.727,17.2631 19.897,17.1491 C19.928,17.1271 19.97,17.1091 20,17.0881 L20,21.5031 Z M10.5,1.0031 C16.386,1.0031 20,2.4591 20,3.5031 C20,4.5471 16.386,6.0031 10.5,6.0031 C4.614,6.0031 1,4.5471 1,3.5031 C1,2.4591 4.614,1.0031 10.5,1.0031 L10.5,1.0031 Z M1.663,5.4761 C1.72,5.5041 1.773,5.5341 1.832,5.5621 C2.093,5.6871 2.374,5.8041 2.678,5.9111 C2.694,5.9171 2.711,5.9221 2.727,5.9271 C4.746,6.6381 7.63,7.0031 10.5,7.0031 C13.37,7.0031 16.254,6.6381 18.273,5.9271 C18.289,5.9221 18.306,5.9171 18.322,5.9111 C18.626,5.8041 18.907,5.6871 19.168,5.5621 C19.227,5.5341 19.28,5.5041 19.337,5.4761 C19.541,5.3711 19.727,5.2631 19.897,5.1491 C19.928,5.1271 19.97,5.1091 20,5.0881 L20,9.5031 C20,10.5471 16.386,12.0031 10.5,12.0031 C4.614,12.0031 1,10.5471 1,9.5031 L1,5.0881 C1.03,5.1091 1.072,5.1271 1.103,5.1491 C1.273,5.2631 1.459,5.3711 1.663,5.4761 L1.663,5.4761 Z M1,15.5031 L1,11.0881 C1.03,11.1091 1.072,11.1271 1.103,11.1491 C1.273,11.2631 1.459,11.3711 1.663,11.4761 C1.72,11.5041 1.773,11.5341 1.832,11.5621 C2.093,11.6871 2.374,11.8041 2.678,11.9111 C2.694,11.9171 2.711,11.9221 2.727,11.9271 C4.746,12.6381 7.63,13.0031 10.5,13.0031 C13.37,13.0031 16.254,12.6381 18.273,11.9271 C18.289,11.9221 18.306,11.9171 18.322,11.9111 C18.626,11.8041 18.907,11.6871 19.168,11.5621 C19.227,11.5341 19.28,11.5041 19.337,11.4761 C19.541,11.3711 19.727,11.2631 19.897,11.1491 C19.928,11.1271 19.97,11.1091 20,11.0881 L20,15.5031 C20,16.5471 16.386,18.0031 10.5,18.0031 C4.614,18.0031 1,16.5471 1,15.5031 L1,15.5031 Z M21,21.5031 L21,15.5031 L21,9.5031 L21,3.5031 C21,1.2051 15.718,0.0031 10.5,0.0031 C5.282,0.0031 0,1.2051 0,3.5031 L0,9.5031 L0,15.5031 L0,21.5031 C0,23.8011 5.282,25.0031 10.5,25.0031 C15.718,25.0031 21,23.8011 21,21.5031 L21,21.5031 Z" id="Fill-205" fill="#000000"></path>
                <path d="M21,21.5031 L21,19.5031 C21,19.2271 20.776,19.0031 20.5,19.0031 C20.224,19.0031 20,19.2271 20,19.5031 C20,20.5471 16.386,22.0031 10.5,22.0031 C4.614,22.0031 1,20.5471 1,19.5031 C1,19.2271 0.776,19.0031 0.5,19.0031 C0.224,19.0031 0,19.2271 0,19.5031 L0,21.5031 C0,23.8011 5.282,25.0031 10.5,25.0031 C15.718,25.0031 21,23.8011 21,21.5031" id="Fill-342" fill="#000000" opacity="0.119999997"></path>
            </g>
        </g>
    </g>
</svg>