<?xml version="1.0" encoding="UTF-8"?>
<svg id="Layer_2" data-name="Layer 2" xmlns="http://www.w3.org/2000/svg" viewBox="0 0 2745 1435.94">
  <defs>
    <style>
      .cls-1 {
        fill: #fff;
      }

      .cls-2 {
        fill: #d34c42;
      }

      .cls-3 {
        fill: #351d17;
      }

      .cls-4 {
        fill: #aecad6;
      }

      .cls-5 {
        fill: #ffddc0;
      }

      .cls-6 {
        fill-rule: evenodd;
      }
    </style>
  </defs>
  <g id="_Layer_" data-name="&amp;lt;Layer&amp;gt;">
    <rect class="cls-4" width="2745" height="1435.94"/>
    <g>
      <g>
        <path class="cls-1" d="M921.29,980.27c42.45,36.67,27.07,76.77,33.51,121.2,1.35,7.78-3.45,13.7-9.74,18.37-11.53,10.43-16.88,25.68-24.88,38.6,4.24,1.01,8.76,1.41,13.12,.57l-12.22,32.67c36.23-14.5,49.42-53.02,66.44-122.26,.79-.39,1.6-.78,2.42-1.14,3.42,39.9,25.79,269.38,26.55,367.65h300.32c.72-73.69,6.67-638.5,20.48-645.88-6.34-3.06-8.98-8.09-9.99-13.88-29.27-4.83-54.83-18.25-71.73-40.85,28.47-45.51,36.74-18.39,66.95,4.49,1.67-.71,3.77-.63,5.69-.58-.56-1.37-1.18-2.74-1.92-4.07l4.64,4.11c-9.3-9.47-16.56-23.56-30.78-27.25l2.78,2.46c-3.54-1.65-7.24-3-11.04-4.04,2.93,.39,5.63,.86,8.26,1.58-17.15-18.36-45.27-24.5-64.79-39.77,4.42-2.79-10.98-9.59-13.08-12.65-4.52-4.58-9.59-14.25-16.74-13.89,1.98-3.97,3.81-8.24,5.5-12.57l-12.86-11.38s-14.43,15.59-21.73,21.08c-9.01,7.79-14.83,6.88-19.34,12.59-256.07,65.42-226.74-16.58-304.85,238.07l2.25-1.74c-.28,1.54-.52,3.08-.78,4.63,48.3,8.73,80.39,25.82,67.55,83.87Z"/>
        <path class="cls-1" d="M1386.66,733.68c7.11-2.74,5.94-12.94,9.44-18.42,9.7,8.29,19.4,14.41,21.23,27.86-4.32,12.61-16.14,21.54-25.25,31.88,.28,6.05-2.6,10.34-8.5,13.8,20.64,14.54,60.89,594.02,70.4,647.13h244.52c-18.7-184.08-9.06-490.5-17.77-596.99-6.73-33.31-15.38-66.25-30.81-82.36-47.21-45.48-145.88-53.16-208.68-81.87l-.76,.29c.54-4.08,.76-5.97,.76-5.97l-31.16-40.22c-5.16,11.01-5.75,18.3-.55,28.93-11,24.17-26.73,46.62-35.67,71.52,1.44-3.21,3.63-7.03,6.71-9.96-1.15,2.71-3.86,8.59-6.77,10.1l.05-.14c-.51,.71-8.62,7.6-9.48,8.43,8.68-2.36,17.91-6.13,22.27-4.02Z"/>
        <path class="cls-2" d="M1327.31,776.17c1.01,5.79,3.65,10.83,10.05,13.88-13.96,7.27-19.79,572.19-20.53,645.88h137.15c-8.56-45.46-41.13-466.13-57.88-607.82-6.06-51.24-9.32-36.6-12.52-39.32,5.91-3.47,8.78-7.75,8.5-13.8,9.12-10.35,20.93-19.27,25.26-31.88-1.84-13.43-11.55-19.59-21.24-27.86-3.5,5.46-2.34,15.69-9.44,18.42-6.16-2.93-22.56,5.74-31.81,5.71-7.63,.64-22.77-1.09-32.31,.43-30.25-22.95-38.52-49.95-66.95-4.49,16.9,22.6,42.46,36.02,71.73,40.85Z"/>
        <path class="cls-3" d="M1249.9,333.7c13.13-31.77,41.34-31.74,75.46-28.8,68.35-5.08,51.93,41.44,79.79,85.28,11.29,22.99,20.37,29.15,34.06,33.38l25.01-1.2s12.14-37.11,12.81-69.31c.6-7.68-1.32-16.06-2.39-23.7-1.02-6.1,17.13-9.65,6.73-23.94-10.4-14.29-22.92-43.85-33.37-59.67-27.85-42.19-42.14-21.12-79.11-36.25-36.98-15.13-43.91-24.91-70.45-24.21-42.31,.34-90.24,33.79-121.21,52.23-12.2,7.98-29.16-3.83-30.54,5.4-.66,5.38,8,17.42,6.49,22.06-6.99,15.51-24.65,35.14-24.53,65.79,.98,58.99,19.04,106.8,19.05,106.8,9.81-4.85,27.34-1.48,39.47-11.76,23.86-17.24,57.02-71.51,62.73-92.08Z"/>
        <path class="cls-5" d="M1222.31,659.62c2.1,3.06,17.51,9.86,13.08,12.65,15.38,11.33,34.08,18.94,51.43,27.95,15.91,8.26,30.69,17.69,40.69,32.26,10,11.47,34.56,6.97,45.06-1.98,.1-.08,.22-.16,.31-.24,1.22-2.99,2.49-5.91,3.8-8.8,9.83-21.62,22.73-42.14,32.86-63.71-1.85-4.31-3.3-9.52-4.43-15.12-4.85-24.02-3.87-55.36-3.87-55.36,16.63-12.97,38.68-67.69,37.26-83.75,32.95-5.92,50.73-44.21,33.51-70.62-13.86-4.79-24.23-6.68-32.8-9.33-13.69-4.23-22.77-10.39-34.06-33.38-27.86-43.83-11.44-90.36-79.79-85.28-34.11-2.94-62.33-2.97-75.46,28.8-5.71,20.57-38.86,74.84-62.73,92.08-12.13,10.28-29.66,6.91-39.47,11.76-18.94,9.53-11.46,42.15-7.71,46.19,0,0,18.87,20.2,18.87,20.2l21.01,8.65c.57,13.32,25.84,71.99,43.14,80.88,0,0-4.46,20.42-11.96,39.69-1.68,4.33-3.52,8.6-5.5,12.57,7.15-.36,12.22,9.31,16.75,13.89Z"/>
        <path class="cls-5" d="M954.8,1101.48c-1.05-27.63-3.19-55.23-6.4-82.71,0,0-11.72-29.59-27.1-38.49,12.84-58.05-19.25-75.14-67.55-83.87-7.24-1.31-14.83-2.43-22.7-3.48-30.03-7.4-55.76-25.37-77.91-45.51-7.89-8.79-21.73-12.22-26.75,.22-17.15,38.32,41.74,91.43,78.82,105.38-22.05,47.22-54.67,98.78-81.46,141.56-8.97,14.33-12.35,23.88-10.7,40.36,3.83,38.18,10.65,75.95,14.72,115.9,2.26,33.01,38.78,21.54,42.09-1.7,.09,0,.02,0,.11,.01,.15,36.56,21.76,45.49,49.94,114.73,28.47,45.88,43.65,2.71,43.93,2.66,0,0,17.6,6.7,20.33-6.68l2.73-21.33c-5.88-21.34-17.31-49.69-17.31-49.69-4.43-6.38-17.43-36.74-17.21-36.36l-1.33-32.8,17.74,36.29c2.54,4.4,15.39,21.49,15.39,21.49,32.49,31.92,41.99,24.34,43.22,23.11,11.75-11.71-22.17-47.2-28.75-56.19-.51-1.68-8.19-39.62-14.76-47.05l-.26,2.56c-.4-1.37-.64-2.76-.65-4.16,.25,.49,.54,1.01,.9,1.59-1.54-11.71,10.54-15.76,19.97-21.32,7.08-4.47,12.07-10.7,16.32-17.57,8-12.92,13.35-28.16,24.88-38.6,6.29-4.66,11.09-10.59,9.73-18.37Zm-174.99,17.92c-.45,.61-.95,1.18-1.44,1.76,.73,1.81,.32,4.39,.18,6.07-.49,5.95-1.58,11.87-2.37,17.79-1.27,9.51-1.46,19.21-4.37,28.48-.37,1.19-2.28,1.22-2.64,0-3.21-10.98-2.81-22.45-4.1-33.69-.4-3.48-.57-6.87,1.5-9.97,1.34-2.01,3.22-3.61,4.99-5.29,1.3-1.24,2.54-2.53,3.73-3.85,.07-.33,.32-.61,.66-.79,.51-.6,1.04-1.17,1.5-1.8,.99-1.34,3.35-.07,2.36,1.27Z"/>
      </g>
      <g>
        <path d="M1203.11,648.09c-2.27,0-4.1-1.7-4.1-3.79,0-1.5,.95-2.8,2.32-3.41,3.05-4.86,7.37-32.78,9.72-56.75,.2-2.08,2.21-3.63,4.45-3.43,2.26,.19,3.92,2.03,3.71,4.11-6.2,63.27-12.4,63.27-16.11,63.27Z"/>
        <path d="M1409.93,654.8c-1.35,0-2.66-.61-3.45-1.74-2.21-3.16-3.85-6.56-4.89-10.09-5.43-18.49-4.61-55.01-4.58-56.56,.05-2.09,2-3.81,4.19-3.7,2.26,.05,4.06,1.78,4.01,3.87-.01,.37-.83,36.97,4.29,54.41,.82,2.78,2.12,5.46,3.87,7.97,1.23,1.76,.68,4.1-1.23,5.24-.69,.41-1.46,.6-2.22,.6Z"/>
        <path d="M1312.18,636.3c-1.21,0-29.95-.33-71.95-26.41-29.44-17.83-39.3-37.13-45.19-48.66-8.91-15.97-16.54-37.73-23.94-68.38-.49-2.04,.9-4.07,3.11-4.52,2.21-.46,4.4,.83,4.9,2.87,7.25,30,14.65,51.19,23.29,66.68,5.58,10.93,14.83,29.02,42.37,45.71,39.75,24.68,67.16,25.14,67.43,25.15,2.26,.01,4.09,1.72,4.08,3.8-.01,2.09-1.84,3.77-4.1,3.77Z"/>
        <path d="M1313,636.28c-2.21,0-4.03-1.63-4.1-3.68-.06-2.09,1.71-3.83,3.97-3.89,.41-.02,23.69-1.21,61.57-27,27.23-18.61,38.96-38.92,43.53-49.36,7.73-16.04,13.83-37.59,19.22-67.92,.37-2.07,2.5-3.47,4.71-3.12,2.24,.34,3.75,2.29,3.38,4.35-5.51,30.99-11.79,53.12-19.77,69.65-4.84,11.06-17.35,32.78-46.21,52.5-40.4,27.49-65.16,28.45-66.2,28.47-.04,0-.08,0-.12,0Z"/>
        <path d="M1176.47,513.4c-.14,0-.29,0-.43-.02-13.1-1.27-35.52-12.55-43.61-38.45-4.56-14.59-1.6-29.03,7.73-37.7,7.73-7.19,18.73-9.38,30.97-6.2,2.18,.57,3.45,2.66,2.84,4.67-.61,2.01-2.88,3.19-5.06,2.62-9.38-2.44-17.31-.97-22.93,4.25-7.12,6.62-9.34,18.49-5.67,30.26,6.92,22.15,26.11,32.01,36.58,33.02,2.25,.22,3.89,2.08,3.65,4.16-.22,1.95-2,3.39-4.07,3.39Z"/>
        <path d="M1165.42,477.66c-1.29,0-2.55-.56-3.35-1.6-.05-.07-5.15-6.71-7.63-9.59-1.41-1.64-1.12-4.02,.66-5.32,1.78-1.3,4.35-1.03,5.76,.61,2.62,3.05,7.69,9.65,7.91,9.93,1.31,1.71,.87,4.07-.98,5.28-.72,.47-1.55,.7-2.37,.7Z"/>
        <path d="M1440.95,506.47c-1.98,0-3.72-1.32-4.04-3.18-.36-2.07,1.16-4.01,3.39-4.35,10.39-1.56,28.95-12.41,34.5-34.88,2.95-11.94,0-23.68-7.51-29.91-5.93-4.92-13.94-5.97-23.15-3.04-2.14,.68-4.47-.37-5.21-2.35-.74-1.98,.4-4.13,2.54-4.81,12.03-3.82,23.14-2.2,31.3,4.57,9.84,8.17,13.68,22.43,10.03,37.23-6.49,26.29-28.18,38.73-41.18,40.68-.22,.03-.44,.05-.66,.05Z"/>
        <path d="M1448.97,470.24c-.74,0-1.5-.19-2.17-.58-1.92-1.11-2.5-3.45-1.3-5.22,.2-.29,4.85-7.15,7.28-10.33,1.31-1.71,3.87-2.12,5.72-.91,1.85,1.21,2.29,3.57,.99,5.28-2.3,3.01-6.99,9.91-7.03,9.98-.78,1.15-2.11,1.78-3.48,1.78Z"/>
        <path d="M1310.88,512.94c-.91,0-1.83-.28-2.6-.86-1.75-1.33-2.01-3.71-.58-5.33,5.02-5.67,7.42-9.88,7.12-12.53-.23-2.01-2.28-3.63-5.62-6.11-4.3-3.2-9.65-7.17-11.71-14.56-5.87-18.46,7.46-45.3,8.03-46.43,.96-1.9,3.39-2.72,5.45-1.84,2.05,.88,2.94,3.14,1.99,5.03-3.52,7-11.75,28.05-7.56,41.23,1.42,5.07,5.07,7.79,8.94,10.67,3.96,2.94,8.05,5.98,8.64,11.23,.56,4.93-2.2,10.51-8.93,18.11-.81,.91-1.99,1.39-3.18,1.39Z"/>
        <path d="M1219.26,393.47c-1.25,0-2.48-.52-3.28-1.51-1.36-1.67-1.01-4.03,.79-5.29,.77-.54,19.19-13.12,44.54-3.87,2.11,.77,3.14,2.97,2.31,4.92-.83,1.95-3.21,2.9-5.32,2.13-20.93-7.65-35.95,2.43-36.58,2.87-.74,.51-1.6,.75-2.45,.75Z"/>
        <path d="M1385.03,387.6c-.78,0-1.57-.21-2.27-.64-.68-.41-16.23-9.61-36.57-.23-2.02,.93-4.49,.18-5.5-1.7-1.01-1.87-.19-4.15,1.84-5.08,24.76-11.41,43.99,.21,44.79,.71,1.88,1.17,2.38,3.52,1.12,5.26-.79,1.09-2.09,1.67-3.41,1.67Z"/>
        <path class="cls-6" d="M1215.14,584.48s55.54,47.58,98.68,47.22c33.19-.1,79.3-38.87,79.3-38.87,0,0-46.37,57.16-90.11,65.21-37.95,7.12-92.49-25.55-92.49-25.55l4.63-48.01Z"/>
        <path d="M1489.92,317.41c-.92,0-1.86-.29-2.62-.88-8.59-6.61-12.05-14.15-16.84-24.59-3.88-8.47-8.72-19-18.11-32.9-19.29-29.75-44.34-42.76-72.45-37.67-2.19,.41-4.38-.94-4.81-2.99-.44-2.05,1.01-4.04,3.24-4.45,31.36-5.68,60.14,8.94,81.03,41.15,9.7,14.35,14.67,25.19,18.67,33.9,4.5,9.81,7.48,16.29,14.54,21.73,1.74,1.34,1.98,3.73,.53,5.33-.81,.9-1.98,1.36-3.15,1.36Z"/>
        <path d="M1463.43,427.7c-.42,0-.86-.06-1.28-.19-2.15-.65-3.32-2.8-2.61-4.78,.22-.63,22.32-63.29,10.44-92-.81-1.95,.25-4.14,2.37-4.89,2.11-.74,4.48,.23,5.29,2.19,12.92,31.23-9.36,94.41-10.31,97.08-.57,1.59-2.17,2.6-3.9,2.6Z"/>
        <path d="M1147.39,246.76c-.67,0-1.27-.02-1.81-.05-2.26-.15-3.96-1.96-3.8-4.05,.16-2.09,2.07-3.67,4.38-3.51,8.07,.51,30.03-3.34,46.5-15.08,69.05-50.96,129.33-56.75,165.33-15.83,1.43,1.62,1.16,4.01-.6,5.33-1.76,1.32-4.34,1.07-5.77-.55-46.49-52.84-123.12-5.71-153.9,17.02-18.08,12.89-40.74,16.73-50.34,16.73Z"/>
        <path d="M1437.05,413.29c-31.63,0-42.05-30.54-51.31-57.68-9.16-26.83-17.06-49.99-40.83-47.44-2.21,.25-4.28-1.24-4.55-3.32-.26-2.08,1.35-3.96,3.6-4.2,30.43-3.29,40.21,25.16,49.61,52.68,9.77,28.63,19.01,55.67,48.97,52.04,2.25-.26,4.3,1.19,4.6,3.26,.29,2.07-1.29,3.98-3.53,4.25-2.28,.28-4.46,.41-6.55,.41Z"/>
        <path d="M1168.29,417.89c-.77,0-1.55,0-2.34-.03-2.26-.06-4.05-1.8-3.99-3.89,.06-2.09,1.91-3.79,4.21-3.69,46.04,1.14,61.28-35.7,74.69-68.21,8.16-19.78,15.21-36.86,28.65-41.31,6.62-2.19,13.9-1.11,22.26,3.3,1.97,1.04,2.65,3.35,1.53,5.17-1.12,1.82-3.63,2.45-5.6,1.41-6.15-3.25-11.2-4.15-15.43-2.75-9.88,3.27-16.31,18.84-23.75,36.87-13.47,32.63-30.18,73.11-80.24,73.11Z"/>
        <path d="M1147.61,438.28c-1.67,0-3.25-.95-3.85-2.49-18.7-47.3-41.74-133.38,14.06-178.47,1.7-1.38,4.29-1.22,5.79,.36,1.49,1.57,1.32,3.97-.39,5.35-52.11,42.11-29.73,124.69-11.75,170.17,.78,1.97-.32,4.14-2.45,4.86-.46,.16-.94,.23-1.41,.23Z"/>
        <path d="M1340.33,283.01c-.16,0-.32,0-.49-.03-2.25-.25-3.86-2.13-3.59-4.21,.14-1.12,3.66-27.54,17.33-40.9,1.56-1.52,4.15-1.59,5.8-.15,1.65,1.44,1.72,3.83,.16,5.36-11.79,11.53-15.11,36.34-15.14,36.59-.25,1.92-2.02,3.34-4.07,3.34Z"/>
        <path d="M1315.48,311.25c-2.37-.05-4.16-1.79-4.1-3.88,.17-6.35-3.37-13.31-9.23-18.17-5.09-4.21-11.23-6.23-16.84-5.54-2.22,.27-4.31-1.18-4.61-3.25-.3-2.07,1.28-3.98,3.52-4.26,8-.99,16.53,1.71,23.41,7.41,7.71,6.39,12.18,15.36,11.96,23.99-.06,2.06-1.88,3.7-4.1,3.7Z"/>
        <path class="cls-6" d="M1229.31,446.91c-.24-7.66,5.38-13.94,12.01-14.11,6.63-.17,12.63,5.8,12.86,13.46,.23,7.66-5.38,13.94-12.01,14.11-6.63,.17-12.62-5.8-12.86-13.46Z"/>
        <path class="cls-6" d="M1355.36,444.37c-.23-7.66,5.38-13.94,12.01-14.11,6.63-.17,12.62,5.8,12.86,13.46,.23,7.66-5.38,13.94-12.01,14.11-7.46,.2-12.62-5.8-12.86-13.46Z"/>
        <path d="M1308.29,719.28c-.73,0-1.46-.18-2.13-.55-2.72-1.53-67.01-37.62-89.69-56.88-22.7-19.29-27.22-26.88-27.16-32.88,.05-4.65,3.21-7.62,6.17-10.03,5.56-4.54,19.24-7.09,20.79-7.36,2.22-.39,4.37,.95,4.8,3,.43,2.05-1.02,4.04-3.25,4.44-4.98,.89-13.97,3.2-16.91,5.6-2.53,2.07-3.38,3.18-3.4,4.43-.07,6.35,18.43,22.07,24.51,27.23,22.08,18.75,87.73,55.61,88.39,55.98,1.94,1.09,2.55,3.41,1.38,5.2-.77,1.17-2.12,1.82-3.51,1.82Z"/>
        <path d="M852.28,897.3c-.21,0-.42-.02-.63-.04-2.24-.32-3.78-2.25-3.43-4.32,5.32-32.07,53.28-167.39,75.83-186.3,23.61-19.31,63.52-24.37,114.05-30.78,35.09-4.45,74.86-9.49,116.22-20.44,2.18-.57,4.45,.59,5.07,2.6,.62,2.01-.64,4.11-2.81,4.68-41.93,11.09-82.01,16.18-117.37,20.66-49.15,6.23-87.97,11.16-109.69,28.91-20.2,16.94-67.64,148.35-73.19,181.81-.31,1.87-2.06,3.21-4.05,3.21Z"/>
        <path d="M1241.89,782.17c-3.24,0-11.61-3.09-34.94-40.92-4.97-8.06-11.6-16.31-18.63-25.05-12.97-16.14-27.68-34.44-35.2-56.2-1.54-4.46,.8-9.2,5.44-11.02,3.11-1.22,8.3-3.79,15.31-9.06,6.93-5.21,21.06-20.45,21.21-20.6,1.47-1.59,4.07-1.78,5.78-.42,1.72,1.36,1.92,3.75,.45,5.34-.6,.65-14.76,15.91-22.26,21.55-7.76,5.84-13.68,8.75-17.29,10.16-.72,.28-1.08,1.03-.83,1.75,7.1,20.56,20.76,37.56,33.97,53.99,7.17,8.92,13.95,17.35,19.16,25.81,12.17,19.73,21.63,31.49,26.2,35.58,8.63-39.32,21.06-61.45,36.97-65.77,5.99-1.62,13.72-1.36,22.97,.79,7.03,1.63,13.44,5.44,18.07,10.7l15.97,18.19c1.43,1.62,1.16,4.01-.6,5.33-1.76,1.32-4.34,1.07-5.77-.56l-15.97-18.19c-3.51-4-8.38-6.89-13.7-8.13-7.7-1.79-14.14-2.09-18.65-.87-7.22,1.96-20.89,12.44-31.36,60.57-.25,1.16-.44,2.02-.57,2.5-.62,2.47-2.42,4.13-4.81,4.45-.25,.03-.55,.07-.93,.07Z"/>
        <path d="M1375.24,730.27c-.61,0-1.23-.13-1.81-.39-2.03-.93-2.87-3.2-1.87-5.07,15.12-28.33,37.5-74.11,37.22-84.1-.32-11.1-5.09-13-5.14-13.02-2.18-.57-3.35-2.63-2.74-4.65,.62-2.02,2.99-3.16,5.16-2.59,1.07,.28,10.44,3.2,10.92,20.05,.43,15.05-34.11,80.26-38.05,87.65-.72,1.34-2.17,2.11-3.68,2.11Z"/>
        <path d="M1427.48,775.94c-1.43,0-3.34-.58-5.16-2.95-3-3.91-4.38-10.97-5.99-19.15-2.14-10.91-4.81-24.49-11.74-29.79-6.29-4.81-11.72-6.54-16.15-5.16-7.6,2.38-11.88,13.5-12.88,17.59-.5,2.04-2.69,3.32-4.91,2.85-2.21-.47-3.59-2.5-3.09-4.54,.19-.77,4.8-18.86,18.25-23.08,7.32-2.3,15.39-.11,24.02,6.5,9.23,7.07,12.07,21.52,14.57,34.28,.62,3.17,1.25,6.39,1.95,9.16,.35-3.58,.65-7.88,.93-11.92,.69-9.86,1.54-22.14,3.4-34.75,3.85-26.04,5.67-39.91,6.27-44.66,.02-.17-.02-.34-.14-.48l-30.07-38.81c-1.32-1.7-.89-4.07,.95-5.28,1.84-1.22,4.4-.83,5.72,.88l30.07,38.81c1.3,1.68,1.88,3.73,1.62,5.78-.6,4.77-2.42,18.7-6.28,44.81-1.83,12.34-2.67,24.47-3.35,34.21-1.26,18.14-1.68,24.26-6.64,25.55-.37,.1-.83,.17-1.35,.17Z"/>
        <path d="M1307.81,556.96c-9.87,0-19.73-1.66-28.91-5.09-2.1-.79-3.11-2.99-2.26-4.93,.85-1.94,3.24-2.87,5.34-2.09,24.01,8.98,53.26,4.44,72.78-11.29,1.71-1.38,4.3-1.21,5.79,.36,1.49,1.58,1.31,3.97-.39,5.35-14.34,11.55-33.37,17.69-52.34,17.69Z"/>
        <path d="M1327.35,780.07c-.25,0-.49-.02-.74-.06-26.17-4.42-51.68-18.64-73.78-41.12-1.52-1.55-1.4-3.95,.28-5.35,1.68-1.4,4.27-1.29,5.79,.26,20.88,21.24,44.8,34.65,69.18,38.76,2.23,.38,3.71,2.35,3.3,4.41-.36,1.83-2.09,3.11-4.03,3.11Z"/>
        <path d="M1393.11,775.94c-1.05,0-2.09-.37-2.89-1.1-1.6-1.48-1.61-3.87-.01-5.36,1.52-1.42,2.96-2.73,4.32-3.98,10.26-9.41,15.41-14.14,18.93-23.62,.74-1.98,3.06-3.04,5.21-2.35,2.14,.68,3.28,2.83,2.55,4.81-4.14,11.15-10.46,16.94-20.91,26.53-1.35,1.24-2.77,2.55-4.29,3.95-.8,.74-1.85,1.11-2.9,1.11Z"/>
        <path d="M1351.33,797.03c-13.58,0-25.09-6.99-27.15-16.73l-9.11-34.64c-.59-2.25,0-4.62,1.64-6.5,2.09-2.41,5.63-3.7,9.42-3.75,7.79,.13,21.87,.33,28.62,.18,3.91-.09,9.1-1.67,14.12-3.2,8.36-2.55,16.25-4.94,21.15-1.24,6.3,4.78,6.54,30.96,6.12,46.14-.63,10.21-11.7,18.3-25.76,18.93l-17.27,.77c-.6,.03-1.19,.04-1.78,.04Zm-25.44-54.04c-1.71,0-2.73,.72-2.85,1.02l9.16,34.68c1.39,6.55,10.38,11.16,20.52,10.74l17.27-.77c9.69-.43,17.58-5.56,17.96-11.67,.46-16.91-.74-37.14-3.28-40.1-1.26-.93-9.34,1.52-13.23,2.71-5.59,1.7-11.37,3.46-16.5,3.58-6.92,.15-21.11-.05-28.96-.18-.03,0-.07,0-.1,0Z"/>
        <path d="M1387.41,737.88c-.53,0-1.08-.1-1.6-.3-2.08-.82-3.05-3.04-2.16-4.97l8.68-18.83c.89-1.92,3.28-2.83,5.38-2,2.08,.82,3.05,3.04,2.17,4.97l-8.68,18.83c-.66,1.44-2.18,2.3-3.78,2.3Z"/>
        <path d="M1318.94,742.19c-.62,0-1.25-.13-1.85-.41-6.1-2.84-15.51-12.15-25.43-22.26-2.63-2.68-5.11-5.21-6.01-5.94-1.7-1.38-1.87-3.78-.37-5.35,1.5-1.57,4.09-1.72,5.79-.34,1.19,.97,3.21,3.01,6.67,6.54,6.22,6.34,17.8,18.14,23.05,20.59,2.02,.94,2.83,3.22,1.81,5.09-.72,1.32-2.17,2.08-3.66,2.08Z"/>
        <path d="M1387.13,794.16c.16,.1,.32,.2,.46,.29,3.46,34.36,6.92,68.6,10.37,102.73,18.68,184.82,36.33,359.41,52.55,538.75h8.23c-16.24-179.59-33.91-354.4-52.62-539.45-3.45-34.13-6.91-68.37-10.37-102.73-.09-3.3-2.46-4.84-3.88-5.78-.72-.47-1.35-.88-1.88-1.53-1.36-1.67-3.93-2.01-5.74-.75-1.81,1.26-2.18,3.63-.82,5.3,1.3,1.6,2.68,2.51,3.69,3.17Z"/>
        <path d="M1320.92,1435.94c.97-194.23,3.43-403.26,14.67-616.18,1.07-4.15,1.32-8.16,1.55-12.05,.36-5.92,.66-11.04,3.69-15.71,1.16-1.8,.53-4.12-1.42-5.19-1.94-1.07-4.46-.49-5.62,1.31-4.06,6.27-4.46,12.83-4.84,19.17-.23,3.82-.45,7.43-1.42,11-.07,.24-.1,.49-.12,.73-11.26,213.2-13.72,422.47-14.7,616.91h8.2Z"/>
        <path d="M1381.02,864.38c-2.33-.03-4.14-1.76-4.1-3.85,.33-19.65-2.35-54.2-6.18-67.63-.58-2.02,.73-4.1,2.92-4.63,2.2-.54,4.44,.67,5.01,2.7,3.99,13.99,6.8,49.56,6.45,69.69-.03,2.07-1.86,3.73-4.1,3.73Z"/>
        <path d="M921.09,1195.48c-1.59,0-3.1-.85-3.77-2.28-.9-1.92,.05-4.15,2.13-4.98,39.34-15.74,50.75-63.51,71.45-150.21,9.68-40.54,21.73-91,39.7-150.74,.61-2.02,2.88-3.19,5.05-2.64,2.18,.56,3.46,2.65,2.85,4.66-17.91,59.54-29.93,109.89-39.59,150.35-21.29,89.14-33.01,138.24-76.2,155.53-.53,.21-1.08,.31-1.63,.31Z"/>
        <path d="M1439.1,676.04c9.29,5.24,18.76,8.16,27.91,10.98,4.39,1.35,8.94,2.75,13.46,4.42,16.83,5.73,33.78,10.17,50.17,14.47,35.01,9.18,68.07,17.85,98.97,37.91,1.69,1.59,3.12,3.2,4.51,4.76,2.75,3.08,5.35,6.01,9.25,8,25.83,26.87,31.28,61.21,31.28,85.36,0,.1,0,.19,.01,.29,6.37,77.94,6.23,156.2,6.1,231.88-.09,53.92-.19,109.68,2.09,164.46,2.68,64.36,5.46,130.91,11.94,197.36h8.23c-6.52-66.49-9.29-133.17-11.98-197.65-2.27-54.63-2.18-110.31-2.09-164.16,.13-75.78,.27-154.14-6.11-232.33-.02-25.62-5.92-62.11-33.86-90.78-.34-.35-.76-.64-1.22-.85-2.75-1.27-4.77-3.53-7.31-6.39-1.51-1.69-3.21-3.61-5.29-5.53-.17-.15-.34-.29-.53-.42-32.12-20.94-65.95-29.81-101.75-39.2-16.24-4.26-33.04-8.66-49.47-14.25-4.64-1.71-9.3-3.15-13.81-4.54-9.12-2.81-17.73-5.46-26.23-10.26-1.93-1.09-4.46-.53-5.64,1.26-1.18,1.79-.57,4.12,1.36,5.21Z"/>
        <path d="M1011.42,1435.94h8.2c2.73-81.98-5.78-164.31-14.01-243.95-4.32-41.75-8.78-84.92-11.51-127.19-.14-2.09-2.1-3.7-4.34-3.55-2.26,.12-3.99,1.92-3.85,4.01,2.74,42.4,7.21,85.64,11.54,127.45,8.22,79.48,16.71,161.65,13.98,243.23Z"/>
        <path d="M1604.34,1435.94h8.21c-1.29-66.81-3.23-134.16-5.11-199.3-3.25-112.57-6.61-228.97-6.61-344.19,0-8.63,2.82-16.72,5.81-25.28,2.83-8.1,5.75-16.48,6.39-25.79,.14-2.09-1.57-3.89-3.83-4.02-2.22-.14-4.21,1.45-4.35,3.54-.57,8.37-3.34,16.29-6.01,23.95-3.05,8.74-6.2,17.78-6.2,27.6,0,115.32,3.36,231.77,6.61,344.39,1.88,65.08,3.82,132.37,5.11,199.1Z"/>
        <path d="M918.6,994.46c-.37,0-.74-.04-1.11-.14-2.18-.56-3.46-2.65-2.85-4.67,5.5-18.18,11.46-51.59-10.38-71.12-12.97-11.6-31.32-14.5-50.75-17.57-7.8-1.23-15.86-2.51-23.52-4.39-26.42-6.5-52.5-21.7-79.73-46.47-4.1-3.73-10.08-8.5-14.71-6.76-1.95,.73-3.7,2.62-5.49,5.96-15.19,28.32,28.81,68.64,42.66,80.32,19.42,16.39,32.83,20.07,55.04,26.16,4.85,1.33,10.06,2.76,15.78,4.45,2.16,.64,3.35,2.77,2.66,4.76-.69,2-3,3.1-5.16,2.45-5.65-1.67-10.81-3.09-15.61-4.4-22.53-6.19-37.42-10.27-58.23-27.83-19.12-16.13-61.73-57.12-44.48-89.28,1.72-3.21,4.61-7.7,9.77-9.62,10.16-3.78,19.53,4.75,23.53,8.39,26.19,23.82,51.08,38.39,76.09,44.55,7.31,1.8,15.18,3.04,22.8,4.25,19.8,3.13,40.28,6.37,55.07,19.59,24.89,22.26,18.56,58.8,12.58,78.6-.51,1.67-2.15,2.77-3.95,2.77Z"/>
        <path d="M747.83,1274.78c-6.36,0-12.65-2.4-17.32-6.72-5.2-4.8-6.13-11.72-6.82-16.77-2.91-21.49-5.25-40.61-7.52-59.1-2.26-18.47-4.6-37.56-7.5-59.01-.79-5.84-1.69-12.46-.27-18.93,1.74-7.94,6.58-14.53,11.26-20.9l.67-.92c26.88-36.68,60.26-97.18,81.42-140.87,.92-1.91,3.35-2.77,5.42-1.91,2.07,.85,2.99,3.1,2.07,5-21.3,43.99-54.95,104.97-82.11,142.02l-.68,.93c-4.23,5.75-8.6,11.7-10.01,18.15-1.16,5.26-.38,10.97,.36,16.49,2.91,21.49,5.25,40.61,7.52,59.1,2.26,18.47,4.6,37.57,7.5,59.01,.7,5.14,1.51,9.62,4.48,12.36,3.73,3.45,8.72,5.02,13.71,4.35,4.68-.64,8.51-3.16,10.78-7.09,11.93-20.63,6.77-57.03,2.62-86.28-2.49-17.53-4.64-32.67-3.07-42.48,.84-5.22,9.47-12.15,25.94-24.97,3.15-2.45,6.35-4.94,9.45-7.42,1.71-1.37,4.3-1.19,5.78,.39,1.48,1.58,1.29,3.98-.43,5.34-3.13,2.49-6.36,5.01-9.53,7.47-9.37,7.29-22.19,17.27-23.13,20.36-1.39,8.69,.69,23.34,3.1,40.31,4.3,30.32,9.66,68.06-3.52,90.84-3.48,6.01-9.61,10.03-16.81,11.02-1.13,.15-2.26,.23-3.39,.23Z"/>
        <path d="M843.73,1388.78c-12.44,0-22.68-11.34-27.66-23.58-12.13-29.8-22.88-48.09-31.52-62.79-11.25-19.14-18.69-31.78-18.69-53.65,0-2.09,1.84-3.79,4.1-3.79s4.1,1.7,4.1,3.79c0,19.94,6.66,31.27,17.69,50.03,8.76,14.9,19.67,33.45,32,63.74,4.13,10.15,12.84,20.24,22.25,18.45,9.38-1.79,13.92-14.27,11.71-24.23-7.99-35.97-25.69-68.94-34.19-84.78-2.23-4.15-3.84-7.15-4.6-8.95-.24-.57-.33-1.19-.26-1.81,.07-.58,7.11-58.75,8.31-93.81,.07-2.09,1.97-3.82,4.23-3.67,2.26,.06,4.04,1.81,3.97,3.9-1.12,32.85-7.3,85.61-8.24,93.44,.79,1.65,2.21,4.3,3.94,7.52,8.66,16.13,26.68,49.68,34.88,86.62,3.06,13.77-3.48,30.38-18.08,33.17-1.33,.25-2.64,.38-3.93,.38Z"/>
        <path d="M921.33,1306.8c-.31,0-.6,0-.88-.03-12.62-.7-30.7-16.38-53.72-46.6-2.7-3.54-6.4-12.59-10.7-23.07-2.47-6.03-5.03-12.27-7.43-17.52-.88-1.93,.09-4.15,2.18-4.96,2.09-.81,4.49,.09,5.37,2.02,2.46,5.38,5.05,11.69,7.55,17.79,3.75,9.16,7.63,18.63,9.73,21.39,29.26,38.41,42.97,43.14,47.51,43.39,2.15,.15,2.95-.7,3.33-1.09,7.53-7.5-15.03-34.62-23.53-44.82-2.4-2.89-4.3-5.17-5.49-6.79-.3-.41-.52-.88-.62-1.37-3.11-14.16-8.85-37.05-11.89-42.07-.59-.97-1.12-1.81-1.59-2.55-3.88-6.09-4.36-8.45,.25-15.88,1.13-1.81,3.64-2.44,5.6-1.4,1.97,1.04,2.65,3.36,1.52,5.17q-2.74,4.42-.29,8.27c.5,.78,1.06,1.66,1.68,2.69,4.41,7.27,11.23,37.32,12.6,43.49,1.1,1.43,2.81,3.48,4.75,5.82,17.07,20.51,34.34,43.32,23.16,54.46-2.88,2.95-6.38,3.65-9.08,3.65Z"/>
        <path d="M871.08,1372.39c-4.54,0-8.59-1.74-10.8-4.28-1.42-1.63-1.13-4.02,.63-5.33,1.77-1.31,4.35-1.05,5.77,.58,1.17,1.35,4.95,2.19,8.45,.51,3.32-1.59,13.37-9.26,3.41-41.12-5.09-16.27-11-30.04-20.4-47.5-4.23-7.85-8.6-15.97-10.53-25.01-.03-.15-.05-.3-.07-.45-.05-.63-1.27-15.62-.9-23.43,.35-7.58,.56-13.75,.76-19.92,.21-6.22,.41-12.44,.77-20.08,.1-2.09,1.99-3.71,4.27-3.62,2.26,.09,4.02,1.86,3.92,3.95-.36,7.6-.56,13.79-.76,19.98-.2,6.2-.41,12.41-.77,20.02-.32,6.87,.71,20.39,.86,22.3,1.74,7.96,5.82,15.54,9.78,22.88,9.63,17.9,15.7,32.03,20.93,48.77,11.37,36.37-1.46,47.05-7.51,49.94-2.61,1.25-5.29,1.79-7.83,1.79Z"/>
        <path d="M873.23,1192.75c-.19,0-.38-.01-.57-.04-11.32-1.46-25.41-3.27-35.48-11.78-3.49-2.95-6.13-6.41-8.68-9.75-3.45-4.51-10.73-14.64-17.76-24.43-7.01-9.75-14.25-19.83-17.63-24.26-1.31-1.71-.86-4.07,.99-5.28,1.85-1.21,4.41-.8,5.72,.91,3.45,4.51,10.73,14.64,17.76,24.43,7.01,9.75,14.25,19.83,17.63,24.26,2.3,3.01,4.68,6.13,7.52,8.53,7.58,6.4,18.56,8.26,31.07,9.87,2.24,.29,3.81,2.2,3.5,4.27-.29,1.89-2.04,3.27-4.06,3.27Z"/>
        <path d="M911.06,1196.91c-8.32,0-17.65-2.33-27.9-6.98-1.21-.55-2.05-1.61-2.25-2.85-.2-1.23,.27-2.48,1.26-3.33,12.57-10.83,49.96-55.01,48.3-68.23-3.07-24.49-12.57-49.61-28.24-74.63-1.13-1.81-.46-4.13,1.5-5.18,1.96-1.05,4.47-.43,5.6,1.38,16.23,25.93,26.09,52.03,29.29,77.55,2.06,16.45-32.53,56.45-46.66,70.64,13.26,5.07,24.19,5.35,32.54,.83,14.05-7.61,22.2-29.04,24.22-63.7,.98-16.87,1.18-32.03,.61-46.33-.97-24.3-3.78-43.39-8.85-60.07-4.09-13.45-9.25-26.97-19.3-34.82-1.73-1.35-1.95-3.74-.48-5.34,1.46-1.6,4.05-1.8,5.78-.45,11.74,9.17,17.46,23.95,21.9,38.56,5.25,17.27,8.16,36.92,9.15,61.84,.58,14.54,.38,29.92-.62,47.02-2.21,37.89-11.45,60.73-28.26,69.83-5.23,2.83-11.11,4.25-17.59,4.25Z"/>
        <path d="M933.74,1138.71c-.42,0-.86-.06-1.28-.19-2.15-.65-3.32-2.79-2.62-4.78,3.89-10.93,10.25-21.31,18.42-30.01,1.48-1.59,4.07-1.75,5.78-.38,1.71,1.37,1.9,3.76,.41,5.34-7.46,7.94-13.27,17.42-16.82,27.41-.57,1.6-2.17,2.61-3.9,2.61Z"/>
        <path d="M977.85,996.07c-1.53,0-3-.79-3.7-2.16-5.47-10.57-11.67-22.55-21.76-30.91-8.01-6.63-18.26-10.81-28.18-14.86-2.07-.85-3.01-3.08-2.09-5,.92-1.91,3.34-2.77,5.41-1.93,10.01,4.09,21.36,8.72,30.34,16.15,11.32,9.37,18.18,22.63,23.69,33.29,.98,1.89,.11,4.15-1.93,5.05-.57,.25-1.17,.37-1.76,.37Z"/>
        <path d="M911.88,1156.67c10.26-16.7,21.04-26.26,21.99-29.71,2.58-9.45,11.45-16.13,19.79-22.1,0,22.72-3.46,45.44-10.23,67.28-1.87,6.03-4.28,12.38-9.68,16.19-4.51,3.18-10.39,4.06-16.02,4.66-6.12,.65-31.34,2.87-32.76-5.47-1.32-7.75,20.24-19.98,26.92-30.84Z"/>
        <path d="M1410.08,628.81c.8,1.59,1.18,3.33,1.55,5.05,.59,2.78,1.19,5.62,.76,8.43-.54,3.49-2.63,6.69-2.8,10.21,.11-2.19-3.4-6.75-4.21-9.03-1.2-3.39-2.05-6.88-2.52-10.41-.29-2.16-1.63-6.84,.95-8.18,2.76-1.43,5.31,2.02,6.28,3.93Z"/>
        <path d="M1194.78,624.22c-1.04,1.56-1.67,3.33-2.07,5.12-.15,.69-.27,1.4-.11,2.08,.2,.84,.8,1.55,1.38,2.23,3.27,3.75,6.64,7.42,10.11,11.01,1.68-4.61,3.36-9.22,5.05-13.84,1.18-3.24,4.38-12.26-1.31-13.72-4.23-1.08-11.03,4.1-13.05,7.12Z"/>
        <path d="M1378.35,749.68c-.71,0-1.43-.17-2.09-.53-7.43-4.07-15.93-6.27-24.58-6.35-2.26-.02-4.08-1.74-4.06-3.83,.02-2.08,1.86-3.75,4.1-3.75,10.13,.1,20.05,2.66,28.72,7.41,1.95,1.07,2.59,3.39,1.43,5.19-.77,1.19-2.13,1.85-3.53,1.85Z"/>
        <path d="M1175.71,193.18c-1.25,0-2.48-.52-3.29-1.52l-38.17-47.12c-1.36-1.67-.99-4.05,.83-5.3,1.81-1.25,4.38-.91,5.74,.76l38.17,47.12c1.36,1.67,.99,4.05-.83,5.3-.74,.51-1.6,.75-2.45,.75Z"/>
        <path d="M1218.36,171.31c-1.61,0-3.13-.88-3.79-2.33l-27.37-60.65c-.87-1.93,.12-4.15,2.21-4.95,2.09-.81,4.49,.11,5.36,2.04l27.37,60.65c.87,1.93-.12,4.15-2.21,4.95-.52,.2-1.05,.29-1.58,.29Z"/>
        <path d="M1263.33,157.92c-1.9,0-3.61-1.23-4.01-3.02l-12.3-54.82c-.46-2.05,.97-4.05,3.18-4.48,2.22-.44,4.39,.89,4.85,2.94l12.3,54.82c.46,2.05-.97,4.05-3.18,4.48-.28,.05-.56,.08-.84,.08Z"/>
        <path d="M769.46,1191.28c-.29,0-.59-.03-.89-.09-2.21-.45-3.61-2.47-3.12-4.52,6.19-25.88,8.96-44.42,10.61-70.87,.13-2.09,2.07-3.73,4.33-3.56,2.26,.12,3.99,1.91,3.86,4-1.68,26.9-4.5,45.76-10.79,72.07-.42,1.77-2.12,2.97-4,2.97Z"/>
      </g>
    </g>
  </g>
</svg>