<?xml version="1.0" encoding="UTF-8"?>
<svg id="_Layer_" data-name="&amp;lt;Layer&amp;gt;" xmlns="http://www.w3.org/2000/svg" viewBox="0 0 2745 1830">
  <defs>
    <style>
      .cls-1 {
        fill: #fff;
      }

      .cls-2 {
        fill: #d34c42;
      }

      .cls-3 {
        fill: #351d17;
      }

      .cls-4 {
        fill: #aecad6;
      }

      .cls-5 {
        fill: #ffddc0;
      }

      .cls-6 {
        fill-rule: evenodd;
      }
    </style>
  </defs>
  <rect class="cls-4" width="2745" height="1830"/>
  <g>
    <g>
      <path class="cls-1" d="M951.5,1279.68c47.36,44.29,30.2,92.72,37.38,146.38,1.51,9.39-3.85,16.55-10.86,22.18-12.86,12.6-18.84,31.01-27.75,46.62,4.73,1.21,9.77,1.7,14.64,.69l-13.63,39.46c40.42-17.51,55.13-64.04,74.12-147.66,.89-.48,1.78-.94,2.7-1.37,3.81,48.19,28.77,325.34,29.62,444.02h335.01c.8-88.99,7.44-771.13,22.85-780.05-7.07-3.69-10.01-9.77-11.15-16.77-32.65-5.83-61.16-22.05-80.01-49.33,31.75-54.97,40.98-22.21,74.69,5.42,1.87-.86,4.21-.77,6.35-.7-.63-1.66-1.32-3.31-2.14-4.91l5.18,4.97c-10.38-11.43-18.47-28.46-34.34-32.91l3.1,2.97c-3.94-1.99-8.08-3.62-12.31-4.88,3.27,.47,6.28,1.04,9.22,1.91-19.13-22.18-50.5-29.59-72.27-48.03,4.94-3.37-12.25-11.58-14.59-15.27-5.04-5.53-10.7-17.21-18.68-16.78,2.2-4.79,4.25-9.95,6.13-15.18l-14.34-13.75s-16.1,18.82-24.24,25.45c-10.05,9.41-16.55,8.31-21.57,15.21-285.65,79.01-252.93-20.03-340.06,287.53l2.51-2.1c-.31,1.86-.58,3.73-.87,5.59,53.87,10.55,89.68,31.19,75.35,101.3Z"/>
      <path class="cls-1" d="M1470.62,981.86c7.93-3.31,6.62-15.63,10.53-22.24,10.82,10.01,21.64,17.41,23.69,33.64-4.82,15.24-18,26.01-28.17,38.51,.31,7.31-2.9,12.48-9.48,16.67,23.03,17.56,67.93,717.42,78.53,781.56h272.77c-20.86-222.32-10.11-592.39-19.82-721-7.51-40.23-17.16-80.01-34.37-99.47-52.66-54.93-162.73-64.21-232.79-98.87l-.85,.35c.6-4.92,.85-7.22,.85-7.22l-34.76-48.58c-5.75,13.29-6.41,22.11-.61,34.94-12.27,29.19-29.82,56.3-39.79,86.37,1.61-3.88,4.05-8.49,7.49-12.03-1.28,3.27-4.3,10.38-7.55,12.2l.06-.17c-.57,.85-9.62,9.17-10.57,10.18,9.68-2.85,19.98-7.4,24.85-4.85Z"/>
      <path class="cls-2" d="M1404.42,1033.19c1.13,6.99,4.08,13.08,11.21,16.76-15.57,8.78-22.08,691.05-22.9,780.05h152.99c-9.55-54.91-45.88-562.95-64.57-734.08-6.76-61.89-10.4-44.21-13.97-47.49,6.59-4.19,9.79-9.36,9.48-16.67,10.17-12.5,23.35-23.27,28.17-38.51-2.05-16.21-12.88-23.66-23.69-33.64-3.9,6.59-2.61,18.95-10.53,22.24-6.87-3.53-25.17,6.93-35.49,6.89-8.51,.78-25.4-1.32-36.04,.52-33.75-27.72-42.97-60.33-74.69-5.42,18.85,27.29,47.36,43.5,80.01,49.33Z"/>
      <path class="cls-3" d="M1318.06,498.8c14.65-38.37,46.12-38.33,84.17-34.78,76.24-6.13,57.93,50.05,89.01,102.99,12.59,27.77,22.72,35.2,37.99,40.31l27.9-1.45s13.54-44.81,14.29-83.71c.66-9.27-1.47-19.4-2.66-28.62-1.13-7.37,19.11-11.65,7.51-28.91-11.6-17.26-25.57-52.96-37.22-72.07-31.07-50.95-47-25.51-88.25-43.78-41.25-18.27-48.99-30.08-78.58-29.24-47.2,.41-100.66,40.81-135.21,63.07-13.61,9.64-32.53-4.63-34.06,6.52-.74,6.5,8.93,21.04,7.23,26.64-7.8,18.73-27.49,42.43-27.37,79.46,1.09,71.24,21.24,128.98,21.25,128.99,10.94-5.86,30.49-1.79,44.03-14.21,26.62-20.82,63.61-86.36,69.97-111.21Z"/>
      <path class="cls-5" d="M1287.28,892.42c2.34,3.7,19.53,11.91,14.59,15.27,17.16,13.68,38.02,22.88,57.37,33.75,17.75,9.98,34.23,21.36,45.39,38.96,11.16,13.85,38.55,8.42,50.26-2.39,.11-.1,.24-.19,.35-.29,1.36-3.61,2.77-7.13,4.24-10.63,10.97-26.11,25.36-50.89,36.65-76.94-2.07-5.21-3.68-11.5-4.94-18.26-5.42-29.01-4.32-66.86-4.32-66.86,18.55-15.67,43.15-81.75,41.56-101.15,36.76-7.15,56.59-53.39,37.38-85.29-15.46-5.78-27.03-8.07-36.59-11.26-15.27-5.11-25.4-12.54-37.99-40.31-31.08-52.94-12.77-109.13-89.01-102.99-38.05-3.55-69.52-3.58-84.17,34.78-6.36,24.85-43.35,90.39-69.97,111.21-13.53,12.42-33.09,8.34-44.03,14.21-21.12,11.51-12.78,50.91-8.6,55.78,0,0,21.06,24.39,21.06,24.39l23.44,10.44c.63,16.08,28.83,86.95,48.13,97.68,0,0-4.98,24.66-13.35,47.94-1.88,5.23-3.93,10.39-6.13,15.18,7.98-.44,13.63,11.25,18.68,16.78Z"/>
      <path class="cls-5" d="M988.87,1426.07c-1.17-33.37-3.56-66.7-7.14-99.9,0,0-13.07-35.74-30.23-46.49,14.33-70.11-21.47-90.75-75.35-101.3-8.07-1.58-16.54-2.94-25.32-4.2-33.5-8.93-62.2-30.64-86.91-54.97-8.8-10.61-24.24-14.76-29.84,.26-19.13,46.28,46.56,110.42,87.92,127.27-24.6,57.03-60.99,119.3-90.87,170.96-10.01,17.3-13.78,28.84-11.94,48.75,4.27,46.11,11.88,91.72,16.42,139.98,2.52,39.87,43.26,26.01,46.96-2.05,.1,.01,.03,0,.12,.02,.17,44.15,24.27,54.94,55.71,138.57,31.76,55.41,48.7,3.27,49,3.22,0,0,19.63,8.1,22.68-8.06l3.04-25.76c-6.55-25.77-19.31-60.01-19.31-60.01-4.94-7.7-19.44-44.37-19.2-43.91l-1.48-39.62,19.79,43.83c2.83,5.32,17.17,25.95,17.17,25.95,36.25,38.55,46.84,29.39,48.22,27.91,13.11-14.14-24.73-57.01-32.07-67.86-.56-2.03-9.13-47.86-16.46-56.82l-.28,3.1c-.44-1.66-.72-3.33-.72-5.02,.28,.59,.6,1.22,1.01,1.92-1.72-14.15,11.76-19.03,22.28-25.75,7.9-5.4,13.46-12.92,18.2-21.22,8.92-15.61,14.9-34.01,27.75-46.62,7.01-5.63,12.37-12.79,10.86-22.18Zm-195.2,21.64c-.5,.74-1.06,1.42-1.61,2.13,.82,2.18,.35,5.3,.2,7.33-.55,7.19-1.76,14.34-2.64,21.49-1.41,11.49-1.63,23.21-4.88,34.4-.42,1.43-2.54,1.47-2.94,0-3.58-13.26-3.13-27.12-4.58-40.68-.45-4.2-.64-8.3,1.67-12.04,1.5-2.43,3.59-4.36,5.57-6.39,1.46-1.5,2.84-3.05,4.16-4.65,.08-.4,.35-.74,.73-.95,.56-.72,1.16-1.41,1.68-2.17,1.1-1.62,3.74-.09,2.63,1.54Z"/>
    </g>
    <g>
      <path d="M1265.87,878.5c-2.53,0-4.58-2.05-4.58-4.58,0-1.82,1.06-3.38,2.59-4.12,3.4-5.87,8.22-39.59,10.84-68.54,.23-2.52,2.47-4.38,4.97-4.14,2.52,.23,4.37,2.45,4.14,4.97-6.92,76.41-13.83,76.41-17.97,76.41Z"/>
      <path d="M1496.58,886.6c-1.5,0-2.97-.74-3.85-2.1-2.46-3.82-4.3-7.92-5.45-12.19-6.05-22.33-5.15-66.44-5.11-68.3,.06-2.53,2.23-4.61,4.68-4.47,2.53,.06,4.53,2.15,4.47,4.67-.01,.44-.92,44.65,4.79,65.71,.91,3.36,2.36,6.6,4.31,9.63,1.37,2.12,.76,4.95-1.37,6.32-.76,.49-1.63,.73-2.47,.73Z"/>
      <path d="M1387.54,864.26c-1.35,0-33.41-.4-80.26-31.9-32.84-21.53-43.84-44.84-50.41-58.77-9.94-19.28-18.45-45.57-26.71-82.59-.55-2.47,1-4.91,3.47-5.46,2.46-.56,4.91,1,5.46,3.47,8.08,36.23,16.34,61.82,25.98,80.53,6.23,13.2,16.54,35.05,47.26,55.2,44.35,29.81,74.92,30.37,75.22,30.37,2.52,.02,4.56,2.07,4.55,4.59-.01,2.52-2.05,4.56-4.57,4.56Z"/>
      <path d="M1388.46,864.23c-2.47,0-4.5-1.96-4.57-4.45-.07-2.52,1.91-4.62,4.42-4.7,.45-.02,26.42-1.47,68.69-32.6,30.37-22.48,43.46-47,48.56-59.62,8.63-19.38,15.42-45.39,21.44-82.03,.41-2.49,2.79-4.19,5.26-3.77,2.49,.41,4.18,2.76,3.77,5.26-6.15,37.43-13.16,64.16-22.05,84.12-5.39,13.36-19.36,39.58-51.54,63.4-45.07,33.21-72.69,34.36-73.84,34.39-.04,0-.09,0-.13,0Z"/>
      <path d="M1236.16,715.82c-.16,0-.32,0-.48-.03-14.61-1.53-39.62-15.16-48.65-46.44-5.08-17.62-1.78-35.06,8.62-45.53,8.62-8.68,20.89-11.33,34.55-7.49,2.43,.69,3.85,3.21,3.16,5.64-.69,2.43-3.21,3.85-5.64,3.16-10.46-2.95-19.31-1.17-25.58,5.13-7.94,7.99-10.42,22.34-6.32,36.54,7.72,26.75,29.13,38.66,40.81,39.88,2.51,.26,4.34,2.51,4.07,5.03-.25,2.35-2.23,4.1-4.54,4.1Z"/>
      <path d="M1223.82,672.67c-1.43,0-2.85-.67-3.74-1.93-.06-.08-5.75-8.1-8.51-11.58-1.57-1.98-1.25-4.85,.73-6.43,1.98-1.57,4.86-1.24,6.43,.73,2.93,3.68,8.58,11.65,8.82,11.99,1.46,2.06,.97,4.92-1.09,6.38-.8,.57-1.73,.84-2.64,.84Z"/>
      <path d="M1531.18,707.45c-2.2,0-4.15-1.6-4.51-3.84-.41-2.49,1.29-4.84,3.78-5.25,11.59-1.88,32.29-14.98,38.48-42.13,3.29-14.42,0-28.6-8.38-36.13-6.61-5.94-15.55-7.21-25.82-3.67-2.39,.83-4.99-.45-5.81-2.84-.82-2.39,.45-4.99,2.83-5.81,13.42-4.61,25.81-2.66,34.92,5.52,10.98,9.86,15.27,27.09,11.19,44.97-7.24,31.75-31.44,46.77-45.94,49.12-.25,.04-.49,.06-.74,.06Z"/>
      <path d="M1540.13,663.7c-.83,0-1.67-.23-2.42-.7-2.14-1.34-2.79-4.16-1.45-6.31,.22-.35,5.41-8.63,8.12-12.47,1.46-2.07,4.32-2.56,6.38-1.1,2.06,1.46,2.56,4.31,1.1,6.38-2.57,3.63-7.79,11.97-7.84,12.05-.87,1.39-2.36,2.15-3.88,2.15Z"/>
      <path d="M1386.08,715.27c-1.02,0-2.04-.34-2.9-1.03-1.95-1.6-2.24-4.48-.64-6.44,5.6-6.85,8.27-11.94,7.94-15.13-.25-2.43-2.55-4.39-6.27-7.38-4.8-3.86-10.77-8.66-13.06-17.58-6.55-22.29,8.32-54.71,8.96-56.07,1.07-2.29,3.79-3.28,6.08-2.22,2.29,1.07,3.28,3.79,2.22,6.08-3.93,8.45-13.11,33.88-8.44,49.79,1.58,6.12,5.66,9.41,9.98,12.88,4.41,3.55,8.98,7.22,9.64,13.56,.62,5.95-2.45,12.7-9.96,21.87-.91,1.11-2.22,1.68-3.54,1.68Z"/>
      <path d="M1283.89,570.99c-1.39,0-2.76-.63-3.66-1.82-1.51-2.01-1.12-4.87,.89-6.39,.86-.65,21.41-15.85,49.69-4.67,2.35,.93,3.5,3.59,2.57,5.94-.93,2.35-3.58,3.5-5.94,2.57-23.35-9.24-40.11,2.94-40.81,3.46-.82,.61-1.78,.91-2.74,.91Z"/>
      <path d="M1468.8,563.9c-.87,0-1.75-.25-2.54-.77-.76-.5-18.11-11.6-40.79-.28-2.25,1.12-5.01,.21-6.14-2.05-1.13-2.26-.21-5.01,2.05-6.14,27.62-13.78,49.07,.26,49.97,.86,2.1,1.41,2.65,4.25,1.24,6.35-.88,1.31-2.33,2.02-3.8,2.02Z"/>
      <path class="cls-6" d="M1279.29,801.68s61.95,57.47,110.07,57.03c37.02-.12,88.46-46.94,88.46-46.94,0,0-51.73,69.04-100.51,78.75-42.33,8.6-103.18-30.86-103.18-30.86l5.16-57.98Z"/>
      <path d="M1585.8,479.13c-1.03,0-2.07-.35-2.92-1.06-9.58-7.98-13.44-17.09-18.79-29.7-4.33-10.22-9.73-22.95-20.21-39.74-21.52-35.94-49.46-51.65-80.82-45.49-2.45,.49-4.88-1.13-5.37-3.61-.49-2.48,1.13-4.88,3.61-5.37,34.99-6.85,67.09,10.8,90.39,49.7,10.82,17.33,16.36,30.42,20.82,40.94,5.02,11.85,8.34,19.68,16.22,26.24,1.94,1.62,2.2,4.5,.59,6.44-.91,1.09-2.21,1.65-3.52,1.65Z"/>
      <path d="M1556.26,612.33c-.47,0-.96-.07-1.43-.23-2.4-.79-3.7-3.38-2.91-5.78,.25-.76,24.9-76.43,11.65-111.11-.9-2.36,.28-5.01,2.64-5.91,2.35-.89,5,.28,5.91,2.64,14.41,37.72-10.44,114.02-11.5,117.25-.63,1.92-2.42,3.14-4.35,3.14Z"/>
      <path d="M1203.71,393.8c-.74,0-1.42-.02-2.02-.07-2.52-.18-4.42-2.37-4.24-4.89,.18-2.52,2.31-4.44,4.89-4.24,9.01,.61,33.5-4.03,51.87-18.21,77.03-61.54,144.27-68.54,184.43-19.12,1.59,1.96,1.3,4.84-.66,6.43-1.97,1.6-4.84,1.29-6.44-.67-51.86-63.81-137.34-6.89-171.68,20.55-20.17,15.56-45.44,20.2-56.16,20.2Z"/>
      <path d="M1526.83,594.92c-35.28,0-46.9-36.88-57.24-69.66-10.22-32.4-19.03-60.37-45.55-57.29-2.47,.3-4.78-1.5-5.08-4.01-.29-2.51,1.5-4.78,4.02-5.08,33.95-3.97,44.85,30.39,55.34,63.63,10.9,34.58,21.2,67.23,54.63,62.85,2.51-.32,4.8,1.44,5.13,3.94,.33,2.5-1.44,4.8-3.94,5.13-2.54,.33-4.98,.49-7.31,.49Z"/>
      <path d="M1227.03,600.48c-.86,0-1.73-.01-2.61-.03-2.53-.07-4.52-2.17-4.45-4.7,.07-2.53,2.13-4.58,4.7-4.45,51.36,1.38,68.36-43.12,83.32-82.38,9.11-23.89,16.97-44.52,31.96-49.89,7.38-2.64,15.5-1.34,24.83,3.99,2.19,1.25,2.96,4.05,1.7,6.24-1.25,2.19-4.04,2.96-6.24,1.7-6.86-3.92-12.49-5.01-17.21-3.32-11.02,3.95-18.19,22.75-26.49,44.53-15.02,39.4-33.66,88.29-89.51,88.3Z"/>
      <path d="M1203.96,625.1c-1.87,0-3.62-1.15-4.3-3.01-20.86-57.12-46.56-161.09,15.68-215.54,1.9-1.66,4.79-1.47,6.46,.43,1.66,1.9,1.47,4.79-.43,6.46-58.13,50.86-33.16,150.59-13.11,205.51,.87,2.37-.36,5-2.73,5.87-.52,.19-1.05,.28-1.57,.28Z"/>
      <path d="M1418.94,437.58c-.18,0-.36-.01-.54-.03-2.51-.3-4.3-2.57-4-5.08,.16-1.35,4.08-33.27,19.33-49.4,1.74-1.84,4.63-1.92,6.47-.18,1.84,1.74,1.92,4.63,.18,6.47-13.15,13.92-16.86,43.89-16.89,44.19-.28,2.32-2.25,4.04-4.54,4.04Z"/>
      <path d="M1391.21,471.69c-2.64-.06-4.64-2.16-4.58-4.69,.19-7.67-3.76-16.08-10.3-21.94-5.68-5.09-12.53-7.52-18.79-6.69-2.48,.33-4.81-1.42-5.14-3.93-.33-2.5,1.42-4.81,3.93-5.14,8.93-1.2,18.44,2.07,26.11,8.95,8.6,7.71,13.59,18.55,13.34,28.97-.06,2.49-2.1,4.46-4.57,4.46Z"/>
      <path class="cls-6" d="M1295.09,635.52c-.26-9.25,6-16.83,13.4-17.04,7.4-.21,14.08,7.01,14.35,16.25,.26,9.25-6,16.83-13.4,17.04-7.4,.21-14.08-7.01-14.34-16.26Z"/>
      <path class="cls-6" d="M1435.7,632.46c-.26-9.25,6-16.83,13.4-17.04,7.4-.21,14.08,7.01,14.34,16.25,.26,9.25-6,16.83-13.4,17.04-8.33,.24-14.08-7.01-14.34-16.26Z"/>
      <path d="M1383.2,964.48c-.81,0-1.63-.21-2.37-.66-3.04-1.84-74.75-45.43-100.05-68.7-25.32-23.29-30.37-32.46-30.3-39.71,.06-5.61,3.58-9.2,6.88-12.12,6.2-5.49,21.47-8.56,23.19-8.89,2.48-.47,4.88,1.14,5.36,3.62,.48,2.48-1.14,4.88-3.62,5.36-5.55,1.08-15.59,3.86-18.86,6.76-2.82,2.49-3.78,3.84-3.79,5.35-.07,7.67,20.56,26.65,27.34,32.89,24.63,22.65,97.86,67.16,98.6,67.61,2.16,1.31,2.85,4.12,1.54,6.28-.86,1.42-2.37,2.2-3.91,2.2Z"/>
      <path d="M874.52,1179.47c-.23,0-.46-.02-.7-.05-2.5-.38-4.21-2.72-3.83-5.22,5.94-38.73,59.43-202.16,84.59-225,26.34-23.32,70.86-29.43,127.22-37.17,39.14-5.37,83.5-11.47,129.65-24.68,2.43-.69,4.96,.71,5.66,3.14,.7,2.43-.71,4.96-3.14,5.66-46.77,13.4-91.48,19.54-130.92,24.95-54.83,7.53-98.13,13.48-122.36,34.92-22.54,20.46-75.45,179.16-81.65,219.58-.35,2.26-2.3,3.88-4.52,3.88Z"/>
      <path d="M1309.13,1040.43c-3.61,0-12.95-3.73-38.98-49.43-5.55-9.74-12.94-19.7-20.78-30.25-14.47-19.5-30.88-41.59-39.26-67.88-1.72-5.39,.89-11.11,6.07-13.31,3.47-1.48,9.26-4.57,17.08-10.94,7.73-6.3,23.5-24.69,23.66-24.88,1.64-1.92,4.54-2.14,6.45-.5,1.92,1.64,2.14,4.53,.5,6.45-.67,.78-16.47,19.22-24.83,26.03-8.65,7.05-15.26,10.56-19.28,12.27-.81,.34-1.21,1.25-.93,2.11,7.92,24.84,23.16,45.36,37.89,65.21,8,10.78,15.56,20.96,21.38,31.18,13.58,23.83,24.13,38.04,29.23,42.97,9.63-47.49,23.5-74.22,41.24-79.44,6.68-1.96,15.3-1.64,25.62,.96,7.84,1.97,15,6.56,20.15,12.93l17.81,21.96c1.59,1.96,1.29,4.84-.67,6.43-1.96,1.59-4.84,1.29-6.43-.67l-17.81-21.96c-3.92-4.83-9.35-8.32-15.28-9.82-8.59-2.16-15.78-2.52-20.8-1.05-8.05,2.37-23.31,15.02-34.99,73.15-.28,1.4-.49,2.44-.63,3.02-.7,2.98-2.7,4.99-5.37,5.38-.28,.04-.62,.09-1.03,.09Z"/>
      <path d="M1457.88,977.74c-.68,0-1.37-.15-2.02-.47-2.27-1.12-3.2-3.86-2.08-6.13,16.86-34.22,41.83-89.51,41.51-101.57-.35-13.4-5.68-15.7-5.73-15.72-2.43-.69-3.74-3.18-3.05-5.61,.69-2.43,3.33-3.81,5.75-3.13,1.19,.34,11.64,3.87,12.18,24.22,.48,18.17-38.05,96.94-42.45,105.86-.8,1.62-2.42,2.55-4.11,2.55Z"/>
      <path d="M1516.15,1032.9c-1.59,0-3.72-.7-5.75-3.57-3.34-4.72-4.89-13.25-6.68-23.13-2.39-13.18-5.36-29.58-13.09-35.98-7.01-5.81-13.08-7.9-18.01-6.23-8.47,2.88-13.25,16.31-14.37,21.24-.56,2.47-3,4.01-5.48,3.45-2.46-.56-4.01-3.01-3.45-5.48,.21-.93,5.35-22.78,20.35-27.87,8.16-2.78,17.17-.13,26.79,7.85,10.3,8.53,13.46,25.99,16.26,41.4,.69,3.82,1.4,7.71,2.18,11.07,.39-4.32,.73-9.52,1.04-14.4,.77-11.91,1.72-26.74,3.8-41.97,4.29-31.45,6.32-48.2,6.99-53.94,.03-.21-.03-.41-.16-.59l-33.54-46.88c-1.47-2.06-1-4.91,1.06-6.38,2.06-1.47,4.91-1,6.38,1.06l33.54,46.88c1.45,2.03,2.09,4.51,1.8,6.98-.67,5.76-2.7,22.58-7.01,54.11-2.04,14.91-2.98,29.55-3.74,41.31-1.41,21.91-1.88,29.3-7.41,30.86-.41,.12-.92,.21-1.51,.21Z"/>
      <path d="M1382.66,768.44c-11.01,0-22.01-2.01-32.25-6.15-2.34-.95-3.47-3.62-2.52-5.96,.95-2.34,3.62-3.46,5.96-2.52,26.79,10.85,59.41,5.37,81.19-13.63,1.9-1.66,4.8-1.47,6.45,.44,1.66,1.9,1.47,4.8-.44,6.46-15.99,13.95-37.22,21.37-58.39,21.37Z"/>
      <path d="M1404.46,1037.9c-.27,0-.55-.02-.83-.07-29.19-5.34-57.65-22.51-82.31-49.66-1.7-1.87-1.56-4.77,.31-6.46,1.87-1.69,4.77-1.55,6.46,.31,23.29,25.65,49.98,41.84,77.18,46.81,2.49,.46,4.13,2.84,3.68,5.32-.41,2.21-2.33,3.75-4.49,3.75Z"/>
      <path d="M1477.81,1032.9c-1.17,0-2.33-.44-3.23-1.33-1.79-1.78-1.8-4.68-.01-6.47,1.7-1.71,3.31-3.3,4.82-4.8,11.44-11.37,17.19-17.08,21.12-28.53,.82-2.39,3.41-3.67,5.81-2.84,2.39,.82,3.66,3.42,2.84,5.81-4.62,13.46-11.66,20.46-23.32,32.04-1.5,1.49-3.09,3.08-4.79,4.77-.89,.9-2.07,1.35-3.24,1.35Z"/>
      <path d="M1431.21,1058.38c-15.15,0-27.99-8.45-30.29-20.21l-10.16-41.83c-.66-2.72,0-5.59,1.83-7.85,2.33-2.91,6.28-4.47,10.51-4.53,8.69,.16,24.39,.4,31.92,.22,4.36-.1,10.15-2.01,15.75-3.86,9.32-3.08,18.12-5.97,23.59-1.5,7.03,5.77,7.29,37.39,6.83,55.73-.7,12.33-13.05,22.1-28.74,22.86l-19.27,.93c-.66,.03-1.33,.05-1.98,.05Zm-28.38-65.27c-1.9,0-3.04,.87-3.18,1.23l10.21,41.88c1.55,7.91,11.57,13.48,22.89,12.97l19.27-.93c10.81-.52,19.61-6.71,20.03-14.09,.52-20.42-.83-44.85-3.65-48.43-1.41-1.12-10.42,1.84-14.75,3.27-6.23,2.06-12.68,4.18-18.4,4.32-7.72,.18-23.55-.06-32.3-.22-.04,0-.07,0-.11,0Z"/>
      <path d="M1471.46,986.93c-.6,0-1.2-.12-1.79-.37-2.32-.99-3.41-3.68-2.41-6l9.69-22.74c.99-2.32,3.66-3.41,6-2.42,2.32,.99,3.41,3.68,2.42,6l-9.69,22.74c-.74,1.74-2.43,2.78-4.21,2.78Z"/>
      <path d="M1395.08,992.15c-.69,0-1.4-.16-2.06-.49-6.81-3.43-17.3-14.68-28.37-26.89-2.93-3.23-5.7-6.29-6.7-7.17-1.9-1.67-2.08-4.56-.41-6.46,1.67-1.9,4.56-2.08,6.46-.41,1.33,1.17,3.58,3.63,7.44,7.9,6.94,7.66,19.86,21.91,25.71,24.86,2.26,1.14,3.16,3.89,2.02,6.14-.8,1.6-2.42,2.51-4.09,2.51Z"/>
      <path d="M1471.15,1054.91c.18,.12,.35,.24,.51,.35,3.86,41.5,7.72,82.85,11.57,124.08,20.84,223.21,40.53,434.07,58.62,650.66h9.19c-18.12-216.9-37.83-428.02-58.7-651.51-3.85-41.23-7.71-82.57-11.57-124.07-.1-3.98-2.74-5.85-4.33-6.98-.81-.57-1.5-1.07-2.1-1.85-1.52-2.02-4.39-2.43-6.4-.91-2.02,1.52-2.43,4.38-.91,6.4,1.45,1.93,2.99,3.03,4.12,3.83Z"/>
      <path d="M1397.28,1830c1.08-234.58,3.83-487.03,16.36-744.18,1.2-5.01,1.47-9.86,1.73-14.55,.4-7.15,.74-13.33,4.11-18.97,1.3-2.17,.59-4.98-1.58-6.27-2.16-1.3-4.98-.59-6.27,1.58-4.53,7.57-4.97,15.49-5.4,23.15-.26,4.61-.5,8.97-1.58,13.29-.07,.29-.12,.59-.13,.89-12.56,257.49-15.31,510.23-16.4,745.06h9.15Z"/>
      <path d="M1464.32,1139.71c-2.6-.04-4.61-2.12-4.57-4.65,.37-23.74-2.62-65.46-6.9-81.68-.64-2.45,.81-4.95,3.25-5.59,2.45-.66,4.95,.81,5.59,3.26,4.45,16.89,7.58,59.86,7.2,84.16-.04,2.5-2.08,4.5-4.58,4.5Z"/>
      <path d="M951.27,1539.59c-1.77,0-3.45-1.03-4.2-2.75-1-2.32,.06-5.01,2.38-6.02,43.89-19.02,56.61-76.7,79.7-181.41,10.8-48.97,24.24-109.91,44.28-182.06,.68-2.44,3.21-3.85,5.63-3.18,2.43,.68,3.86,3.2,3.18,5.63-19.98,71.91-33.39,132.72-44.16,181.58-23.74,107.66-36.82,166.96-85,187.83-.59,.26-1.21,.38-1.82,.38Z"/>
      <path d="M1529.12,912.25c10.37,6.33,20.92,9.85,31.13,13.26,4.9,1.64,9.97,3.33,15.02,5.34,18.78,6.92,37.68,12.29,55.97,17.48,39.05,11.09,75.93,21.56,110.4,45.79,1.88,1.92,3.48,3.86,5.04,5.75,3.07,3.72,5.97,7.25,10.31,9.66,28.82,32.45,34.89,73.92,34.89,103.09,0,.12,0,.23,.01,.35,7.1,94.13,6.96,188.65,6.81,280.05-.1,65.12-.21,132.46,2.33,198.63,2.99,77.73,6.09,158.1,13.32,238.36h9.18c-7.27-80.3-10.36-160.83-13.36-238.71-2.54-65.98-2.43-133.23-2.33-198.26,.15-91.52,.3-186.16-6.82-280.59-.02-30.94-6.61-75.01-37.77-109.64-.38-.42-.84-.77-1.36-1.03-3.07-1.53-5.32-4.26-8.16-7.72-1.68-2.04-3.59-4.36-5.9-6.67-.18-.18-.38-.35-.6-.5-35.83-25.29-73.56-36-113.51-47.35-18.12-5.14-36.85-10.46-55.19-17.21-5.18-2.07-10.37-3.81-15.4-5.48-10.17-3.39-19.78-6.6-29.25-12.39-2.15-1.31-4.97-.64-6.29,1.52-1.32,2.16-.64,4.97,1.52,6.29Z"/>
      <path d="M1052.03,1830h9.15c3.04-99.01-6.44-198.45-15.63-294.62-4.82-50.42-9.8-102.57-12.84-153.61-.15-2.52-2.34-4.46-4.84-4.29-2.52,.15-4.45,2.32-4.29,4.84,3.06,51.2,8.04,103.43,12.87,153.93,9.17,95.99,18.64,195.23,15.59,293.75Z"/>
      <path d="M1713.44,1830h9.15c-1.44-80.69-3.61-162.03-5.7-240.7-3.62-135.95-7.37-276.54-7.37-415.69,0-10.42,3.14-20.19,6.48-30.53,3.15-9.79,6.41-19.91,7.12-31.15,.16-2.52-1.75-4.69-4.28-4.86-2.48-.17-4.69,1.75-4.85,4.28-.64,10.11-3.72,19.67-6.7,28.92-3.4,10.56-6.92,21.48-6.92,33.34,0,139.28,3.75,279.92,7.37,415.93,2.09,78.6,4.26,159.86,5.7,240.45Z"/>
      <path d="M948.5,1296.82c-.41,0-.82-.05-1.23-.17-2.43-.68-3.86-3.2-3.18-5.64,6.13-21.95,12.78-62.3-11.58-85.89-14.47-14.01-34.94-17.51-56.61-21.22-8.7-1.49-17.69-3.03-26.24-5.31-29.47-7.85-58.56-26.21-88.94-56.12-4.57-4.51-11.25-10.27-16.41-8.17-2.18,.88-4.13,3.17-6.12,7.2-16.95,34.2,32.14,82.89,47.59,97,21.67,19.79,36.62,24.24,61.39,31.6,5.41,1.61,11.22,3.34,17.6,5.38,2.41,.77,3.73,3.34,2.96,5.75-.77,2.41-3.34,3.74-5.75,2.96-6.31-2.02-12.06-3.73-17.41-5.32-25.14-7.47-41.74-12.41-64.96-33.62-21.33-19.48-68.86-68.99-49.62-107.82,1.92-3.87,5.14-9.3,10.9-11.62,11.33-4.56,21.79,5.74,26.25,10.14,29.22,28.77,56.98,46.37,84.88,53.8,8.15,2.17,16.93,3.67,25.43,5.13,22.09,3.78,44.93,7.69,61.43,23.66,27.77,26.88,20.71,71.01,14.03,94.92-.56,2.02-2.4,3.35-4.4,3.35Z"/>
      <path d="M758.01,1635.37c-7.1,0-14.11-2.9-19.32-8.11-5.8-5.8-6.84-14.15-7.61-20.25-3.25-25.95-5.86-49.04-8.38-71.38-2.52-22.31-5.13-45.37-8.37-71.27-.88-7.05-1.88-15.05-.3-22.87,1.94-9.59,7.34-17.55,12.57-25.24l.75-1.11c29.98-44.29,67.22-117.37,90.82-170.13,1.03-2.31,3.74-3.34,6.04-2.31,2.31,1.03,3.34,3.74,2.31,6.04-23.76,53.13-61.3,126.77-91.6,171.53l-.76,1.12c-4.72,6.95-9.59,14.14-11.17,21.92-1.29,6.35-.43,13.25,.41,19.91,3.25,25.95,5.86,49.04,8.38,71.38,2.52,22.31,5.13,45.37,8.37,71.27,.78,6.21,1.69,11.61,5,14.92,4.16,4.16,9.73,6.07,15.3,5.25,5.22-.77,9.49-3.82,12.03-8.57,13.31-24.92,7.55-68.88,2.92-104.2-2.77-21.17-5.17-39.46-3.42-51.3,.93-6.31,10.57-14.68,28.94-30.16,3.51-2.96,7.08-5.97,10.55-8.96,1.91-1.65,4.8-1.44,6.45,.48,1.65,1.91,1.44,4.8-.48,6.45-3.49,3.01-7.09,6.05-10.63,9.02-10.45,8.8-24.76,20.86-25.8,24.59-1.55,10.49,.77,28.19,3.46,48.69,4.8,36.62,10.77,82.2-3.92,109.71-3.88,7.26-10.72,12.11-18.75,13.3-1.26,.18-2.52,.28-3.79,.28Z"/>
      <path d="M864.98,1773.05c-13.88,0-25.3-13.7-30.86-28.48-13.53-35.99-25.53-58.08-35.17-75.83-12.55-23.11-20.84-38.38-20.84-64.79,0-2.53,2.05-4.57,4.58-4.57s4.57,2.05,4.57,4.57c0,24.08,7.43,37.76,19.73,60.42,9.78,18,21.94,40.4,35.69,76.98,4.6,12.25,14.33,24.45,24.82,22.29,10.46-2.16,15.52-17.23,13.06-29.26-8.91-43.44-28.66-83.26-38.14-102.39-2.49-5.01-4.28-8.63-5.13-10.81-.27-.69-.37-1.44-.29-2.18,.08-.7,7.94-70.95,9.27-113.3,.08-2.53,2.19-4.62,4.72-4.43,2.53,.08,4.51,2.19,4.43,4.71-1.25,39.67-8.15,103.39-9.19,112.86,.88,1.99,2.47,5.2,4.4,9.09,9.66,19.48,29.76,60,38.91,104.61,3.41,16.63-3.88,36.69-20.17,40.06-1.48,.31-2.95,.45-4.38,.45Z"/>
      <path d="M951.54,1674.03c-.34,0-.67-.01-.99-.03-14.08-.85-34.25-19.78-59.92-56.28-3.01-4.27-7.14-15.2-11.93-27.86-2.76-7.29-5.61-14.82-8.29-21.16-.98-2.33,.11-5.01,2.43-6,2.33-.97,5.01,.11,6,2.43,2.75,6.5,5.63,14.12,8.42,21.49,4.19,11.06,8.52,22.5,10.86,25.83,32.64,46.39,47.93,52.1,52.99,52.41,2.4,.18,3.29-.84,3.72-1.32,8.4-9.06-16.77-41.81-26.24-54.13-2.68-3.49-4.8-6.25-6.12-8.2-.34-.5-.57-1.06-.7-1.65-3.47-17.1-9.87-44.74-13.26-50.8-.65-1.17-1.25-2.18-1.77-3.07-4.32-7.36-4.86-10.2,.28-19.18,1.26-2.19,4.06-2.95,6.24-1.69,2.19,1.26,2.95,4.05,1.69,6.25q-3.06,5.34-.33,9.99c.56,.94,1.18,2.01,1.87,3.24,4.91,8.78,12.52,45.07,14.05,52.53,1.23,1.73,3.13,4.21,5.29,7.02,19.04,24.77,38.31,52.32,25.84,65.78-3.21,3.57-7.12,4.41-10.13,4.41Z"/>
      <path d="M895.49,1753.26c-5.06,0-9.58-2.1-12.04-5.17-1.58-1.97-1.27-4.85,.7-6.43,1.97-1.58,4.85-1.27,6.43,.7,1.3,1.63,5.52,2.64,9.43,.62,3.7-1.92,14.91-11.18,3.8-49.66-5.68-19.66-12.27-36.28-22.75-57.37-4.71-9.48-9.59-19.29-11.74-30.2-.04-.18-.06-.36-.07-.54-.06-.77-1.41-18.86-1-28.3,.4-9.15,.62-16.61,.85-24.06,.23-7.51,.46-15.03,.86-24.25,.11-2.52,2.22-4.49,4.77-4.37,2.52,.11,4.48,2.25,4.37,4.77-.4,9.18-.63,16.65-.85,24.13-.23,7.49-.46,14.98-.86,24.18-.36,8.29,.8,24.62,.96,26.94,1.94,9.61,6.5,18.77,10.9,27.63,10.75,21.62,17.51,38.68,23.35,58.91,12.69,43.93-1.63,56.82-8.38,60.32-2.91,1.51-5.91,2.17-8.73,2.17Z"/>
      <path d="M897.88,1536.3c-.21,0-.42-.02-.64-.04-12.63-1.76-28.34-3.94-39.58-14.23-3.89-3.57-6.84-7.74-9.68-11.77-3.85-5.45-11.96-17.68-19.81-29.51-7.82-11.77-15.9-23.95-19.67-29.3-1.46-2.06-.96-4.92,1.1-6.37,2.07-1.46,4.92-.97,6.38,1.1,3.85,5.45,11.96,17.68,19.82,29.51,7.82,11.77,15.9,23.95,19.67,29.3,2.57,3.64,5.22,7.4,8.39,10.3,8.45,7.74,20.7,9.97,34.66,11.92,2.5,.35,4.25,2.66,3.9,5.16-.32,2.29-2.28,3.94-4.53,3.94Z"/>
      <path d="M940.08,1541.33c-9.28,0-19.69-2.81-31.13-8.43-1.35-.66-2.29-1.95-2.51-3.44-.22-1.49,.31-2.99,1.41-4.02,14.02-13.08,55.73-66.43,53.88-82.4-3.43-29.58-14.02-59.91-31.5-90.14-1.27-2.19-.52-4.99,1.67-6.25,2.19-1.26,4.99-.52,6.25,1.67,18.11,31.32,29.1,62.83,32.67,93.67,2.3,19.87-36.29,68.17-52.04,85.31,14.8,6.12,26.99,6.46,36.3,1,15.67-9.19,24.76-35.07,27.02-76.93,1.1-20.37,1.32-38.68,.68-55.96-1.08-29.35-4.22-52.4-9.87-72.55-4.56-16.24-10.32-32.57-21.53-42.05-1.93-1.63-2.17-4.52-.54-6.45,1.63-1.93,4.52-2.17,6.45-.54,13.09,11.07,19.48,28.93,24.43,46.57,5.85,20.86,9.1,44.59,10.21,74.68,.65,17.56,.42,36.13-.69,56.79-2.46,45.76-12.78,73.34-31.53,84.33-5.83,3.42-12.39,5.13-19.63,5.13Z"/>
      <path d="M965.38,1471.03c-.47,0-.95-.07-1.43-.23-2.4-.79-3.71-3.37-2.92-5.77,4.34-13.21,11.44-25.74,20.55-36.24,1.65-1.92,4.55-2.12,6.45-.46,1.91,1.66,2.11,4.54,.46,6.46-8.32,9.59-14.81,21.04-18.76,33.1-.63,1.93-2.42,3.15-4.35,3.15Z"/>
      <path d="M1014.59,1298.76c-1.71,0-3.35-.96-4.13-2.6-6.1-12.77-13.01-27.24-24.27-37.33-8.93-8-20.37-13.06-31.43-17.95-2.31-1.02-3.36-3.72-2.34-6.03,1.02-2.31,3.72-3.35,6.03-2.34,11.17,4.94,23.83,10.53,33.84,19.5,12.62,11.32,20.27,27.33,26.42,40.2,1.09,2.28,.12,5.01-2.16,6.1-.64,.3-1.31,.45-1.97,.45Z"/>
      <path d="M941,1492.72c11.45-20.17,23.47-31.71,24.52-35.88,2.88-11.42,12.77-19.48,22.08-26.69,0,27.44-3.86,54.88-11.42,81.25-2.09,7.29-4.77,14.95-10.8,19.55-5.03,3.84-11.59,4.91-17.87,5.63-6.83,.78-34.96,3.46-36.54-6.61-1.48-9.36,22.58-24.13,30.03-37.25Z"/>
      <path d="M1496.74,855.22c.9,1.92,1.31,4.02,1.72,6.1,.66,3.36,1.32,6.79,.84,10.18-.6,4.21-2.93,8.08-3.13,12.33,.12-2.64-3.79-8.15-4.69-10.91-1.34-4.09-2.28-8.31-2.81-12.58-.32-2.61-1.82-8.26,1.06-9.87,3.08-1.73,5.92,2.44,7.01,4.75Z"/>
      <path d="M1256.58,849.67c-1.16,1.88-1.86,4.02-2.31,6.19-.17,.83-.31,1.69-.12,2.52,.22,1.02,.89,1.88,1.54,2.69,3.64,4.53,7.4,8.96,11.27,13.29,1.87-5.57,3.75-11.14,5.63-16.71,1.32-3.92,4.89-14.81-1.46-16.57-4.72-1.31-12.31,4.95-14.56,8.59Z"/>
      <path d="M1461.35,1001.19c-.79,0-1.6-.21-2.33-.64-8.29-4.92-17.77-7.57-27.42-7.67-2.53-.03-4.55-2.1-4.53-4.62,.03-2.51,2.07-4.53,4.58-4.53,11.3,.12,22.36,3.21,32.04,8.95,2.17,1.29,2.89,4.1,1.6,6.27-.85,1.44-2.38,2.24-3.94,2.24Z"/>
      <path d="M1235.31,329.09c-1.39,0-2.77-.63-3.67-1.83l-42.58-56.9c-1.51-2.02-1.1-4.89,.92-6.4,2.02-1.51,4.89-1.1,6.4,.92l42.58,56.9c1.51,2.02,1.1,4.89-.92,6.4-.82,.62-1.78,.91-2.74,.91Z"/>
      <path d="M1282.88,302.68c-1.79,0-3.49-1.06-4.22-2.82l-30.53-73.25c-.97-2.33,.13-5.01,2.46-5.98,2.33-.98,5.01,.13,5.98,2.46l30.53,73.25c.97,2.33-.13,5.01-2.46,5.98-.57,.24-1.17,.35-1.76,.35Z"/>
      <path d="M1333.05,286.5c-2.12,0-4.03-1.49-4.48-3.65l-13.72-66.2c-.51-2.47,1.08-4.9,3.55-5.41,2.48-.53,4.89,1.08,5.41,3.55l13.72,66.2c.51,2.47-1.08,4.89-3.55,5.41-.31,.07-.63,.1-.93,.1Z"/>
      <path d="M782.13,1534.52c-.33,0-.66-.03-.99-.11-2.47-.54-4.03-2.99-3.48-5.45,6.9-31.25,10-53.65,11.84-85.59,.14-2.52,2.31-4.51,4.83-4.3,2.52,.14,4.45,2.31,4.31,4.83-1.87,32.49-5.02,55.26-12.03,87.04-.47,2.13-2.36,3.59-4.46,3.59Z"/>
    </g>
  </g>
</svg>