<?xml version="1.0" encoding="UTF-8"?>
<svg id="_Layer_" data-name="&amp;lt;Layer&amp;gt;" xmlns="http://www.w3.org/2000/svg" viewBox="0 0 2745 1830">
  <defs>
    <style>
      .cls-1, .cls-2 {
        fill: #fff;
      }

      .cls-2, .cls-3 {
        fill-rule: evenodd;
      }

      .cls-4 {
        fill: #f7d988;
      }

      .cls-5 {
        fill: #351d17;
      }

      .cls-6 {
        fill: #a3b3b7;
      }

      .cls-7 {
        fill: #648293;
      }

      .cls-8 {
        fill: #ffddc0;
      }

      .cls-9 {
        fill: #bccddb;
      }
    </style>
  </defs>
  <rect class="cls-9" width="2745" height="1830"/>
  <g>
    <g>
      <path class="cls-1" d="M1530.78,1315.38l5.99-.02c0,83.79-170.07,93.47-170.07,.64h2.54c-7.39-6.72-12.48-14.92-14.33-24.7-1.33-7.04-.65-9.83-.65-16.93l1.69-.04c-6.72-9.2-10.51-19.94-10.51-31.22h9.71c-19.4-10.94-32.09-28.76-32.45-58.83-11.28-15.97-23.99-32.2-35.32-42.01-49.72-43.26-116.49,4.78-164.04-34.09l-.36,13.59c-.45,0-.9-.01-1.35-.02,.46,6.8,1.82,17.34,1.21,22.56-1.04,8.95-1.35,17.71-.4,26.69,1.86,17.67,3.97,36.24,6.91,53.73,0,0-23.25-21.75-36.32-28.75-6.67-3.57-15.94-7.93-21-13.54-4.8-5.32-10-4.76-13.56-11.08-1.53-2.72-3.66-2.41-5.63-4.86-1.58-1.95-9.41-2.52-11.6-3.71-9.96-5.39-15.79-6.91-26.31-10.67-12.76-4.56-26.67-6.7-38.84-12.8,.22-1.72,.39-3.38,.49-4.94,.45-1.3,.83-2.67,1.16-4.06l-5.68-2.47c-2.7,13.03-11.51,29.7-19.53,37.71,.82,.68,1.61,1.45,2.38,2.27-25.37,28.39-53.74,49.82-85.08,82.7-60.69,66.89,11.45,172.66,28.33,254.91l-.81,.48c28.2,74.02,50.79,161.15,25.96,248.37-.33,2.92,1.37,8.44,4,10.48,84.64,28.46,187.81,29.89,278.91,8.77,18.69-4.33,69.69-28.48,75.26-37.24,3-4.72,7.13-10.3,14.89-17.31,3.06-7.37,6.5-13.68,2.32-22.06-5.58-15.06-.21-128.54,2.21-186.32,6.2,1.7,13.26,7.38,13.26,7.38,113.28,56.96,174.15-104.06,228.66-193.82,10.99-7.15,11.5-21.05,5.05-31.32-1.97,5.73-5.22,10.97-9.55,15.67-2.24,2.43-4.77,4.71-7.53,6.86Z"/>
      <path d="M1349.35,1227.79c-1.01,0-2-.5-2.58-1.42l-1.14-1.81c-11.58-18.35-38.72-61.31-60.26-79.97-22.29-18.9-45.35-18.6-69.77-18.29l-11.22,.11c-15.56,.13-34.92,.29-51.06-.19-1.68-.05-3.01-1.46-2.96-3.14,.05-1.69,1.42-2.95,3.14-2.96,16.02,.48,35.31,.33,50.82,.19l11.19-.11c24.48-.31,49.77-.65,73.82,19.76,22.25,19.27,49.72,62.77,61.45,81.35l1.14,1.81c.9,1.42,.48,3.31-.95,4.21-.5,.32-1.07,.47-1.63,.47Z"/>
      <g>
        <g>
          <path class="cls-6" d="M1438.03,1261.67c-30.76-2.61-61.06-6.23-82.89-18.55h-9.71c0,11.28,3.79,22.01,10.51,31.22l-1.69,.04c0,7.09-.68,9.88,.65,16.93,1.85,9.78,6.95,17.98,14.33,24.69h-2.54c0,92.84,170.07,83.15,170.07-.63l-5.99,.02c2.76-2.15,5.29-4.43,7.53-6.86,4.33-4.7,7.58-9.94,9.55-15.67,1.39-4.03,2.16-8.29,2.16-12.82v-9.37c4.61-7.19,7.24-15.57,7.24-25.29v-2.25h-4.71c-27.6,19.79-71.71,22.18-114.52,18.55Z"/>
          <path class="cls-4" d="M1724.1,772.01c-5.92-142.43-119.48-258.31-259.6-264.87-156.49-7.32-285.63,119.46-285.63,276.9,0,52.84,14.55,102.22,39.8,144.23,70.01,116.5,103.99,118.21,103.99,254.71,0,.45,.03,.86,.04,1.31,.36,30.07,13.05,47.89,32.45,58.83,21.84,12.32,52.14,15.94,82.89,18.55,42.81,3.63,86.92,1.24,114.52-18.55,17.21-12.35,28.02-31.45,28.02-60.14v-3.57c0-137.27,38.71-137.35,106.78-255.91,25.37-44.18,39.05-96.13,36.75-151.5Z"/>
        </g>
        <g>
          <path d="M1447.36,1306.54c-20.16,0-39-1.93-52.65-4.37-45.54-8.14-52.34-40.49-52.34-59.05,0-1.69,1.37-3.05,3.05-3.05s3.05,1.36,3.05,3.05c0,16.65,6.15,45.69,47.31,53.04,21.07,3.76,54.8,6.29,86.29,2.12,1.69-.23,3.21,.95,3.43,2.62,.22,1.67-.95,3.21-2.62,3.43-11.78,1.56-23.87,2.21-35.52,2.21Z"/>
          <path d="M1447.74,1341.92c-2,0-3.99-.03-5.98-.09-45.76-1.33-91.93-18.44-91.93-53.64,0-3.55,.42-7.11,1.24-10.57,.39-1.63,2.04-2.64,3.67-2.26,1.64,.39,2.65,2.03,2.26,3.67-.71,3-1.07,6.08-1.07,9.16,0,30.95,44.58,46.34,86.01,47.54,50.47,1.5,102.72-15.92,104.82-52.01v-9.74c0-1.69,1.36-3.05,3.04-3.05s3.05,1.36,3.05,3.05v9.92c-2.25,38.66-53.6,58.02-105.11,58.02Z"/>
          <path d="M1447.29,1382.65c-20.57,0-40.8-4.82-56.5-14.45-19.97-12.26-30.04-30.57-29.14-52.96,.07-1.68,1.39-3.04,3.17-2.92,1.68,.07,2.99,1.49,2.92,3.17-1.02,25.34,13.71,39.83,26.24,47.52,29.04,17.82,76.66,17.87,108.42,.1,14.87-8.32,32.59-24.02,32.59-51.51,0-1.68,1.36-3.05,3.05-3.05s3.05,1.37,3.05,3.05c0,23.76-12.68,43.94-35.71,56.83-16.96,9.49-37.69,14.23-58.09,14.23Z"/>
        </g>
        <path d="M1451.12,1264.5c-6.22,0-12.41-.08-18.51-.2-55.88-1.07-113.01-11.57-113.01-81.32,0-100.6-18.95-127.75-56.71-181.87-13.53-19.38-28.86-41.36-46.84-71.28-26.32-43.8-40.23-94.22-40.23-145.8,0-77.07,31.72-151.54,87.03-204.32,54.79-52.29,126.49-79.13,201.8-75.62,141.23,6.61,256.53,124.24,262.5,267.79,2.25,53.95-10.6,106.9-37.15,153.14-19.51,33.98-36.27,57.78-51.06,78.77-35.66,50.63-55.31,78.51-55.31,175.62v3.57c0,22.61-6.65,40.59-19.77,53.46-24.52,24.05-69.24,28.06-112.73,28.06Zm-18.4-6.3c47.53,.9,100.51-.28,126.85-26.12,12.07-11.84,17.94-27.91,17.94-49.11v-3.57c0-99.04,20.04-127.49,56.42-179.13,14.72-20.89,31.4-44.56,50.76-78.29,25.98-45.24,38.54-97.06,36.35-149.85-5.84-140.43-118.6-255.49-256.7-261.95-73.67-3.46-143.72,22.81-197.3,73.94-54.9,52.4-85.14,123.39-85.14,199.91,0,50.48,13.61,99.81,39.36,142.66,17.87,29.74,33.14,51.62,46.62,70.93,38.49,55.16,57.81,82.84,57.81,185.36,0,64.31,51.44,74.16,107.03,75.22h0Z"/>
        <path d="M1390.62,1258.73c-1.47,0-2.76-1.07-3.01-2.56l-2.06-12.76c-.96-5.98-1.97-11.95-3.02-17.91-1.36-7.78-3.52-20.15-6.23-35.73-12.73-73.24-37.57-216.09-51.32-287.46-10.76-2.45-22.32-5.59-31.16-12.66-7.26-5.81-9.89-16.15-6.39-25.13,3.17-8.14,10.65-12.84,19.4-12.23,14.37,.97,17.47,15.8,19.14,23.77,1.22,5.85,2.65,12.99,4.24,21.18,.12,.03,1.93,.43,1.93,.43,.14,.03,.28,.07,.41,.12,7.2,2.71,14.61,6.04,22.66,10.18,12.46,6.41,26.36,14.42,37.21,24.74,8.12-7.57,16.71-14.75,25.03-21.72l4.91-4.11c1.73-1.46,3.98-3.24,6.56-5.29,5.96-4.74,14.24-11.32,21.96-18.6-8.1-11.01-17.32-25.9-14.51-37.23,2.07-8.33,8.88-14.21,17.79-15.35,9.08-1.16,17.58,3.03,21.72,10.66,7.15,13.18-3.29,28.86-16.88,42.55,.92,1.2,1.78,2.3,2.55,3.29l.96,1.23c10.25,13.16,22.59,24.66,34.4,35.12l.81,.72c2.36,2.08,5.61,4.95,9.08,8.32,7.13-5.87,14.31-10.41,18.28-12.55,9.22-4.97,26.96-13.64,42.18-15.84,0,0,.18-.02,.47-.07,.35-2.24,.71-4.48,1.06-6.73,1.33-8.45,3.27-17.99,9.61-24.38,5.16-5.2,11.72-6.97,18.02-4.86,6.7,2.25,11.84,8.53,12.8,15.62,.97,7.26-2.55,14.17-9.66,18.95-4.53,3.04-9.63,3.68-14.57,4.3-3.45,.43-6.71,.84-9.57,2.04-.24,.1-.49,.17-.74,.21l-1.63,.24c-10.14,63.76-20.62,121.38-30.77,177.23-9.7,53.38-19.74,108.58-29.61,169.73-.27,1.66-1.84,2.79-3.5,2.53-1.66-.27-2.79-1.83-2.53-3.5,9.89-61.2,19.93-116.43,29.63-169.85,10.04-55.25,20.41-112.27,30.44-175.2-14.56,2.5-31.84,11.22-38.75,14.95-4.25,2.29-10.65,6.46-16.87,11.54,10.5,11.1,20.52,25.64,12.47,36.25-3.81,5.01-9.84,8.35-16.14,8.92-5.65,.51-10.95-1.19-14.91-4.8-4.94-4.5-7.06-9.89-6.3-15.99,1.06-8.6,7.98-17.35,15.9-24.66-2.49-2.44-5.29-5.04-8.43-7.82l-.82-.73c-12.03-10.65-24.62-22.38-35.17-35.93l-.95-1.22c-.67-.86-1.39-1.79-2.15-2.77-7.57,7.1-15.61,13.48-21.88,18.47-2.53,2.01-4.73,3.76-6.43,5.19l-4.92,4.12c-8.23,6.88-16.71,13.98-24.68,21.41,5.46,6.01,9.81,12.75,12.32,20.31,2.81,8.46,1.39,16.07-3.99,21.42-5.64,5.6-15.08,7.65-22.95,4.97-7.2-2.45-11.93-8.29-12.98-16.05-1.61-11.89,9.71-22.36,17.98-30,.31-.29,.61-.56,.9-.84-10.28-9.69-23.61-17.35-35.56-23.5-7.43-3.82-14.29-6.93-20.93-9.48,13.86,72.33,38.23,212.5,50.81,284.82,2.71,15.57,4.86,27.93,6.23,35.72,1.05,5.99,2.06,11.98,3.03,17.98l2.06,12.76c.27,1.67-.86,3.23-2.52,3.5-.17,.02-.33,.04-.49,.04Zm1.66-317.48c-.34,.31-.69,.63-1.04,.96-6.87,6.36-17.26,15.96-16.07,24.71,.99,7.36,6,10.11,8.9,11.09,5.77,1.96,12.63,.5,16.69-3.52,3.71-3.69,4.58-8.93,2.5-15.17-2.21-6.66-6.08-12.65-10.97-18.06Zm114.16-.54c-7.21,6.62-13.28,14.2-14.13,21.05-.5,4.09,.92,7.61,4.36,10.75,2.68,2.44,6.3,3.58,10.24,3.23,4.62-.42,9.05-2.87,11.84-6.54,3.14-4.14,2.91-12.35-12.32-28.49Zm84.77-67.62c-2.97,0-5.89,1.34-8.46,3.92-5.06,5.09-6.73,13.53-7.91,21.03-.25,1.57-.5,3.14-.74,4.71,3.32-1.21,6.79-1.65,10.15-2.07,4.42-.56,8.6-1.08,11.93-3.31,5.19-3.48,7.68-8.13,7.02-13.07-.64-4.77-4.22-9.15-8.69-10.65-1.1-.37-2.2-.55-3.29-.55Zm-285.94-14.76c-7.98,0-11.13,5.81-12.14,8.4-2.08,5.34-1.55,13.3,4.52,18.16,7.13,5.71,16.75,8.64,26.07,10.87-1.38-7.06-2.62-13.26-3.71-18.45-2.36-11.28-5.45-18.38-13.58-18.93-.4-.03-.79-.04-1.17-.04Zm151.89-22.01c-.72,0-1.45,.05-2.19,.14-4.98,.64-10.92,3.8-12.64,10.76-2.14,8.61,5.87,21.63,13,31.44,11.67-11.86,20.53-24.92,15.23-34.69-2.6-4.79-7.71-7.66-13.4-7.66Z"/>
      </g>
      <path d="M1037.83,1516.83c-1.19,0-2.32-.7-2.81-1.86-.4-.94-39.93-94.2-54.1-140.37-.49-1.61,.41-3.31,2.02-3.81,1.61-.5,3.32,.41,3.81,2.02,14.08,45.86,53.48,138.83,53.88,139.77,.66,1.55-.07,3.34-1.62,4-.39,.17-.79,.24-1.19,.24Z"/>
      <g>
        <path class="cls-5" d="M962.15,989.65s18.78-6.14,26.31-20.24c3.79-6.16,5.94-13.52,5.94-13.52,0,0,11.75-9.02,15.41-20.52,4.49-14.2,5.13-40.81,11.53-49.71,5.38-6.73,4.23-9.91,12.88-14.22,17.48-8.08,41.36-10.06,54.05-1.42,15.28,10.58,22.11,31.29,22.66,33.04l2.86-2.03s14.06-32.63,6.72-41.39c-1.29-1.93-7.55-17.67-19.1-23.12-9.38-4.42-.75-17.12-13.77-16.64-12.83,1.01-22.29-6.98-35.63-12.39-19.64-7.94-42.58,3.3-42.58,3.3,0,0-59.13,5.64-96.23,37.55-12.77,11.18-21.94,24.06-26.92,40.24-3.32,10.79-2.99,25.06-2.75,35.76,.55,8.2-7.49,15.88-5.39,21.72,1.91,5.31,12.88,9.17,12.88,9.17,0,0,3.47,11.34,12.87,24.16,9.4,12.81,25.25,26.91,25.25,26.91l2.51-.44c2.29-12.02,30.48-16.21,30.48-16.21Z"/>
        <path class="cls-8" d="M976.07,1139.33c12.17,6.1,26.08,8.24,38.84,12.8,10.52,3.76,16.35,5.28,26.31,10.67,2.19,1.19,10.03,1.76,11.6,3.71,1.97,2.44,4.1,2.14,5.63,4.86,3.56,6.32,8.76,5.76,13.56,11.08,5.06,5.61,14.34,9.97,21,13.54,13.07,7,36.32,28.75,36.32,28.75-2.94-17.49-5.05-36.06-6.91-53.73-.95-8.98-.63-17.74,.4-26.69,.6-5.21-.76-15.76-1.21-22.56-.08-1.15-.14-2.23-.15-3.12-12.5-4.54-17.06-28.38-17.06-28.38l14.11-7.46s4.81-8.32,11.46-21.5c4.91-11.36,11.53-26.32,12.27-40.98,1.18-18.41-2.86-31.35-7.59-42.84-3.96-9.37-9.83-24.05-9.83-24.05l-13.83-50.2s-.03-.09-.06-.17c-.56-1.75-7.38-22.46-22.66-33.04-12.69-8.63-36.56-6.66-54.05,1.42-8.65,4.3-7.5,7.49-12.88,14.22-6.4,8.89-7.04,35.5-11.53,49.71-3.66,11.51-15.41,20.52-15.41,20.52,0,0-2.15,7.37-5.94,13.52-7.53,14.1-26.31,20.24-26.31,20.24,0,0-28.19,4.19-30.48,16.21-.12,.64-.19,1.3-.16,1.99,.31,5.88,.98,19.43,7.56,26.06,9.32,9.25,25.94,10.47,25.94,10.47,0,0,20.37,54.37,12.71,85.94-.34,1.4-.71,2.76-1.16,4.06-.1,1.57-.27,3.23-.49,4.94Z"/>
        <path d="M1079.48,1094.38c-12.37,0-25.51-1.47-37.1-3.63-20.51-3.76-28.29-9.29-41.17-18.46-1.37-.98-1.73-2.91-.76-4.28,.98-1.38,2.84-1.72,4.21-.74,12.69,9.02,19.63,13.96,38.82,17.48,27.97,5.23,62.81,5.59,73.24-5.97,5.3-5.86,10.79-16.9,15.05-30.3,6.62-22.26,8.1-42.45,4.03-55.37-3.5-11.65-6.29-18.6-8.76-24.74-1.9-4.73-3.69-9.2-5.55-15.1-1.89-6.28-3.14-12.6-4.34-18.72-.81-4.11-1.65-8.36-2.67-12.55l-.16-.58c-6.34-23.25-16.12-40.21-29.07-50.42-1.32-1.04-1.55-2.96-.51-4.28,1.04-1.32,2.96-1.55,4.28-.51,14,11.03,24.49,29.07,31.18,53.6l.18,.66c1.08,4.4,1.93,8.72,2.75,12.9,1.23,6.25,2.39,12.14,4.19,18.1,1.77,5.64,3.52,10,5.38,14.62,2.51,6.26,5.36,13.34,8.93,25.22,4.41,14.01,2.94,35.51-4.03,58.96-2.15,6.78-8.03,23.4-16.36,32.6-7.62,8.44-23.9,11.51-41.78,11.51Z"/>
        <path d="M965.97,1046.11c-13.98,0-24.67-5.22-32.51-15.85-6.99-9.72-8.01-21.99-2.58-30.57,5.37-8.48,15.89-11.97,28.86-9.58,1.66,.3,2.75,1.89,2.45,3.55-.3,1.66-1.9,2.76-3.55,2.45-10.55-1.94-18.58,.49-22.61,6.84-4.11,6.5-3.17,16.02,2.36,23.71,7.9,10.69,18.91,14.79,34.6,12.89,1.66-.23,3.19,.99,3.4,2.66,.2,1.67-.99,3.19-2.66,3.4-2.69,.33-5.28,.49-7.76,.49Z"/>
        <path d="M959.28,1023.11c-.75,0-1.51-.27-2.1-.83-.03-.03-3.15-2.93-7.4-3.85-1.65-.36-2.69-1.98-2.33-3.63,.36-1.64,1.99-2.69,3.63-2.33,5.97,1.3,10.14,5.22,10.31,5.39,1.22,1.16,1.26,3.09,.1,4.31-.6,.63-1.4,.94-2.21,.94Z"/>
        <path class="cls-3" d="M1109.21,1105.32s-22.07,10.32-44.86,5.31c-24.23-5.69-56.35-36.72-56.35-36.72,0,0,28.91,15.4,49.83,16.88,22.17,1.63,47.6-2.7,47.6-2.7l3.79,17.23Z"/>
        <path d="M976.56,1137.43c-.35,0-.7-.06-1.04-.18-1.58-.58-2.4-2.33-1.83-3.91,1.49-4.11,2.55-8.29,3.16-12.41,3.06-21.41-17.29-75.27-17.49-75.82-.6-1.58,.19-3.33,1.77-3.93,1.58-.6,3.34,.19,3.93,1.77,.86,2.27,21.11,55.88,17.83,78.86-.66,4.54-1.83,9.11-3.46,13.61-.45,1.24-1.62,2.01-2.87,2.01Z"/>
        <path d="M1098.89,1001.16c-.38,0-.77-.07-1.15-.22-1.56-.64-2.31-2.42-1.68-3.98,4.11-10.12,2.2-10.91-2.93-13.04-3.44-1.43-7.73-3.21-10.75-7.94-5.54-9-7.61-20.8-6.02-34.18,.2-1.68,1.7-2.87,3.39-2.67,1.67,.2,2.87,1.72,2.67,3.39-1.43,12,.34,22.45,5.13,30.22,1.96,3.07,4.85,4.27,7.92,5.55,7.16,2.97,12.17,6.41,6.24,20.97-.48,1.19-1.62,1.9-2.83,1.9Z"/>
        <path d="M1014.33,940.98c-.7,0-1.4-.24-1.98-.73-1.28-1.09-1.44-3.01-.35-4.29,.49-.57,12.11-13.98,33.87-13.58,1.68,.04,3.02,1.43,2.99,3.11-.03,1.69-1.47,3.02-3.11,2.99-18.74-.32-28.68,10.95-29.1,11.43-.6,.7-1.46,1.07-2.32,1.07Z"/>
        <path d="M1087.81,915.2c-.81,0-1.61-.32-2.21-.95-1.16-1.22-1.11-3.15,.11-4.31,12.31-11.68,25.6-8.01,26.16-7.86,1.62,.47,2.55,2.16,2.09,3.78-.47,1.62-2.16,2.54-3.78,2.09-.41-.12-10.59-2.78-20.27,6.42-.59,.56-1.35,.84-2.1,.84Z"/>
        <path class="cls-3" d="M1047.43,980.02c-4.25,1.52-9.15-2.11-11.06-7.42-1.91-5.31,.29-10.89,4.53-12.42,4.25-1.53,9.15,2.11,11.06,7.42,1.91,5.31-.28,10.9-4.53,12.42Z"/>
        <path d="M928.62,1009.54c-.62,0-1.25-.19-1.79-.58-1.3-.95-31.85-23.52-39.52-55.13-.4-1.64,.61-3.29,2.24-3.68,1.63-.41,3.29,.6,3.68,2.25,7.13,29.4,36.89,51.41,37.19,51.63,1.36,.99,1.66,2.9,.67,4.26-.6,.82-1.52,1.25-2.47,1.25Z"/>
        <path d="M873.53,949.58c-1,0-1.97-.48-2.56-1.38-.92-1.41-.52-3.3,.89-4.22,9.13-5.97,8.79-14.72,8.32-26.83-.46-11.67-1.02-26.18,7.42-42.21,15.67-30.45,66.46-63.2,103.39-57.99,1.67,.24,2.83,1.78,2.59,3.45-.24,1.67-1.76,2.85-3.45,2.59-34.63-4.9-82.34,26.02-97.12,54.76-7.7,14.61-7.19,27.65-6.74,39.15,.49,12.51,.95,24.32-11.08,32.18-.52,.34-1.09,.49-1.66,.49Z"/>
        <path d="M1081.24,823.98c-7.06,0-13.01-2.97-23.35-8.12l-1.21-.6c-15.02-7.48-27.63-10.06-47.57-1.11-1.53,.69-3.34,0-4.03-1.54-.69-1.54,0-3.34,1.54-4.03,22.05-9.89,36.55-6.87,52.79,1.22l1.22,.6c15.59,7.77,19.3,9.62,32.58,4.85,1.59-.57,3.33,.25,3.9,1.84,.57,1.58-.25,3.33-1.84,3.9-5.68,2.04-10.02,2.99-14.01,2.99Z"/>
        <path d="M971.45,964.47c-1.32,0-2.66-.03-4.03-.1-1.68-.09-2.98-1.52-2.89-3.2,.08-1.69,1.57-2.98,3.2-2.9,24.41,1.23,38.24-8.69,41.07-29.44,3.21-25.13,7.52-50.47,21.62-59.91,5.77-3.86,12.71-4.73,20.62-2.59,1.63,.44,2.59,2.11,2.15,3.74-.44,1.63-2.11,2.59-3.74,2.15-6.23-1.69-11.34-1.11-15.63,1.77-11.97,8.01-15.94,31.88-18.97,55.63-3.08,22.58-18.43,34.84-43.39,34.84Z"/>
        <path d="M1074.26,869.11c-1.65,0-3.01-1.32-3.05-2.98-.14-6.16,2.09-11.8,6.13-15.47,2.71-2.47,7.58-5.2,15.28-4.29,1.67,.2,2.87,1.72,2.67,3.39-.2,1.67-1.73,2.86-3.39,2.67-4.36-.53-7.88,.4-10.46,2.75-2.69,2.44-4.23,6.48-4.13,10.81,.04,1.68-1.29,3.08-2.98,3.12-.02,0-.05,0-.07,0Z"/>
        <path d="M968.1,987.57c-1.52,0-2.84-1.14-3.02-2.69-.2-1.68,1-3.19,2.67-3.39,12.93-1.53,16.6-11.37,16.63-11.46,.57-1.59,2.31-2.42,3.9-1.84,1.59,.57,2.41,2.31,1.84,3.9-.2,.55-5.02,13.5-21.66,15.47-.12,.01-.24,.02-.36,.02Z"/>
        <path d="M1042.03,849.5c-.83,0-1.66-.34-2.26-1-.13-.14-13.2-14.41-24.39-14.63-1.68-.03-3.02-1.43-2.99-3.11,.03-1.66,1.39-2.99,3.05-2.99,13.9,.27,28.26,15.97,28.86,16.64,1.13,1.25,1.03,3.18-.22,4.31-.58,.53-1.31,.79-2.05,.79Z"/>
        <g>
          <path class="cls-2" d="M1119.33,1009.95s3.21,30.63-18.8,36.13c-19.88,4.74-34.01-19.57-34.01-19.57,0,0,14.95-1.77,27.89-5.82,12.94-4.05,24.92-10.75,24.92-10.75Z"/>
          <path d="M1095.31,1049.75c-18.57,0-30.85-20.73-31.42-21.7-.52-.89-.55-1.97-.09-2.89,.46-.92,1.35-1.55,2.37-1.67,.15-.01,14.83-1.79,27.34-5.69,12.46-3.9,24.22-10.43,24.34-10.5,.89-.5,1.98-.52,2.89-.05,.91,.48,1.52,1.37,1.63,2.39,1.2,11.51-1.66,34.54-21.1,39.41-2.05,.49-4.04,.71-5.96,.71Zm-23.48-20.9c4.7,6.19,15.17,17.33,28,14.27,14.35-3.59,16.47-20.02,16.61-28.2-4.71,2.36-12.67,6.05-21.11,8.69-8.6,2.69-17.95,4.38-23.5,5.24Z"/>
        </g>
        <path class="cls-3" d="M1106.91,958.66c-3.72,1.33-8.62-2.3-10-7.8-1.38-5.5,.82-11.08,4.72-11.89,3.72-1.33,8.62,2.3,10,7.8,1.91,5.31-.29,10.9-4.72,11.89Z"/>
        <path d="M1114.03,906.39c-.26,0-.52-.03-.79-.1-1.63-.43-2.59-2.11-2.16-3.73,.86-3.21,1.83-6.42,2.79-9.6,6.69-22.14,12.47-41.27-21.3-55.04-1.56-.64-2.31-2.42-1.67-3.98,.63-1.56,2.41-2.32,3.98-1.67,38.92,15.87,31.76,39.55,24.84,62.45-.94,3.12-1.89,6.26-2.73,9.41-.36,1.36-1.6,2.27-2.95,2.27Z"/>
      </g>
      <g>
        <path class="cls-7" d="M1206.22,1773.54c-88.53,30.29-186.23,21.91-278.84-4.12-.58,12.42,2.51,52.86,1.24,60.37h373.21c.46-28.75-1.5-59.14-3.7-87.79-.28-3.74-1.81-10.42-1.94-16.08-4.85,3.65-9.77,7.06-14.72,10.38-5.56,8.76-56.57,32.91-75.26,37.24Z"/>
        <path d="M925.81,1829.79h5.68c.14-.39,.22,.44,.19,0-.99-14.74-1.37-53.92-.04-61.77,.28-1.66-.84-3.24-2.5-3.51-1.67-.27-3.24,.83-3.52,2.5-1.42,8.35-1.07,47.43-.04,62.79,.02,.3,.12-.27,.22,0Z"/>
        <path d="M1298.78,1829.79c0,.65,.24-.5,.58,0h4.95c.33-.48,.57,.62,.57,0,.24-22.56-1.81-62.43-3.46-93.14l-.88-16.61c-.09-1.68-1.55-3-3.2-2.89-1.68,.09-2.98,1.52-2.89,3.2l.88,16.62c1.64,30.62,3.69,70.45,3.45,92.81Z"/>
      </g>
      <path d="M1297.49,1723.25c-.79,0-1.57-.3-2.17-.91-1.18-1.2-1.17-3.13,.03-4.31,4.96-4.9,2.39-13.72,.12-21.5-1.09-3.74-2.03-6.96-2.13-9.7-2.37-63.54,.12-109.83,2.12-147.03,1.57-29.06,2.8-52.02,1.17-72.98-.13-1.68,1.13-3.14,2.8-3.27,1.67-.15,3.15,1.12,3.28,2.8,1.66,21.36,.41,44.49-1.16,73.78-2,37.07-4.48,83.21-2.12,146.47,.07,1.98,.96,5.01,1.89,8.21,2.48,8.48,5.87,20.09-1.69,27.55-.59,.58-1.37,.88-2.14,.88Z"/>
      <path d="M1294.62,1392.78c-1.65,0-3-1.31-3.05-2.97-1.72-66.51-8.9-90.9-20.78-131.31l-.58-1.96c-.48-1.61,.45-3.31,2.07-3.79,1.62-.48,3.31,.45,3.79,2.07l.58,1.96c12.03,40.88,19.29,65.56,21.03,132.87,.04,1.69-1.29,3.09-2.97,3.13h-.08Z"/>
      <path d="M1354.77,1533.29c-4.35,0-8.75-.25-13.2-.75-8.74-.98-30.34-11.29-38.96-17.81-1.34-1.02-1.61-2.93-.59-4.27,1.01-1.34,2.92-1.61,4.27-.59,8.39,6.35,28.89,15.82,35.96,16.61,36.48,4.08,68.29-8.93,91.96-37.65,22.81-27.68,42.2-58.57,60.11-87.83,11.6-18.96,23.79-39.73,37.25-63.51,1.12-1.98,2.89-4.5,4.93-7.42,4-5.72,10.05-14.36,10.25-18.62,.08-1.69,1.41-3.03,3.19-2.91,1.68,.08,2.98,1.51,2.9,3.19-.28,6.03-6.16,14.43-11.35,21.84-1.87,2.67-3.64,5.2-4.62,6.93-13.5,23.83-25.72,44.66-37.36,63.69-18.02,29.45-37.54,60.54-60.6,88.52-21.8,26.46-51.31,40.58-84.15,40.58Z"/>
      <path d="M1169.97,1192.12c-3.94,0-7.84-5.54-15.94-17.58-6-8.93-13.48-20.03-20-25.39-1.42-1.17-3.34-1.52-5.12-.96-1.73,.55-2.98,1.83-3.45,3.52-.95,3.45-1.19,9.25-.73,17.76,.09,1.68-1.2,3.12-2.88,3.21-1.72,.07-3.12-1.2-3.21-2.89-.5-9.3-.2-15.56,.94-19.71,1.01-3.66,3.81-6.55,7.48-7.71,3.76-1.19,7.81-.42,10.84,2.07,7.21,5.92,14.64,16.96,21.19,26.7,2.95,4.39,6.71,9.97,9.25,12.94-.44-8.81-5.91-32.71-19.66-58.08-10.96-2.92-22.29-6.66-31.34-15.64-1.2-1.19-1.2-3.12-.01-4.32,1.19-1.19,3.12-1.19,4.31-.01,8.32,8.26,19.31,11.65,29.86,14.41,.81,.21,1.5,.74,1.9,1.48,17.12,31.08,22.93,61.42,20.39,67.59-.69,1.67-1.89,2.24-2.55,2.43-.43,.13-.85,.19-1.27,.19Z"/>
      <path d="M1038.29,1231.71c-2.61,0-5.21-1.1-6.6-2.08-4.62-3.27-10.73-7.3-17.8-11.96-11.39-7.51-25.56-16.86-38.04-26.16-4.63-3.46-9.51-8.36-14.23-13.12-2.46-2.48-4.9-4.93-7.27-7.14-1.76-1.64-2.77-3.95-2.77-6.34,0-2.37,.95-4.58,2.67-6.2,1.23-1.16,2.76-2.59,5.67-8.17,3.85-7.4,6.88-14.22,9.15-23.42,.4-1.64,2.06-2.62,3.69-2.23,1.64,.41,2.63,2.06,2.23,3.69-2.07,8.38-4.87,15.56-9.66,24.77-3.13,6.02-5.05,8.08-6.91,9.81-.48,.46-.75,1.07-.75,1.74,0,.71,.3,1.38,.83,1.89,2.42,2.25,4.91,4.77,7.43,7.3,4.56,4.59,9.28,9.33,13.55,12.52,12.34,9.2,25.84,18.11,37.75,25.96,7.12,4.69,13.27,8.75,17.97,12.09,.91,.64,2.95,1.22,3.66,.88,.12-.06,.27-.44,.33-1.06,.69-7.8-.31-16.09-1.28-24.1-1.35-11.22-2.52-20.92,1.27-27.21,6.38-10.57,12.5-7.9,16.98-5.95,1.03,.45,2.1,.92,3.15,1.23,1.61,.49,2.53,2.19,2.04,3.8-.49,1.62-2.19,2.53-3.8,2.04-1.4-.42-2.69-.98-3.83-1.48-4.15-1.81-5.7-2.49-9.31,3.51-2.71,4.49-1.61,13.64-.44,23.33,.96,7.93,2.04,16.92,1.3,25.36-.34,3.89-2.56,5.47-3.85,6.06-.99,.46-2.07,.65-3.15,.65Z"/>
      <path d="M1208.52,1773c.08-.01,.15-.04,.23-.06,1.9-1.3,3.97-2.31,6.25-2.88,.97-10.21,2.34-36.63-.95-91.73-2.32-38.74-6.46-76.51-10.12-109.83-.98-8.91-1.92-17.5-2.79-25.71-.18-1.68-1.7-2.9-3.35-2.72-1.68,.18-2.89,1.68-2.71,3.35,.87,8.22,1.81,16.83,2.79,25.74,3.65,33.25,7.79,70.94,10.1,109.53,3.79,63.37,1.29,88.72,.57,94.3Z"/>
      <path d="M1183.14,1429.9c-1.46,0-2.74-1.05-3-2.53-21.38-123.15-53.3-200.69-53.62-201.46-.65-1.56,.09-3.34,1.64-3.99,1.56-.66,3.34,.09,3.99,1.64,.32,.77,32.49,78.87,54,202.76,.29,1.66-.82,3.24-2.48,3.52-.18,.03-.35,.05-.52,.05Z"/>
      <g>
        <path class="cls-8" d="M1595.79,1171.6s7.61-14.43,7.61-22.4-7.66-50.38-14.36-55.8c-6.7-5.42-12.92,.55-11.49,6.52,1.44,5.97,2.87,38.32,2.87,38.32l3.04,6.61c-7.34-6.33-42.38-24.3-48.99-25.13-7.18-.89-9.57,2.59-5.74,9.56,3.83,6.97,36.44,26.88,36.44,26.88l4.25,9.96,.32,.71c-9-2.84-31.14-8.12-38.51-11.49-8.72-3.98-17.79-7.76-20.53-2.28-3.61,7.21,1.27,9.82,7.97,15.17,4.79,3.82,23.73,11.76,34.17,15.99,4.31,1.75,7.32,5.83,7.83,10.61l.6,5.67,1.21,2.04c-14.51-7.78-48.63-25.01-50.51-16.01-2.39,11.45,8.27,16.13,16.28,19.55,8.29,3.54,15.27,7.45,19.78,10.19,3.51,2.13,6,5.67,6.95,9.78l2.28,28.01-7.24,15.9,.92,22.12c4.3-3.1,19.22-12.77,23.52-15.88,3.64-2.63,7.33-5.31,10.16-8.85,.24-.29,.46-.63,.67-.98,2.83-4.75,2.95-10.74,.94-15.92l-9-23.11,11.82,19.91c-.96-1.99,3.35-4.35,3.35-14.37,0-4.22-2.29-15.75-5.41-27.95l5.41,11.96s11.49-7.88,11.01-16.38c-.33-5.84-7.88-27.16-13.36-41.39l5.75,12.48Z"/>
        <path d="M1595.79,1174.65c-.48,0-.96-.11-1.42-.35-1.49-.79-2.06-2.63-1.28-4.12,2.02-3.84,7.26-15.07,7.26-20.98,0-8.5-7.91-49.13-13.23-53.42-1.23-.99-3.01-2-4.54-1.15-1.41,.79-2.25,2.86-2,4.92,1.55,12.41,4.07,43.32,4.09,43.63,.13,1.68-1.11,3.15-2.79,3.29-1.65,.12-3.15-1.11-3.29-2.79-.02-.31-2.53-31.09-4.06-43.37-.57-4.57,1.47-9,5.09-11.01,3.46-1.93,7.6-1.3,11.34,1.73,8.28,6.7,15.49,51.52,15.49,58.17,0,8.47-7.15,22.27-7.96,23.82-.55,1.04-1.61,1.63-2.7,1.63Z"/>
        <g>
          <path d="M1550.94,1295.13c-.95,0-1.88-.43-2.47-1.26-.99-1.37-.68-3.27,.68-4.26,2.19-1.59,6.87-4.7,11.83-7.99,4.71-3.13,9.58-6.37,11.68-7.89,3.43-2.47,6.97-5.04,9.56-8.28,.15-.19,.29-.4,.43-.63,2.23-3.74,2.5-8.69,.72-13.26l-15.6-40.06c-.83-2.14-2.36-3.91-4.3-4.96-31.43-17.12-46.32-20.88-48.62-19.25-1.65,8.3,5.31,12.01,14.6,15.98,8.51,3.64,15.66,7.66,20.17,10.4,4.17,2.53,7.21,6.79,8.33,11.7l7.26,31.65c.38,1.64-.65,3.28-2.29,3.65-1.64,.38-3.28-.65-3.65-2.29l-7.26-31.66c-.76-3.31-2.78-6.17-5.55-7.85-4.33-2.63-11.22-6.5-19.4-9.99-7.85-3.35-20.99-8.97-18.06-22.98,.39-1.88,1.58-3.36,3.36-4.18,6.58-3.05,24.76,3.5,54.04,19.46,3.21,1.75,5.71,4.63,7.07,8.1l15.6,40.06c2.46,6.31,2.02,13.26-1.16,18.59-.28,.48-.58,.92-.91,1.32-3.11,3.9-7,6.7-10.76,9.42-2.2,1.59-6.9,4.71-11.88,8.02-4.69,3.12-9.54,6.34-11.63,7.85-.54,.39-1.16,.58-1.78,.58Z"/>
          <path d="M1592.39,1219.94c-.97,0-1.92-.46-2.51-1.32-.95-1.39-.6-3.29,.78-4.24,2.8-1.93,10-8.16,9.69-13.7-.43-7.67-15.62-48-18.31-53.03-3.02-4.01-41.61-24.11-47.94-24.89-2.81-.35-3.88,.2-4.03,.41-.17,.26-.3,1.66,1.34,4.65,2.5,4.56,23.01,18.21,35.35,25.74,.54,.33,.96,.82,1.21,1.41l4.25,9.95c.66,1.55-.06,3.34-1.61,4-1.55,.66-3.35-.06-4-1.61l-3.87-9.06c-7.08-4.35-32.84-20.5-36.68-27.5-2.53-4.6-2.88-8.3-1.04-11.01,1.22-1.79,3.93-3.78,9.83-3.05,6.76,.84,49.19,21.74,52.57,28.08,2.08,3.88,18.49,46.09,19.02,55.56,.56,9.93-11.01,18.16-12.33,19.07-.53,.36-1.13,.54-1.72,.54Z"/>
          <path d="M1587.69,1252.05c-.65,0-1.3-.2-1.86-.63-1.34-1.03-1.58-2.95-.56-4.28,3.12-4.06,4.07-5.28,4.07-14.26,0-10.5-12.93-58.46-17.66-62.13-1.3-.72-9.3-2.89-15.72-4.64-9.83-2.67-20.97-5.69-25.99-7.99-4.86-2.22-14.96-6.84-16.53-3.69-1.95,3.9-1.02,5.06,5.06,9.79,.67,.52,1.37,1.06,2.09,1.63,3.21,2.56,15.71,8.38,33.41,15.55,5.36,2.17,9.08,7.2,9.71,13.11l.6,5.67c.18,1.68-1.03,3.18-2.71,3.36-1.68,.19-3.18-1.03-3.36-2.71l-.6-5.67c-.39-3.67-2.67-6.77-5.94-8.1-13.27-5.38-30.1-12.59-34.92-16.43-.7-.56-1.38-1.09-2.03-1.59-5.47-4.25-11.12-8.64-6.78-17.33,4.2-8.41,15.94-3.05,24.52,.87,4.57,2.08,15.93,5.17,25.06,7.65,9.67,2.63,15.24,4.17,17.17,5.24,8.37,4.66,20.71,59.13,20.71,67.41,0,10.63-1.54,13.05-5.33,17.98-.6,.78-1.51,1.19-2.42,1.19Z"/>
        </g>
      </g>
      <g>
        <path class="cls-8" d="M1477.72,1303.14c1.25-1.93,2.51-3.85,3.82-5.73,3.97-5.23,14.47-22.37,12.92-25.84-3.09-6.94-8.75-3.73-17.47,4.99-8.72,8.72-20.79,25.87-30.16,34.88-9.38,9.02-25.59,20.38-27.38,16.33-1.8-4.05,15.09-19.18,26.87-33.42,12.84-15.4,17.5-24.41,26.13-38.64,8.63-14.23,12.5-21.49,7.15-24.66-6.26-3.45-16.95,6.15-25.7,18.35-9.15,13.07-16.04,22.37-27.93,34.59-11.89,12.21-24.45,24.72-27.96,22.13-3.51-2.59,.74-10.73,23.27-41.52,3.32-4.94,20.96-30.79,24.7-40.08,3.34-8.42-5.51-14.18-15.69-3.42-8.72,8.73-22.1,26.45-34.28,41.56-11.52,14.82-22.61,25.3-36.74,37.81-5.44,4.88-10.35,8.64-14.73,11.8l.75-.74c1.29-13.05,10.29-24.67,17.58-34.84,7.29-10.17,11.95-19.17,5.83-24.07-6.12-4.91-15.01,8.75-23.33,16.6-8.98,8.15-20.47,19.49-27.87,27.63-7.15,8.72-9.29,14.52-14.38,27.87-4.29,11.61-6.63,25.82-11.84,37.14-.64,1.22-4.31,6.01-7.86,10.63l-7.1,7c.9-.29,1.67-.55,2.36-.8-1.24,1.64-2.14,2.87-2.36,3.27l.12,.17c3.57,2.59,7.39,4.84,11.03,7.34,3.02,2.07,5.84,4.36,8.32,7.01,2.63,2.11,5.14,4.36,7.33,6.9,3.28,3.81,5.86,8.17,8,12.7,3.83,8.14,6.34,16.86,8.14,25.68,.01,.05,.61,.88,.61,.88,42.79-25.95,25.91-18.39,57.24-36.47,24.61-13.71,43.68-22.19,57.4-33.83,13.72-11.64,57.49-60.2,46.06-71.75l-2.87,2.54Z"/>
        <path d="M1276.34,1382.55c-1.28,0-2.48-.82-2.9-2.1-.52-1.6,.35-3.32,1.95-3.85q5.66-1.85,13.21-16.15c2.83-6.17,4.88-13.65,6.85-20.87,1.46-5.35,2.97-10.88,4.83-15.89l.27-.71c4.99-13.1,7.27-19.08,14.61-28.03,7.33-8.06,18.87-19.51,28.18-27.96,1.95-1.84,4.06-4.16,6.09-6.39,6.74-7.41,14.37-15.81,21.19-10.33,9.51,7.62-.47,21.54-5.26,28.23l-1.58,2.2c-6.72,9.31-14.33,19.86-15.45,31.17-.17,1.67-1.64,2.88-3.33,2.73-1.68-.17-2.9-1.66-2.74-3.34,1.28-12.94,9.4-24.2,16.57-34.13l1.57-2.19c8-11.15,9.91-17.1,6.41-19.91-2.34-1.89-8.43,4.8-12.87,9.68-2.11,2.32-4.29,4.72-6.46,6.76-9.22,8.37-20.6,19.65-27.71,27.46-6.61,8.07-8.63,13.39-13.53,26.22l-.26,.69c-1.75,4.73-3.16,9.89-4.65,15.35-2.04,7.47-4.15,15.19-7.27,21.97-8.28,15.7-8.77,16.63-16.78,19.25-.32,.1-.63,.15-.95,.15Z"/>
        <path d="M1433.25,1356.57c-.78,0-1.56-.3-2.16-.89-1.19-1.2-1.18-3.12,0-4.32,.12-.12,12.71-12.66,23.7-23.04,7.52-6.75,12.88-15.15,18.07-23.27,1.98-3.11,4.03-6.31,6.17-9.38,4.94-6.51,12.46-19.96,12.53-23.09-.29-.61-.86-1.6-1.46-1.71-.96-.16-3.7,.59-10.96,7.85-4,4-8.72,9.83-13.72,15.99-5.6,6.9-11.39,14.04-16.48,18.93-4.31,4.14-21.85,19.35-29.02,17.92-1.48-.29-2.67-1.22-3.27-2.55-1.93-4.33,3.09-10.01,14.64-22.44,4.3-4.62,8.74-9.41,12.67-14.16,10.59-12.71,15.58-21.06,21.89-31.64,1.26-2.1,2.57-4.29,3.99-6.63,4.4-7.25,9.88-16.28,9.09-19.43-.08-.3-.24-.63-.89-1.02-3.11-1.71-11.83,3.79-21.67,17.5-8.66,12.37-15.77,22.14-28.22,34.93-19.25,19.77-26.97,26.13-31.96,22.46-5.86-4.33-2.06-12.03,22.62-45.78l.83-1.24c13.36-19.81,21.27-32.65,23.5-38.18,.83-2.09,.61-3.93-.57-4.69-1.75-1.1-5.64-.18-10.08,4.51-6.38,6.39-15.15,17.47-24.44,29.22-3.24,4.1-6.5,8.21-9.68,12.16-11.15,14.34-21.64,24.49-37.09,38.17-7.57,6.8-14.26,11.52-19.63,15.32-2.32,1.64-4.45,3.15-6.38,4.62-1.34,1.02-3.25,.77-4.28-.57-1.02-1.33-.77-3.25,.57-4.27,1.99-1.52,4.18-3.07,6.57-4.76,5.52-3.9,11.77-8.31,19.09-14.89,15.19-13.46,25.48-23.4,36.37-37.41,3.2-3.98,6.45-8.08,9.68-12.16,9.4-11.89,18.28-23.11,24.85-29.69,7.24-7.66,13.92-7.82,17.73-5.39,3.7,2.36,4.89,7.22,2.95,12.09-3.61,8.94-19.04,31.81-24.11,39.32l-.9,1.33c-7.08,9.68-23.06,31.53-23.84,36.93,4.78-1.81,18.46-15.86,23.81-21.36,12.14-12.47,19.11-22.05,27.62-34.21,5.52-7.7,19.41-24.95,29.67-19.27,2.03,1.19,3.27,2.81,3.78,4.83,1.27,5.07-2.18,11.53-9.79,24.07-1.41,2.32-2.71,4.5-3.96,6.6-6.45,10.81-11.55,19.34-22.44,32.41-4.03,4.88-8.74,9.95-12.89,14.42-4.29,4.61-9.81,10.56-12.21,14.07,4.57-2.09,13.52-8.2,21.16-15.55,4.82-4.64,10.49-11.62,15.97-18.38,5.11-6.3,9.92-12.24,14.15-16.47,6.36-6.36,11.6-10.43,16.38-9.54,2.6,.48,4.63,2.32,6.03,5.46,2.87,6.45-13.12,28.71-13.28,28.92-1.99,2.87-4.01,6.02-5.96,9.08-5.41,8.46-11,17.22-19.08,24.47-10.88,10.28-23.4,22.75-23.52,22.88-.6,.59-1.38,.89-2.15,.89Z"/>
        <path d="M1319.89,1445.7c-1.03,0-2.04-.52-2.61-1.47-.87-1.44-.41-3.32,1.03-4.19,21.71-13.16,27.98-17.65,33.01-21.26,4.91-3.52,8.79-6.3,24.29-15.24,6.85-3.82,13.13-7.15,19.19-10.37,15.69-8.33,28.07-14.92,37.76-23.14,13.2-11.2,46.21-48.77,46.86-63.75,.11-2.42-.72-3.25-.99-3.52-1.19-1.2-1.17-3.13,.02-4.32,1.2-1.18,3.12-1.17,4.31,.02,1.97,1.99,2.9,4.71,2.75,8.08-.82,18.98-37.87,58.69-49.01,68.14-10.19,8.64-22.84,15.36-38.85,23.87-6.04,3.21-12.29,6.53-19.05,10.3-15.19,8.77-18.97,11.47-23.74,14.89-5.12,3.67-11.5,8.24-33.4,21.53-.49,.29-1.04,.44-1.58,.44Z"/>
      </g>
      <path d="M1034.32,1562.21c-1.45,0-2.74-1.04-3-2.52-2.83-16.05-1.74-32.76,3.17-48.31,.51-1.61,2.23-2.5,3.83-1.99,1.61,.51,2.5,2.22,1.99,3.82-4.62,14.61-5.65,30.32-2.98,45.41,.29,1.66-.81,3.24-2.47,3.53-.18,.03-.36,.05-.53,.05Z"/>
      <path d="M1547.99,1314.18c-1,0-2.12-.4-3.32-1.5-.54-.49-1.04-1.03-1.54-1.58-.76-.83-1.48-1.62-2.16-1.89-1.57-.61-2.33-2.39-1.72-3.96,.61-1.57,2.39-2.34,3.96-1.72,1.99,.79,3.34,2.26,4.42,3.44,.08,.1,.17,.19,.25,.28,.43-1.64,.75-5.76-.62-8.74-.71-1.53-.04-3.34,1.5-4.04,1.53-.71,3.34-.03,4.04,1.5,2.4,5.21,1.81,13.33-.38,15.6l-.37,.39c-.62,.66-2.09,2.21-4.06,2.21Z"/>
      <path d="M1366.69,1455.34c-.28,0-.56-.04-.84-.12-1.62-.46-2.56-2.15-2.09-3.77,.38-1.35,9.49-33.04,18.1-50.71,.74-1.51,2.56-2.14,4.08-1.41,1.51,.74,2.14,2.57,1.4,4.08-8.38,17.18-17.63,49.39-17.72,49.71-.38,1.34-1.6,2.22-2.93,2.22Z"/>
      <path d="M1022,1647.42c-26.23,0-62.35-7.99-87.43-45.5-18.27-27.32-32.85-75.05-46.95-121.22-7.61-24.91-15.48-50.66-23.68-72.27-12.1-31.86-18.08-56.82-19.4-80.96l-.18-3.25c-1.53-27.25-2.73-48.76,23.26-75.8,16.11-16.68,31.45-30.85,46.29-44.56,13.47-12.45,26.2-24.2,37.92-36.43,1.17-1.22,3.1-1.25,4.31-.09,1.22,1.16,1.26,3.09,.09,4.31-11.85,12.36-24.64,24.18-38.18,36.69-14.77,13.64-30.05,27.76-46.03,44.31-24.15,25.12-23.12,43.46-21.56,71.23l.18,3.26c1.28,23.48,7.15,47.88,19.01,79.12,8.28,21.79,16.18,47.65,23.81,72.66,13.97,45.74,28.42,93.04,46.19,119.61,41.39,61.91,113.04,38.97,113.76,38.73,15.92-5.88,65.35-39.3,142.88-96.6,60.1-44.42,116.41-87.93,116.98-88.36,.14-.1,.28-.2,.43-.28,2.59-1.38,3.13-5.19,3.14-8.15,.02-15.99-16.31-47.96-41.94-61.68-14.23-7.62-27.09,1.89-52.72,20.86-19.42,14.37-46.02,34.05-84.9,53.85-87.06,44.34-96.46,57.87-96.82,58.42-.88,1.36-2.72,1.86-4.12,1.04-1.41-.81-1.96-2.54-1.22-3.98,.74-1.43,9.79-15.27,99.39-60.91,38.43-19.58,64.79-39.08,84.04-53.32,25.94-19.19,41.6-30.78,59.23-21.34,28.01,15,45.18,49.18,45.16,67.08-.01,8.14-3.28,11.77-6.13,13.38-3.64,2.81-58.48,45.13-116.9,88.3-79.1,58.46-127.7,91.24-144.45,97.44-.31,.12-14.22,4.42-33.46,4.42Z"/>
      <path d="M1542.65,1301.64c1.56,2.79,3.67,5.28,6.16,7.28,.41,.33,.91,.66,1.42,.54,.6-.15,.86-.84,1-1.44,1.33-5.46,.48-11.43-2.33-16.3-2.09,3.41-4.18,6.82-6.28,10.23v-.31Z"/>
      <path d="M1482.47,1304.36c-1.51,0-2.82-1.11-3.02-2.65-.22-1.67,.95-3.2,2.62-3.42,32.91-4.37,72.14-17.1,72.14-52.96v-2.2c0-1.69,1.36-3.05,3.05-3.05s3.05,1.36,3.05,3.05v2.2c0,31.88-26.78,52.28-77.44,59-.14,.02-.27,.02-.41,.02Z"/>
      <path d="M1127.51,1184.86c-1.46-7.13-2.83-13.87-3.24-19.13-.67-8.66-1.01-26.01-1.28-39.95-.15-7.88-.29-14.67-.45-17.75-.16-3.14-1.63-4.83-2.83-5.71-2.97-2.14-6.88-1.16-7.32-1.04-.1,.02-.16,.09-.25,.13-.74-2.46-1.44-5.1-2.2-8.06-.49-1.94-1.01-3.96-1.57-6.05-.44-1.63-2.11-2.59-3.74-2.15-1.63,.44-2.59,2.12-2.15,3.74,.56,2.06,1.06,4.06,1.55,5.97,2.82,11.07,5.05,19.81,12.35,24.89,.12,.09,.26,.12,.39,.19,.04,1.88,.08,3.88,.12,5.96,.27,14.02,.61,31.47,1.3,40.3,.44,5.64,1.85,12.56,3.35,19.88,2.02,9.87,4.25,20.81,4.73,31.3-13.55-13.09-22.77-18.64-32.46-24.48-9.19-5.54-18.68-11.26-33.37-23.85-4.09-3.51-17-8.7-22.36-10.78-9.07-3.51-16.87-6.2-24.43-8.81-10.2-3.53-19.83-6.85-31.71-11.85-3.58-1.5-6.89-7.51-6.4-8.8,0,0,.69-.44,3.04-.05,1.67,.29,3.23-.85,3.51-2.51s-.85-3.23-2.51-3.5c-7.4-1.23-9.34,2.61-9.83,4.3-1.68,5.83,4.85,14.1,9.83,16.19,12.07,5.07,21.79,8.43,32.08,11.99,7.5,2.59,15.25,5.27,24.22,8.74,11.64,4.5,18.73,8.12,20.59,9.72,15.07,12.92,25.23,19.05,34.19,24.45,11.01,6.64,20.52,12.37,36.5,28.75,.58,.6,1.38,.92,2.18,.92,.36,0,.73-.06,1.09-.2,1.14-.44,1.91-1.5,1.96-2.72,.59-13.32-2.31-27.5-4.86-40.01Z"/>
      <path d="M1085.58,1793.23c-53.08,0-107.91-7.72-156.7-22.45-.99-.3-1.95-.73-2.86-1.28-4.29-2.6-6.54-7.5-5.72-12.46,1.42-8.6,2.94-15.97,4.41-23.09,7.16-34.6,12.33-59.59-8.37-165.75-.32-1.65,.76-3.26,2.41-3.58,1.65-.33,3.25,.75,3.58,2.41,20.93,107.36,15.66,132.86,8.36,168.16-1.46,7.07-2.97,14.38-4.37,22.85-.41,2.5,.71,4.96,2.86,6.26,.46,.28,.96,.5,1.46,.65,66.02,19.94,143.24,26.89,211.87,19.05,72.18-8.24,126.33-31.55,152.47-65.63,1.03-1.33,2.94-1.58,4.28-.57,1.34,1.03,1.59,2.94,.56,4.28-27.15,35.41-82.77,59.55-156.61,67.98-18.7,2.14-38.05,3.19-57.62,3.19Z"/>
    </g>
    <g>
      <g>
        <g>
          <path class="cls-1" d="M1144.36,783.77h-72.35c-1.68,0-3.05-1.37-3.05-3.05s1.37-3.05,3.05-3.05h72.35c1.68,0,3.05,1.37,3.05,3.05s-1.37,3.05-3.05,3.05Z"/>
          <path class="cls-1" d="M1829.04,783.77h-72.35c-1.69,0-3.05-1.37-3.05-3.05s1.36-3.05,3.05-3.05h72.35c1.69,0,3.05,1.37,3.05,3.05s-1.36,3.05-3.05,3.05Z"/>
        </g>
        <path class="cls-1" d="M1450.53,477.6c-1.69,0-3.05-1.37-3.05-3.05v-72.35c0-1.68,1.36-3.05,3.05-3.05s3.05,1.37,3.05,3.05v72.35c0,1.68-1.36,3.05-3.05,3.05Z"/>
      </g>
      <g>
        <g>
          <path class="cls-1" d="M1182.87,1051.42c-.78,0-1.56-.3-2.16-.89-1.19-1.19-1.19-3.12,0-4.31l51.16-51.16c1.19-1.19,3.12-1.19,4.31,0s1.19,3.12,0,4.31l-51.16,51.16c-.6,.6-1.38,.89-2.16,.89Z"/>
          <path class="cls-1" d="M1667.02,567.28c-.78,0-1.56-.3-2.16-.89-1.19-1.19-1.19-3.12,0-4.31l51.16-51.16c1.19-1.19,3.12-1.19,4.31,0,1.19,1.19,1.19,3.12,0,4.31l-51.16,51.16c-.6,.6-1.38,.89-2.16,.89Z"/>
        </g>
        <g>
          <path class="cls-1" d="M1718.18,1051.42c-.78,0-1.56-.3-2.16-.89l-51.16-51.16c-1.19-1.19-1.19-3.12,0-4.31s3.12-1.19,4.31,0l51.16,51.16c1.19,1.19,1.19,3.12,0,4.31-.6,.6-1.38,.89-2.16,.89Z"/>
          <path class="cls-1" d="M1234.03,567.28c-.78,0-1.56-.3-2.16-.89l-51.16-51.16c-1.19-1.19-1.19-3.12,0-4.31,1.19-1.19,3.12-1.19,4.31,0l51.16,51.16c1.19,1.19,1.19,3.12,0,4.31-.6,.6-1.38,.89-2.16,.89Z"/>
        </g>
      </g>
      <g>
        <path class="cls-1" d="M1761.33,924.8c-.42,0-.85-.09-1.26-.27l-32.94-14.95c-1.53-.7-2.21-2.5-1.52-4.04,.69-1.53,2.5-2.22,4.04-1.52l32.94,14.95c1.53,.69,2.21,2.5,1.52,4.04-.51,1.13-1.62,1.79-2.78,1.79Z"/>
        <path class="cls-1" d="M1172.66,657.69c-.42,0-.85-.09-1.26-.27l-32.94-14.95c-1.53-.7-2.21-2.5-1.52-4.04,.7-1.54,2.51-2.22,4.04-1.52l32.94,14.95c1.53,.7,2.21,2.5,1.52,4.04-.51,1.13-1.62,1.79-2.78,1.79Z"/>
      </g>
      <g>
        <path class="cls-1" d="M1139.72,924.8c-1.16,0-2.27-.66-2.78-1.79-.7-1.53-.02-3.34,1.52-4.04l32.94-14.95c1.53-.7,3.34-.02,4.04,1.52,.7,1.53,.02,3.34-1.52,4.04l-32.94,14.95c-.41,.19-.84,.27-1.26,.27Z"/>
        <path class="cls-1" d="M1728.39,657.69c-1.16,0-2.27-.67-2.78-1.79-.69-1.53-.02-3.34,1.52-4.04l32.94-14.95c1.54-.7,3.34-.02,4.04,1.52,.69,1.53,.01,3.34-1.52,4.04l-32.94,14.95c-.41,.19-.84,.27-1.26,.27Z"/>
      </g>
      <path class="cls-1" d="M1324.44,505.91c-1.16,0-2.27-.67-2.78-1.79l-14.95-32.94c-.7-1.53-.02-3.34,1.52-4.04,1.53-.7,3.34-.02,4.04,1.52l14.95,32.94c.7,1.53,.02,3.34-1.52,4.04-.41,.19-.84,.27-1.26,.27Z"/>
      <path class="cls-1" d="M1557.85,498.14c-.36,0-.72-.06-1.07-.2-1.58-.59-2.37-2.35-1.78-3.93l12.72-33.86c.6-1.58,2.37-2.37,3.93-1.78,1.58,.59,2.37,2.35,1.78,3.93l-12.72,33.86c-.46,1.22-1.62,1.98-2.86,1.98Z"/>
    </g>
  </g>
</svg>