<?xml version="1.0" encoding="UTF-8"?>
<svg id="_Layer_" data-name="&amp;lt;Layer&amp;gt;" xmlns="http://www.w3.org/2000/svg" viewBox="0 0 2745 1830">
  <defs>
    <style>
      .cls-1 {
        fill: #e6f1ff;
      }

      .cls-2 {
        fill: #fff;
      }

      .cls-3 {
        fill: #351d17;
      }

      .cls-4 {
        fill: #aecad6;
      }

      .cls-5 {
        fill: #ffddc0;
      }

      .cls-6 {
        fill: #828282;
      }

      .cls-7 {
        fill: #8ea34b;
      }

      .cls-8 {
        fill-rule: evenodd;
      }
    </style>
  </defs>
  <rect class="cls-4" width="2745" height="1830"/>
  <g>
    <g>
      <path class="cls-3" d="M1298.25,402.94c10.08-32.55,36.14-34.21,67.84-33.3,61.42-9.92,51.57,39.23,79.21,80.53,11.68,22.12,20.64,27.85,33.67,31.34l22.97-2.68s8.82-37.83,7.36-70.08c.05-7.72-2.26-15.98-3.73-23.56-1.33-6.04,15.2-10.67,4.68-24.34-10.53-13.67-24-42.49-34.67-57.69-28.45-40.53-40.29-18.61-75.42-31.53-35.13-12.92-42.17-22.29-66.63-20.02-39.06,2.86-81.17,39.17-108.59,59.46-10.76,8.71-27.18-2.1-27.86,7.22-.27,5.42,8.52,16.94,7.41,21.67-5.46,15.93-20.5,36.61-18.41,67.26,4.71,58.93,24.48,105.67,24.48,105.67,8.75-5.44,25.16-3.11,35.7-14.12,20.93-18.66,48.06-74.91,52-95.83Z"/>
      <path class="cls-5" d="M1271.95,705.9c-4.82,5.63-6.2,4.5-4.51,10.1,10.62,35.2,12.49,60.37,44.38,122.38,9.85-11.57,34.3-43.89,47.23-48.16,36.3-26.06,75.4-52.87,107.21-84.32-4.01-2.2-7.15-5.97-9.6-10.55-9.02-16.89-8.47-44.89-5.97-46.66,17.54-12.39,35.38-72.35,32.72-87.17,29.73-7.32,44.09-47.91,26.4-72.62-12.98-3.89-22.71-5.19-30.85-7.38-13.03-3.49-21.99-9.22-33.67-31.34-27.63-41.29-17.79-90.45-79.21-80.53-31.7-.91-57.76,.75-67.84,33.3-3.94,20.92-31.07,77.16-52,95.83-10.54,11.01-26.95,8.68-35.7,14.12-16.88,10.66-7.86,42.84-4.14,46.65,0,0,18.74,19.07,18.74,19.07l19.96,7.4c1,12.57,29.04,71.2,45.07,78.31,.04,.03-2.8,2.67-6.57,6.9,.05,6.32-1.35,16.14-4.32,22.6-.39,.86-.81,1.67-1.26,2.39-3.46,5.55-.88,5.79-6.09,9.68Z"/>
      <path d="M1268.88,712.55c-1.13,0-2.24-.5-2.99-1.45-1.31-1.65-1.03-4.05,.62-5.36,7.47-5.91,9.78-15.16,12.02-24.11,1.27-5.91,2.06-13.8,2.35-23.53,.06-2.1,1.79-3.8,3.93-3.7,2.1,.06,3.76,1.82,3.7,3.93-.31,10.19-1.15,18.54-2.49,24.82,0,.04-.07,.28-.08,.32-2.43,9.71-5.17,20.72-14.68,28.24-.7,.55-1.54,.82-2.36,.82Z"/>
      <path d="M1466.26,709.71c-.95,0-1.9-.35-2.65-1.07-6.8-6.55-11.07-13.59-13.06-21.51-5.48-21.91-3.73-38.19-3.65-38.87,.24-2.09,2.17-3.56,4.21-3.36,2.09,.23,3.6,2.12,3.37,4.21-.02,.15-1.65,15.67,3.47,36.17,1.62,6.49,5.21,12.34,10.95,17.87,1.52,1.46,1.56,3.87,.1,5.39-.75,.78-1.75,1.17-2.75,1.17Z"/>
      <path d="M1373.78,701.9c-6.28,0-31.1-1.46-66.65-22.16-28.35-16.07-38.7-34.8-44.89-45.98-9.26-15.43-17.71-36.75-26.53-66.97-.59-2.02,.57-4.14,2.59-4.73,2.02-.6,4.14,.57,4.73,2.59,8.63,29.57,16.84,50.32,25.82,65.3,5.86,10.6,15.57,28.14,42.08,43.18,38.3,22.31,63.66,21.14,63.9,21.13,2.08-.14,3.9,1.48,4.03,3.58,.13,2.1-1.46,3.9-3.56,4.03-.14,0-.65,.04-1.52,.04Z"/>
      <path d="M1375.82,701.8c-1.94,0-3.61-1.48-3.79-3.46-.19-2.09,1.34-3.94,3.43-4.15,.39-.04,21.81-2.64,55.12-30.66,23.94-20.22,33.47-41.23,37.02-51.96,6.11-16.5,10.34-38.41,13.37-69.06,.2-2.1,2.1-3.62,4.17-3.42,2.09,.21,3.62,2.07,3.42,4.17-3.09,31.32-7.46,53.83-13.76,70.84-3.76,11.36-13.92,33.83-39.3,55.26-35.55,29.91-58.36,32.34-59.31,32.42-.12,.01-.24,.02-.36,.02Z"/>
      <path d="M1241.77,587.05c-.05,0-.1,0-.15,0-12.18-.48-33.63-10.44-42.78-35.87-5.15-14.32-3.35-28.95,4.71-38.18,6.68-7.65,16.7-10.51,28.22-8.05,2.06,.44,3.37,2.46,2.93,4.52-.44,2.06-2.46,3.37-4.52,2.93-8.82-1.88-16.04,.06-20.89,5.61-6.14,7.04-7.43,19.04-3.28,30.58,7.82,21.73,26.17,30.45,35.91,30.83,2.1,.08,3.74,1.86,3.66,3.96-.08,2.05-1.77,3.66-3.81,3.66Z"/>
      <path d="M1229.26,551.97c-1.11,0-2.21-.48-2.97-1.41-.05-.06-5.19-6.4-7.67-9.14-1.41-1.56-1.3-3.97,.27-5.39,1.56-1.41,3.97-1.3,5.38,.27,2.62,2.89,7.73,9.19,7.94,9.46,1.33,1.64,1.07,4.04-.56,5.36-.71,.57-1.55,.85-2.4,.85Z"/>
      <path d="M1485.63,564.35c-1.74,0-3.31-1.2-3.71-2.96-.47-2.05,.81-4.1,2.87-4.57,9.5-2.18,25.93-14.13,29.6-36.93,1.95-12.11-1.53-23.67-8.86-29.45-5.78-4.56-13.25-5.13-21.57-1.66-1.95,.81-4.18-.11-4.99-2.05-.81-1.94,.1-4.18,2.05-4.99,10.87-4.54,21.24-3.58,29.22,2.71,9.62,7.58,14.09,21.63,11.67,36.65-4.3,26.68-23.54,40.42-35.43,43.15-.29,.07-.57,.1-.86,.1Z"/>
      <path d="M1490.7,527.64c-.61,0-1.23-.15-1.81-.46-1.85-1-2.54-3.31-1.54-5.17,.16-.3,4.02-7.44,6.06-10.76,1.1-1.79,3.45-2.35,5.24-1.25,1.8,1.1,2.36,3.45,1.25,5.25-1.93,3.14-5.81,10.32-5.85,10.39-.69,1.28-2,2-3.36,2Z"/>
      <path d="M1365.9,584.68c-.77,0-1.54-.23-2.22-.71-1.71-1.23-2.11-3.61-.88-5.32,5.32-7.43,6.07-11.14,5.76-12.94-.34-1.99-2.34-3.49-5.58-5.77-4.18-2.94-9.39-6.6-11.76-13.87-6.62-18.12,3.97-45.76,4.42-46.93,.76-1.96,2.97-2.94,4.94-2.17,1.96,.76,2.93,2.97,2.17,4.94-2.8,7.21-9.04,28.75-4.33,41.67,1.63,4.98,5.18,7.48,8.94,10.13,3.85,2.71,7.82,5.5,8.71,10.73,.83,4.9-1.35,10.65-7.08,18.66-.74,1.04-1.91,1.59-3.1,1.59Z"/>
      <path d="M1273.56,467.6c-.94,0-1.87-.34-2.6-1.03-1.52-1.43-1.62-3.82-.2-5.35,.6-.66,15.15-15.89,42.62-2.63,1.9,.91,2.69,3.19,1.78,5.09-.91,1.89-3.19,2.7-5.09,1.77-22.18-10.7-33.27,.48-33.73,.96-.75,.78-1.76,1.18-2.77,1.18Z"/>
      <path d="M1383.67,473.72c-2.11,0-3.81-1.71-3.81-3.81s1.71-3.81,3.81-3.81c10.55,0,33.03-11.04,40.81-15.29,1.84-1,4.16-.33,5.17,1.51,1.01,1.85,.33,4.16-1.51,5.18-1.21,.66-29.81,16.23-44.47,16.23Z"/>
      <path class="cls-8" d="M1286.46,661.08s50.23,39.01,90.05,36.07c30.65-2.08,70.74-43.6,70.74-43.6,0,0-39.14,59.93-79.02,70.59-34.6,9.39-90.6-30.99-90.6-30.99l8.83-32.07Z"/>
      <path d="M1518.66,372.36c-.78,0-1.57-.24-2.24-.73-8.36-6.1-12.05-13.44-17.15-23.59-4.14-8.24-9.28-18.48-18.85-31.82-19.73-28.6-43.68-40.1-69.34-33.34-2.03,.55-4.12-.68-4.66-2.71-.54-2.04,.68-4.12,2.72-4.66,28.61-7.55,56.14,5.35,77.52,36.33,9.88,13.77,15.18,24.32,19.43,32.79,4.79,9.54,7.96,15.84,14.83,20.86,1.7,1.24,2.08,3.63,.83,5.33-.74,1.02-1.91,1.57-3.08,1.57Z"/>
      <path d="M1501.31,484.25c-.32,0-.64-.04-.96-.12-2.04-.53-3.26-2.61-2.73-4.65,.17-.64,16.53-64.62,3.71-92.62-.88-1.92-.04-4.18,1.88-5.05,1.91-.88,4.18-.04,5.05,1.88,13.95,30.47-2.55,94.98-3.26,97.71-.45,1.72-1.99,2.86-3.69,2.86Z"/>
      <path d="M1196.4,322.17c-2.23-.01-3.92-1.73-3.91-3.84,.02-2.1,1.72-3.79,3.81-3.79,7.73,0,27.62-5.19,42-17.84,60.5-55.09,115.82-64.47,151.72-25.69,1.43,1.54,1.34,3.96-.21,5.39-1.55,1.43-3.96,1.34-5.39-.21-46.35-50.06-114.07,1.64-141.04,26.19-16.89,14.86-39.22,19.79-46.99,19.79Z"/>
      <path d="M1473.66,471.48c-27.33,0-38.54-28.93-48.55-54.72-10.19-26.28-19.01-48.96-40.76-45-2.09,.38-4.06-.99-4.44-3.06-.38-2.07,.99-4.06,3.06-4.43,27.97-5.12,38.78,22.77,49.24,49.74,10.87,28.05,21.17,54.53,48.58,49.12,2.08-.42,4.07,.94,4.48,3,.41,2.07-.93,4.07-3,4.48-3.04,.6-5.91,.89-8.62,.89Z"/>
      <path d="M1225.99,492.13c-2.04,0-3.73-1.61-3.81-3.67-.08-2.1,1.56-3.88,3.66-3.95,42.62-1.61,54.29-39.35,64.58-72.65,6.27-20.27,11.68-37.78,23.81-43.03,5.97-2.58,12.77-1.94,20.79,1.98,1.89,.92,2.68,3.21,1.75,5.1-.92,1.89-3.21,2.68-5.1,1.75-5.89-2.88-10.61-3.48-14.41-1.83-8.91,3.85-13.84,19.81-19.55,38.28-10.49,33.95-23.55,76.21-71.58,78.02-.05,0-.1,0-.15,0Z"/>
      <path d="M1210.27,513.65c-1.47,0-2.86-.85-3.49-2.28-20.33-46.19-47.16-130.91,1.47-179.34,1.49-1.48,3.91-1.48,5.39,.01,1.49,1.49,1.48,3.9-.01,5.39-45.41,45.22-19.41,126.46,.13,170.86,.85,1.93-.03,4.18-1.95,5.02-.5,.22-1.02,.32-1.53,.32Z"/>
      <path d="M1378.27,346.87c-.07,0-.14,0-.21,0-2.1-.11-3.71-1.91-3.6-4.01,.06-1.13,1.61-27.77,13.37-41.95,1.34-1.62,3.75-1.85,5.37-.5,1.62,1.34,1.84,3.75,.5,5.37-10.14,12.23-11.61,37.24-11.62,37.49-.11,2.03-1.79,3.61-3.8,3.61Z"/>
      <path d="M1357.12,376.6c-2.03,0-3.72-1.61-3.81-3.66-.26-6.36-3.97-13.1-9.69-17.6-4.97-3.91-10.76-5.56-15.9-4.53-2.07,.4-4.07-.92-4.49-2.99-.41-2.06,.92-4.07,2.99-4.49,7.33-1.47,15.39,.73,22.11,6.02,7.54,5.93,12.25,14.64,12.6,23.29,.08,2.1-1.55,3.88-3.66,3.96-.05,0-.1,0-.16,0Z"/>
      <path class="cls-8" d="M1286.53,523.48c-.71-7.64,4.07-14.26,10.19-14.83,6.11-.57,12.04,5.05,12.75,12.69,.71,7.64-4.07,14.26-10.19,14.83-6.12,.57-12.04-5.05-12.75-12.69Z"/>
      <path class="cls-8" d="M1402.8,513.43c-.71-7.64,4.07-14.26,10.19-14.83,6.12-.57,12.04,5.05,12.75,12.69,.71,7.64-4.07,14.26-10.19,14.83-6.88,.64-12.04-5.05-12.75-12.69Z"/>
      <path d="M1356.37,634.26c-2.46,0-4.78-.11-6.89-.29-2.1-.19-3.65-2.04-3.46-4.14,.19-2.1,2.02-3.67,4.14-3.46,14.86,1.33,45.16-2.06,53.56-24.35,.75-1.97,2.95-2.97,4.91-2.22,1.97,.74,2.97,2.94,2.22,4.91-8.83,23.43-35.83,29.55-54.48,29.55Z"/>
    </g>
    <path class="cls-1" d="M1805.4,1197.45c-3.11-12.97-4.27-26.33-6.57-39.47l9.48,13.77c-23.06-84.18-63.07-320.48-83.03-343.51-32.87-36.98-92.6-53.8-147.07-72.26-21.77-11.55-41.54-16.08-60.23-22.02-5.24-2.03-10.32-4.07-15.13-6.15l.73,1.06c-4.12-1.64-8.19-3.44-12.23-5.54-9.5-4.95-13.61-20.41-23.11-25.35-3.58-1.86-7.5-2.53-11.57-2.64,2.45,4.58,5.59,8.35,9.6,10.55-31.81,31.45-70.91,58.26-107.21,84.32-12.93,4.28-37.38,36.6-47.23,48.16-31.89-62.01-33.76-87.18-44.38-122.38-1.69-5.6-.31-4.47,4.51-10.1,5.21-3.89,2.63-4.13,6.09-9.68,.45-.72,.87-1.53,1.26-2.39-5.55,.15-11.05,.76-16.21,2.73-6.09,2.33-14.23,14.72-19.35,18.76-5.2,4.11-10.35,8.18-15.48,12.24l1.71-1.99c-15.65,6.54-33.57,12.74-52.11,19.77-59.12,21.5-129.75,37.62-166.61,79.08-19.96,23.03-55.98,173.29-107.86,281.64l3.12-3.64c-1.06,2.7-2.06,5.43-3.01,8.16-41.86-48.4-134.62-158.6-147.66-176.29-12.17-16.52-25-36.32-30.57-45.05-1.71-2.68-5.03-3.83-8.03-2.79-13.07,4.54-47.6,17.67-65.14,35.19-13.1,13.09-22.5,25.36-27.92,33.11-3.37,4.81-3.13,11.26,.57,15.82,16.3,20.09,61.59,76.61,88.45,117.02,40.58,61.05,120.63,188.94,120.63,188.94l148.96,2.28c16-14.7,28.47-28.47,41.08-45.39,1.28-.78,2.56-1.55,3.84-2.33-2.54,26.87-4.42,45.45-4.42,45.45l576.96,5.91,20.34-177.38c.61,.49,1.21,1.03,1.82,1.68,2.5,2.68,3.64,6.32,4.69,9.84,10.2,33.87,18.28,77.81,28.48,111.68,4.7,15.6,11.67,21.43,21.08,34.73,9.41,13.29,24.35,23.77,40.63,23.53,10.67-.15,20.68-4.77,30.9-7.84,24.96-7.5,52.61-5.7,76.38,4.99,4.36-29.38-12.25-57.31-19.16-86.19Z"/>
    <path d="M903.39,1109.86c-.55,0-1.11-.12-1.64-.37-1.9-.91-2.7-3.19-1.79-5.09,27.47-57.38,50.54-126.72,69.07-182.45,17.12-51.49,29.5-88.68,39.35-100.05,30.15-33.92,81.72-51.06,131.59-67.63,12.17-4.04,24.75-8.23,36.59-12.53,6.18-2.34,12.33-4.61,18.36-6.82,11.96-4.4,23.25-8.56,33.58-12.88,1.94-.81,4.17,.1,4.99,2.05,.81,1.94-.1,4.18-2.05,4.99-10.48,4.38-21.85,8.57-33.89,13-6,2.21-12.13,4.46-18.34,6.81-11.99,4.36-24.62,8.56-36.84,12.62-48.92,16.26-99.5,33.07-128.27,65.43-8.82,10.18-22.27,50.61-37.84,97.42-18.6,55.92-41.75,125.52-69.43,183.33-.66,1.37-2.02,2.17-3.44,2.17Z"/>
    <path d="M1808.31,1175.57c-1.67,0-3.21-1.11-3.68-2.81-8.71-31.82-19.71-84.64-31.35-140.56-18.32-88.05-39.1-187.85-50.89-201.46-28.73-32.33-79.32-49.14-128.24-65.4-12.22-4.06-24.85-8.26-36.79-12.6-21.01-7.96-46.65-18.64-62.23-25.38-1.93-.84-2.82-3.08-1.99-5.01,.84-1.93,3.08-2.82,5.01-1.99,15.51,6.71,41.01,17.34,61.85,25.23,11.79,4.29,24.37,8.47,36.54,12.51,49.87,16.58,101.44,33.71,131.56,67.6,12.21,14.09,28.76,90.29,52.62,204.93,11.61,55.81,22.58,108.52,31.24,140.11,.55,2.03-.64,4.13-2.67,4.69-.34,.09-.68,.13-1.01,.13Z"/>
    <path d="M1243.74,1282.58c-.34,0-.69-.04-1.04-.14-2.03-.58-3.2-2.68-2.63-4.71,3.78-13.33,2.8-29.28,1.85-44.7-.77-12.6-1.57-25.63,.17-37.45,1.27-8.62,3.87-16.88,6.38-24.87,.87-2.77,1.74-5.54,2.56-8.33,6.34-21.64,7.12-42.88,7.95-65.37,.31-8.41,.63-17.12,1.26-25.91,4.67-65.27,16.94-129.76,36.45-191.66,2.24-7.09,2.84-12.28,3.38-16.85,.98-8.41,1.76-15.05,11.42-25.61,2.31-2.53,6.36-7.54,11.05-13.34,10.46-12.94,23.48-29.04,30.01-33.56,105.9-73.3,113.5-89.61,113.72-92.55-1.21-1.5-1.12-3.7,.27-5.09,1.49-1.49,3.9-1.49,5.39,0,1.02,1.02,2.19,2.83,1.93,5.63-.41,4.57-1.67,18.47-116.98,98.28-5.63,3.9-18.8,20.19-28.41,32.08-4.77,5.9-8.88,10.99-11.35,13.69-8,8.75-8.56,13.49-9.48,21.35-.55,4.67-1.23,10.47-3.68,18.26-19.34,61.33-31.49,125.23-36.12,189.9-.62,8.66-.94,17.3-1.24,25.65-.84,22.98-1.64,44.69-8.25,67.24-.83,2.83-1.72,5.65-2.6,8.47-2.42,7.71-4.93,15.68-6.11,23.7-1.63,11.04-.89,23.1-.11,35.86,.99,16.06,2.01,32.67-2.12,47.25-.48,1.68-2,2.77-3.67,2.77Z"/>
    <path d="M1311.72,845.71c-1.46,0-2.85-.85-3.49-2.27-1.29-2.91-31.64-71.37-36.84-90.45l-.3-1.09c-6.14-22.47-12-47.5-3.86-60.2,2.58-4.02,6.32-6.46,11.13-7.26,2.08-.34,4.04,1.06,4.39,3.14,.34,2.08-1.06,4.04-3.14,4.39-2.67,.44-4.56,1.67-5.96,3.85-7,10.92,.97,40.07,4.79,54.08l.3,1.09c5.05,18.52,36.14,88.66,36.45,89.37,.85,1.92-.01,4.18-1.94,5.03-.5,.22-1.03,.33-1.54,.33Z"/>
    <path d="M1307.66,839.18c-1.22,0-2.42-.58-3.15-1.67-5.42-7.96-10.28-15.25-14.64-21.77-12.12-18.16-23.56-35.31-27.34-36.06-9.81-.55-20.4,13.55-26.76,21.98-.76,1-1.47,1.94-2.13,2.8-1.09,1.41-2.58,3.77-4.3,6.49-7.3,11.55-18.32,29-30.69,25.27-1.37-.42-2.52-1.82-2.77-3.23-1.31-7.31,16.9-98.53,33.76-111.3,14.74-11.16,21.77-18.4,26.41-23.18,5.06-5.22,8.12-8.36,15.24-10.62,2-.64,4.15,.47,4.79,2.48,.64,2.01-.47,4.15-2.48,4.79-5.29,1.68-7.28,3.73-12.08,8.67-4.81,4.95-12.08,12.44-27.28,23.95-12.91,9.78-28.65,84.29-30.64,101.12,6.52-1.81,14.65-14.67,19.29-22.01,1.82-2.89,3.4-5.38,4.71-7.08,.64-.83,1.34-1.75,2.07-2.73,7.75-10.26,19.42-25.78,33.33-24.99,6.82,.39,13.41,9.78,33.2,39.44,4.34,6.51,9.19,13.77,14.6,21.72,1.19,1.74,.73,4.11-1.01,5.3-.66,.45-1.4,.66-2.14,.66Z"/>
    <path d="M1424.96,860.65c-1.35,0-2.6-.49-3.58-1.43-12.44-11.81-15.45-24.93-18.1-36.51-3.09-13.48-5.53-24.13-21.98-29.79-4.67-1.6-16.59,2.56-22.44,6.02-10.27,6.07-19.41,17.02-28.25,27.61-5.51,6.61-10.72,12.85-16.27,18.1-1.52,1.45-3.94,1.38-5.39-.14-1.45-1.53-1.38-3.94,.14-5.39,5.22-4.95,10.29-11.02,15.66-17.46,9.25-11.09,18.82-22.56,30.22-29.29,5.55-3.28,20.5-9.51,28.79-6.66,20.46,7.04,23.75,21.4,26.94,35.29,2.44,10.63,4.95,21.6,14.74,31.52,12.29-8.8,58.96-97.41,66.86-126.91-12.37-7.85-13.53-9.35-17.22-15.36-1.69-2.74-4-6.49-8.86-12.8-2.17-2.82-5.63-3.67-8.69-4.42-1.75-.43-3.26-.8-4.56-1.53-1.83-1.04-2.48-3.36-1.44-5.19,1.03-1.83,3.36-2.48,5.19-1.44,.38,.22,1.68,.54,2.63,.77,3.63,.89,9.11,2.23,12.92,7.17,5.11,6.63,7.54,10.58,9.32,13.46,3.22,5.23,3.63,5.9,17.11,14.36,1.35,.85,2.03,2.45,1.7,4.02-5.37,25.36-58.79,131.11-73.62,135.71-.61,.19-1.22,.28-1.8,.28Z"/>
    <path d="M1023.29,1278.11c-.13,0-.26,0-.39-.02-2.1-.21-3.62-2.08-3.4-4.18,.14-1.35,13.86-135.5,17.28-202.63,3.43-67.49,22.92-170.1,23.12-171.13,.4-2.07,2.41-3.42,4.46-3.03,2.07,.4,3.43,2.39,3.03,4.46-.2,1.02-19.59,103.12-22.99,170.09-3.43,67.33-17.17,201.68-17.31,203.03-.2,1.96-1.86,3.42-3.79,3.42Z"/>
    <path d="M1601.18,1278.11c-.15,0-.29,0-.44-.02-2.09-.24-3.59-2.13-3.35-4.22l37.68-328.58c.24-2.09,2.11-3.58,4.22-3.35,2.09,.24,3.59,2.13,3.35,4.22l-37.68,328.58c-.22,1.94-1.87,3.38-3.78,3.38Z"/>
    <path d="M982.78,1282.6c-1.03,0-2.06-.41-2.81-1.23-1.43-1.55-1.32-3.96,.23-5.39,17.42-16,30.75-31.03,44.56-50.23,1.23-1.71,3.61-2.1,5.32-.87,1.71,1.23,2.1,3.61,.87,5.32-14.13,19.65-27.76,35.02-45.59,51.4-.73,.67-1.66,1-2.58,1Z"/>
    <path d="M833.82,1280.32c-1.27,0-2.51-.63-3.23-1.79-.8-1.28-80.49-128.54-120.57-188.84-26.48-39.84-70.53-94.91-88.23-116.73-4.75-5.85-5.05-14.24-.73-20.4,5.64-8.05,15.14-20.42,28.35-33.62,17.96-17.94,52.55-31.21,66.58-36.09,4.69-1.63,9.83,.16,12.5,4.34,5.05,7.93,18.13,28.16,30.43,44.84,16.98,23.04,155.69,186.75,166.78,197.84,12.94,12.94,24.4,34.59,24.89,35.5,.98,1.86,.27,4.17-1.6,5.15-1.87,.99-4.17,.27-5.15-1.6-.11-.21-11.42-21.55-23.53-33.66-14.24-14.24-152.02-177.66-167.52-198.71-12.43-16.87-25.62-37.27-30.72-45.26-.76-1.19-2.22-1.7-3.57-1.24-13.54,4.7-46.85,17.45-63.7,34.28-12.82,12.81-22.03,24.8-27.5,32.6-2.37,3.39-2.21,8,.41,11.22,17.78,21.91,62.01,77.21,88.66,117.32,40.14,60.39,119.88,187.74,120.68,189.02,1.12,1.78,.58,4.14-1.21,5.25-.63,.39-1.33,.58-2.02,.58Z"/>
    <path class="cls-8" d="M1455.62,689.45c.54,4.92,2.97,9.61,6.67,12.9,.82,.73,1.96,1.43,2.96,.97,.66-.3,1.01-1,1.32-1.65,1.22-2.56,2.43-5.64,1.03-8.11-.82-1.44-2.38-2.3-3.92-2.93-2.36-.95-4.87-1.52-7.41-1.68l-.66,.49Z"/>
    <path d="M1666.72,1253.87c-1.48,0-2.89-.87-3.51-2.31-20.89-48.76-29.34-83.91-41.05-132.55-1.48-6.13-3-12.46-4.6-19.04-.5-2.05,.76-4.11,2.8-4.61,2.06-.48,4.11,.76,4.61,2.8,1.6,6.59,3.13,12.93,4.61,19.07,11.62,48.28,20.01,83.16,40.65,131.33,.83,1.94-.07,4.18-2,5.01-.49,.21-1,.31-1.5,.31Z"/>
    <path d="M2394.84,1282.6H350.16c-2.11,0-3.81-1.71-3.81-3.81s1.71-3.81,3.81-3.81h2044.68c2.11,0,3.81,1.71,3.81,3.81s-1.71,3.81-3.81,3.81Z"/>
    <g>
      <path class="cls-6" d="M1320.86,1565.68c-1.86,6.77,3.45,13.38,10.46,13.03l691.01-46.09c13.11-.82,24.09-10.73,26.9-24.28l120.7-416.19c3.06-14.78-8.11-28.59-22.42-27.69l-681.85,29.44c-10.01,.63-18.39,8.19-20.53,18.53l-124.26,453.24Z"/>
      <path class="cls-6" d="M1364.94,1402.65l-328.98,24.04c-3.69,.28-5.83,15.85-2.42,17.38l287.31,129.89,44.08-171.32Z"/>
      <path d="M1320.68,1566.42c-.52,0-1.06-.11-1.56-.34l-285.84-128.78c-3.18-1.43-4.9-4.75-4.28-8.26,.61-3.43,3.29-5.91,6.68-6.17l328.98-24.04c2.12-.13,3.93,1.42,4.08,3.53,.15,2.1-1.42,3.93-3.52,4.08l-328.39,24,285.43,128.69c1.92,.86,2.77,3.12,1.91,5.04-.64,1.41-2.02,2.25-3.48,2.25Z"/>
      <path d="M1325.66,1579.89c-.51,0-1.03-.1-1.54-.33-.73-.32-73.82-32.53-146-64.73-42.4-18.92-76.19-34.14-100.44-45.23-47.75-21.85-47.77-22.24-47.95-25.31l-.65-11.12c-.12-2.1,1.48-3.91,3.58-4.03,2.12-.08,3.9,1.48,4.03,3.59l.54,9.28c16.68,9.43,180.48,82.35,289.96,130.58,1.93,.85,2.8,3.1,1.95,5.02-.63,1.43-2.03,2.28-3.49,2.28Z"/>
      <g>
        <path class="cls-2" d="M1742.15,1301.97c-10.83,32.33-2.27,64.85,19.13,72.61,21.39,7.77,47.52-12.15,58.36-44.49s2.27-64.85-19.13-72.61c-21.4-7.77-47.52,12.15-58.36,44.49Z"/>
        <path d="M1770.91,1380.08c-3.75,0-7.42-.63-10.94-1.91-23.29-8.46-32.91-43.18-21.44-77.41,6.89-20.57,20.18-37.27,35.55-44.69,9.47-4.57,19.06-5.32,27.73-2.17,23.29,8.45,32.91,43.18,21.44,77.41-6.89,20.57-20.18,37.27-35.55,44.69-5.63,2.72-11.3,4.08-16.79,4.08Zm19.97-120.46c-4.37,0-8.92,1.11-13.49,3.31-13.55,6.54-25.38,21.59-31.63,40.25-10.17,30.34-2.62,60.76,16.81,67.82,6.69,2.43,14.23,1.79,21.81-1.87,13.56-6.54,25.38-21.59,31.63-40.25,10.17-30.34,2.62-60.76-16.81-67.82-2.66-.96-5.45-1.44-8.32-1.44Z"/>
      </g>
      <path d="M1332.95,1582.38c-4.62,0-8.99-2.01-12.11-5.61-3.53-4.07-4.98-9.7-3.87-15.06l124.55-450.13c2.42-11.73,12.3-20.59,23.97-21.32l681.92-29.44c7.67-.46,15.07,2.69,20.27,8.69,5.61,6.47,7.81,15.06,6.05,23.59l-120.77,416.48c-3.07,14.87-15.56,26.09-30.32,27.02l-688.68,45.77c-.35,.02-.68,.03-1.01,.03Zm815.92-513.99c-.35,0-.7,.01-1.05,.04l-681.92,29.44c-8.17,.51-15.18,6.89-16.96,15.5l-124.55,450.13c-.58,2.85,.21,5.95,2.22,8.27,1.78,2.05,4.27,3.1,6.87,2.97l688.69-45.77c11.35-.71,20.97-9.45,23.42-21.25l120.77-416.48c1.21-5.89-.38-12.1-4.41-16.75-3.39-3.91-8.1-6.1-13.05-6.1Z"/>
    </g>
    <path d="M1270.21,694.96c-2.33,4.48-2.81,9.7-2.73,14.75,1.12,.39,2.23-.58,3-1.48,3.09-3.61,9.86-10.84,9.15-16-1.05-7.68-7.58-.81-9.43,2.73Z"/>
    <g>
      <path class="cls-2" d="M500.52,410.6c-.38-1.48,.41-3.01,1.83-3.57,16.79-6.65,115.14-44.78,184.4-53.19,75.95-9.22,92.09-14.08,140.5-27.79,41.63-11.79,95.18-41.56,109.38-49.68,1.79-1.02,4.03-.02,4.47,2,8.3,38.3,72.68,335.27,86.15,391.32,13.21,54.97,63.75,193.49,72.05,216.08,.62,1.68-.33,3.53-2.06,3.99-24.43,6.49-180.86,48.08-216.96,58.8-36.13,10.72-213.3,73.27-240.8,82.98-1.85,.65-3.8-.58-4.03-2.52-2.74-23.44-17.47-148.52-23.2-174.2-6.04-27.05-102.84-409.13-111.73-444.23Z"/>
      <g>
        <path d="M542.3,450.77c-1.34,0-2.65-.71-3.34-1.98-1.01-1.85-.34-4.16,1.5-5.18,82.81-45.52,252.13-55.4,259.29-55.8,2.06-.13,3.9,1.49,4.02,3.59,.12,2.1-1.49,3.9-3.6,4.02-1.74,.1-174.76,10.19-256.05,54.87-.58,.32-1.21,.47-1.83,.47Z"/>
        <path d="M583.83,587.05c-1.34,0-2.65-.71-3.34-1.98-1.01-1.85-.34-4.16,1.5-5.18,82.76-45.49,245.89-59.3,252.8-59.87,2.1-.18,3.94,1.39,4.11,3.49,.17,2.1-1.39,3.94-3.49,4.11-1.68,.14-168.42,14.25-249.75,58.95-.58,.32-1.21,.47-1.83,.47Z"/>
        <path d="M552.6,487.22c-1.34,0-2.65-.71-3.34-1.98-1.01-1.85-.34-4.16,1.5-5.18,82.82-45.53,248.21-53.83,255.21-54.16,2.06-.11,3.89,1.52,3.99,3.63,.1,2.1-1.52,3.89-3.63,3.99-1.7,.08-170.63,8.55-251.9,53.22-.58,.32-1.21,.47-1.83,.47Z"/>
        <path d="M572.32,551.97c-1.34,0-2.65-.71-3.34-1.98-1.01-1.85-.34-4.16,1.5-5.18,82.76-45.49,246.97-59.72,253.92-60.3,2.08-.19,3.94,1.38,4.12,3.48,.18,2.1-1.38,3.94-3.48,4.12-1.69,.14-169.55,14.68-250.88,59.38-.58,.32-1.21,.47-1.83,.47Z"/>
        <path d="M600.55,652.5c-1.34,0-2.65-.71-3.34-1.98-1.01-1.85-.34-4.16,1.5-5.18,82.74-45.48,245.45-61.34,252.34-61.99,2.11-.17,3.96,1.34,4.16,3.44,.2,2.1-1.34,3.96-3.44,4.16-1.67,.16-168.04,16.36-249.39,61.08-.58,.32-1.21,.47-1.83,.47Z"/>
        <path d="M614.32,685.71c-1.34,0-2.65-.71-3.34-1.98-1.01-1.85-.34-4.16,1.5-5.18,82.76-45.49,245.49-59.63,252.38-60.21,2.1-.19,3.94,1.38,4.12,3.48,.18,2.1-1.38,3.94-3.48,4.12-1.67,.14-168.02,14.59-249.35,59.3-.58,.32-1.21,.47-1.83,.47Z"/>
        <path d="M628.46,755.8c-1.35,0-2.65-.71-3.34-1.98-1.01-1.85-.34-4.16,1.5-5.18,82.72-45.47,245.23-62.71,246.87-62.88,2.07-.24,3.97,1.3,4.18,3.4,.22,2.1-1.3,3.97-3.4,4.18-1.62,.17-162.62,17.25-243.98,61.98-.58,.32-1.21,.47-1.83,.47Z"/>
        <path d="M632.38,787.96c-1.34,0-2.65-.71-3.34-1.98-1.01-1.85-.34-4.16,1.5-5.18,82.7-45.46,246.7-64.58,248.35-64.77,2.07-.24,3.98,1.26,4.22,3.36,.24,2.09-1.26,3.98-3.36,4.22-1.63,.19-164.16,19.14-245.54,63.87-.58,.32-1.21,.47-1.83,.47Z"/>
        <path d="M644.56,821.09c-1.34,0-2.65-.71-3.34-1.98-1.01-1.85-.34-4.16,1.5-5.18,82.64-45.43,246.16-70.2,247.8-70.44,2.08-.31,4.02,1.13,4.33,3.21,.31,2.08-1.13,4.02-3.21,4.33-1.63,.24-163.81,24.81-245.25,69.58-.58,.32-1.21,.47-1.83,.47Z"/>
        <path d="M658.73,930.89c-1.34,0-2.65-.71-3.34-1.98-1.01-1.85-.34-4.16,1.5-5.18,82.53-45.37,247.5-81.14,249.16-81.5,2.06-.44,4.09,.87,4.53,2.93,.44,2.06-.87,4.09-2.93,4.53-1.65,.35-165.53,35.89-247.09,80.73-.58,.32-1.21,.47-1.83,.47Z"/>
        <path d="M653.13,889.87c-1.34,0-2.65-.71-3.34-1.98-1.01-1.85-.34-4.16,1.5-5.18,82.57-45.39,241.81-76.5,243.41-76.81,2.06-.39,4.07,.95,4.47,3.02,.4,2.07-.95,4.07-3.02,4.47-1.59,.31-159.66,31.19-241.18,76-.58,.32-1.21,.47-1.83,.47Z"/>
      </g>
      <g>
        <path class="cls-7" d="M893.8,402.92c-1.42,0-2.81-.49-3.92-1.43l-28.63-24.03c-2.58-2.17-2.92-6.01-.75-8.59,2.17-2.58,6.02-2.92,8.59-.75l21.68,18.19,17.19-53.45c1.03-3.21,4.47-4.97,7.67-3.94,3.21,1.03,4.97,4.47,3.94,7.67l-19.97,62.09c-.62,1.93-2.17,3.43-4.12,3.99-.56,.16-1.13,.24-1.69,.24Z"/>
        <path class="cls-7" d="M923.13,504.79c-1.42,0-2.81-.49-3.92-1.43l-28.63-24.03c-2.58-2.17-2.92-6.01-.75-8.59,2.17-2.58,6.02-2.92,8.59-.75l21.68,18.2,17.19-53.45c1.03-3.21,4.48-4.96,7.67-3.94,3.21,1.03,4.97,4.47,3.94,7.67l-19.97,62.09c-.62,1.93-2.17,3.43-4.12,3.99-.56,.16-1.13,.24-1.69,.24Z"/>
        <path class="cls-7" d="M947.43,611.91c-1.42,0-2.81-.49-3.92-1.43l-28.63-24.03c-2.58-2.16-2.92-6.01-.75-8.59,2.17-2.58,6.01-2.91,8.59-.75l21.67,18.2,17.19-53.45c1.03-3.21,4.47-4.97,7.67-3.94,3.21,1.03,4.97,4.47,3.94,7.67l-19.97,62.09c-.62,1.93-2.17,3.43-4.12,3.99-.56,.16-1.13,.24-1.69,.24Z"/>
        <path class="cls-7" d="M965.29,726.7c-1.42,0-2.81-.49-3.92-1.43l-28.63-24.03c-2.58-2.17-2.92-6.01-.75-8.59,2.17-2.58,6.02-2.92,8.59-.75l21.68,18.19,17.19-53.45c1.03-3.21,4.47-4.97,7.67-3.94,3.21,1.03,4.97,4.47,3.94,7.67l-19.97,62.09c-.62,1.93-2.17,3.43-4.12,3.99-.56,.16-1.13,.24-1.69,.24Z"/>
        <path class="cls-7" d="M999.55,837.96c-1.42,0-2.81-.49-3.92-1.43l-28.63-24.03c-2.58-2.17-2.92-6.01-.75-8.59,2.17-2.58,6.01-2.91,8.59-.75l21.67,18.2,17.19-53.45c1.03-3.21,4.47-4.96,7.67-3.94,3.21,1.03,4.97,4.47,3.94,7.67l-19.97,62.09c-.62,1.93-2.17,3.43-4.12,3.99-.56,.16-1.13,.24-1.69,.24Z"/>
      </g>
      <path class="cls-5" d="M685.96,740.91c-10.38-2.69-45.41-8.5-70.98-11.88,0,0,33.98-8.74,51.1-19.25,5.08-3.12,12.58-10.66,12.01-16.59-.18-1.92-.75-3.84-1.9-5.39-1.26-1.69-3.21-2.86-5.3-3.17-1.77-.27-3.58,.06-5.34,.39-33.68,6.27-67.27,13.03-100.75,20.26l.99-10.63c20.99,3.02,74.86-23.91,77.54-29.34,2.68-5.43,.96-13.39-4.8-15.27-2.27-.74-4.73-.44-7.1-.14-20.44,2.63-68.26,8.8-71.42,10.21-2.88,1.29-5.36,3.31-7.79,5.3-10.76,8.81-21.9,18.12-27.41,30.88-.88,2.03-1.61,4.16-1.69,6.37-.11,2.74,.78,5.42,1.71,8,4.21,11.7,9.48,23.02,15.73,33.77l2.13-1.75c-.65,12.75-.48,25.54,.54,38.26,.82,10.23,2.41,20.96,8.73,29.04l2.06-2.64c-.11,5.69-.08,10.31,.09,13.09,.86,14.27,8.73,21.61,8.73,21.61l.16-.18c-.41,5.4,0,10.76,1.72,15.98,3.4,10.32,11.38,18.37,19.09,26.01,17.94,17.77,21.26,21.06,39.19,38.83l-16.61-83.32c4.18-6.67,.96-27.98,9.95-36.22,0,0,20.9-.92,28.1-1.73,12.3-1.39,19.91,.78,30.62-5.43,3.98-2.3,8.22-5.71,8.1-10.3-.14-5.59-6.42-8.68-11.77-10.29-14-4.22-28.46-6.88-43.04-8,.03-.03,39.39,1.99,39.39,1.99,0,0,33.33,3.49,35.06-12.07,1.15-10.35-5.19-13.4-16.86-16.43Z"/>
      <g>
        <path d="M619.69,923.22c-.97,0-1.94-.37-2.68-1.1-19.47-19.3-52.63-53.15-55.9-63.07-5.14-15.57,.06-31.69,6.32-48.21l10.11-26.65c1.93-5.08,4.32-11.4,9.53-15.59,5.66-4.55,13-5.36,20.09-5.56,22.17-.61,44.14,2.32,65.36,8.72,11.76,3.55,14.37,9.48,14.48,13.84,.13,5.17-3.23,9.78-10,13.7-8.42,4.87-15.33,5.1-22.65,5.33-2.96,.1-6.02,.19-9.46,.58-6.17,.7-21.79,1.45-26.81,1.68-3.83,4.8-5.4,16.07-6.57,24.46-1.04,7.46-1.86,13.35-3.93,16.65-1.12,1.78-3.47,2.32-5.26,1.2-1.78-1.12-2.32-3.47-1.2-5.26,1.2-1.92,2.07-8.15,2.84-13.65,1.57-11.26,3.35-24.01,9.83-29.96,.66-.61,1.51-.96,2.41-1,.21,0,20.86-.92,27.84-1.71,3.74-.42,7.1-.53,10.07-.63,7.15-.23,12.31-.4,19.07-4.31,2.87-1.66,6.27-4.2,6.2-6.9-.09-3.65-6.37-5.93-9.06-6.74-20.44-6.16-41.64-9-62.95-8.4-6.65,.18-11.84,.91-15.52,3.88-3.59,2.89-5.5,7.92-7.18,12.35l-10.11,26.65c-5.76,15.18-10.57,29.91-6.21,43.12,1.93,5.87,23.14,29.43,54.02,60.04,1.5,1.48,1.51,3.9,.02,5.39-.74,.75-1.73,1.13-2.71,1.13Z"/>
        <path d="M562.83,845.87c-.93,0-1.86-.34-2.59-1.02-.37-.34-8.99-8.57-9.93-24.17-.71-11.68,1.43-77.84,9.49-88.55,8.06-10.72,20.34-11.14,46.59-8.03,25.79,3.06,68.7,10.05,80.53,13.11,11.25,2.92,21.23,6.68,19.69,20.54-2.09,18.79-35.45,15.84-39.24,15.44l-39.16-2c-2.1-.11-3.72-1.9-3.61-4,.11-2.1,1.91-3.73,4-3.61l39.36,2.02c7.87,.81,30.01,.92,31.07-8.68,.76-6.86-1.86-9.16-14.03-12.31-11.6-3.01-53.96-9.89-79.52-12.92-26.11-3.1-34.25-2.06-39.6,5.04-5.65,7.51-8.97,67.07-7.97,83.5,.75,12.43,7.27,18.81,7.55,19.08,1.51,1.45,1.58,3.86,.14,5.38-.75,.79-1.76,1.2-2.77,1.2Z"/>
        <path d="M551.97,813.82c-1.13,0-2.25-.5-3-1.46-6.89-8.79-8.65-20.14-9.53-31.09-1.55-19.22-1.2-38.67,1.01-57.81,.46-4.02,1.07-7.91,3.29-11.43,4.11-6.51,11.85-8.66,18.78-10.16,33.82-7.32,68.25-14.25,102.33-20.6,1.86-.35,4.17-.78,6.6-.41,3.09,.47,5.93,2.17,7.79,4.67,1.48,1.98,2.36,4.44,2.64,7.3,.77,8.07-8.06,16.68-13.81,20.2-17.41,10.68-50.73,19.33-52.14,19.69-2.04,.53-4.12-.7-4.64-2.74-.53-2.04,.7-4.12,2.74-4.64,.33-.09,33.62-8.73,50.05-18.8,4.9-3.01,10.55-9.47,10.21-12.98-.14-1.43-.54-2.64-1.16-3.48-.66-.89-1.71-1.51-2.8-1.68-1.16-.17-2.65,.1-4.08,.37-34.01,6.33-68.37,13.25-102.12,20.55-5.67,1.23-11.41,2.76-13.95,6.77-1.37,2.17-1.79,5.01-2.16,8.24-2.16,18.65-2.49,37.61-.99,56.33,.78,9.76,2.29,19.79,7.93,26.99,1.3,1.66,1.01,4.05-.65,5.35-.7,.55-1.53,.81-2.35,.81Z"/>
        <path d="M540.56,748.26c-1.31,0-2.59-.68-3.3-1.9-6.35-10.92-11.74-22.49-16.02-34.39-1.05-2.92-2.07-6.06-1.93-9.44,.12-3.02,1.13-5.72,2-7.74,6-13.9,17.95-23.68,28.5-32.32,2.48-2.03,5.29-4.33,8.65-5.84,2.29-1.02,15.22-3.14,72.49-10.51,2.51-.32,5.64-.72,8.77,.3,3.31,1.08,5.94,3.6,7.41,7.09,1.78,4.23,1.63,9.4-.39,13.49-4.13,8.36-67.21,32.95-88.42,29.92-2.09-.3-3.53-2.23-3.23-4.32,.3-2.08,2.22-3.53,4.32-3.23,19.78,2.85,75.52-20.85,80.61-25.98,.93-2.08,.97-4.82,.08-6.92-.42-1-1.24-2.31-2.75-2.8-1.49-.49-3.49-.23-5.43,.02-43.94,5.66-67.65,9.01-70.49,9.97-2.29,1.03-4.58,2.91-6.8,4.72-9.87,8.08-21.06,17.25-26.33,29.44-.61,1.41-1.31,3.25-1.38,5.01-.08,2.02,.66,4.25,1.49,6.56,4.12,11.47,9.32,22.61,15.44,33.14,1.06,1.82,.44,4.15-1.38,5.21-.6,.35-1.26,.52-1.91,.52Z"/>
        <path d="M565.5,705.96c-2.25-.08-3.89-1.86-3.81-3.96l.29-7.49c.08-2.1,1.83-3.77,3.96-3.66,2.1,.08,3.74,1.85,3.66,3.96l-.29,7.49c-.08,2.05-1.77,3.67-3.81,3.67Z"/>
      </g>
      <path d="M638.46,1035.54c-1.26,0-2.51-.35-3.61-1.04-1.78-1.11-2.94-2.95-3.18-5.03-2.65-22.69-23.25-163.54-28.99-189.25-.46-2.06,.84-4.09,2.89-4.55,2.07-.45,4.09,.84,4.55,2.89,5.7,25.52,25.92,163.59,29,189.07,35.99-12.72,204.52-72.18,240.07-82.72,35.42-10.51,184.4-50.15,216.24-58.61-10.39-28.34-58.87-161.56-71.89-215.71-13.41-55.79-77.55-351.64-85.95-390.37-16.43,9.35-68.36,37.91-109.31,49.51l-3.21,.91c-46.09,13.06-63.33,17.94-137.87,26.99-67.63,8.21-162.73,44.76-182.82,52.7,1.45,5.66,4.99,18.96,9.82,37.09,13.21,49.6,35.31,132.61,54.98,210.62,.52,2.04-.72,4.11-2.76,4.63-2.04,.52-4.11-.72-4.63-2.76-19.67-77.97-41.76-160.95-54.96-210.52-5.04-18.91-8.67-32.57-10.01-37.84-.84-3.33,.93-6.79,4.12-8.05,18.79-7.45,116.05-45.02,185.34-53.43,73.95-8.98,91.04-13.82,136.71-26.76l3.21-.91c40.92-11.59,93.42-40.68,108.53-49.32,1.92-1.1,4.17-1.22,6.18-.32,1.99,.88,3.45,2.68,3.91,4.82,7.39,34.12,72.61,335,86.13,391.24,13.04,54.27,62.2,189.16,71.92,215.66,.67,1.81,.54,3.83-.35,5.53-.88,1.7-2.45,2.96-4.31,3.46-29.96,7.96-181.22,48.19-216.86,58.77-36.43,10.81-219.82,75.57-240.61,82.92-.75,.26-1.52,.4-2.29,.4Z"/>
      <path d="M574.2,705.96c-1.7,0-3.26-1.15-3.69-2.88l-1.89-7.49c-.51-2.04,.73-4.12,2.77-4.63,2.04-.5,4.11,.73,4.63,2.77l1.89,7.49c.51,2.04-.73,4.11-2.77,4.63-.31,.08-.63,.12-.93,.12Z"/>
      <g>
        <path d="M456.32,411.42c-.72,0-1.45-.21-2.1-.63l-46.8-31.03c-1.76-1.16-2.24-3.53-1.07-5.28,1.16-1.76,3.53-2.23,5.28-1.07l46.8,31.03c1.76,1.16,2.24,3.53,1.07,5.28-.73,1.11-1.95,1.71-3.18,1.71Z"/>
        <path d="M503.88,375.58c-1.33,0-2.61-.69-3.32-1.93l-27.15-47.67c-1.04-1.83-.4-4.16,1.43-5.2,1.83-1.04,4.16-.41,5.2,1.43l27.15,47.67c1.04,1.83,.4,4.16-1.43,5.2-.6,.34-1.24,.5-1.88,.5Z"/>
        <path d="M555.17,357.4c-2,0-3.68-1.56-3.8-3.59l-3.45-57.98c-.13-2.1,1.48-3.91,3.58-4.03,2.11-.15,3.91,1.48,4.03,3.58l3.45,57.98c.12,2.1-1.48,3.91-3.58,4.03-.08,0-.15,0-.23,0Z"/>
      </g>
    </g>
  </g>
</svg>