<?xml version="1.0" encoding="utf-8"?>
<!-- Generator: Adobe Illustrator 26.5.0, SVG Export Plug-In . SVG Version: 6.00 Build 0)  -->
<svg version="1.1" id="_x3C_Layer_x3E_" xmlns="http://www.w3.org/2000/svg" xmlns:xlink="http://www.w3.org/1999/xlink" x="0px"
	 y="0px" viewBox="0 0 2742 1828" style="enable-background:new 0 0 2742 1828;" xml:space="preserve">
<style type="text/css">
	.st0{fill-rule:evenodd;clip-rule:evenodd;fill:#AECAD6;}
	.st1{fill-rule:evenodd;clip-rule:evenodd;fill:#FFFFFF;}
	.st2{fill-rule:evenodd;clip-rule:evenodd;fill:#CC543D;}
	.st3{fill-rule:evenodd;clip-rule:evenodd;fill:#FFDDC0;}
	.st4{fill-rule:evenodd;clip-rule:evenodd;fill:#351D17;}
	.st5{fill-rule:evenodd;clip-rule:evenodd;}
</style>
<g id="Ñëîé_2_00000019667696438883753130000011893182738098365869_">
	<path class="st0" d="M0,0h2742v1828H0V0z"/>
</g>
<g id="Ñëîé_1_00000181065039835133337970000011900764190418264996_">
	<g>
		<path class="st1" d="M759.4,133.4l-1,483.3l-35.7,5c0,0-15.4,58.4-35.7,108c-20.1,49-45.1,88.9-54.6,143.5
			c-4.3,24.7-0.4,74.8,1.9,90.7c8.4,59.8,123.4,4.9,123.4,4.9l0.1,737.6l1156.1-1.6l-0.1-1570.6L759.4,133.4z M1390.7,285.4
			c1.3,0,0.8,471.2,0.8,472.4c0,1.8-476.8,1.5-476.8,0.3c0-1.8,1.1-471.8,1.1-473.5C915.8,283.4,1389.4,285.4,1390.7,285.4z"/>
		<path class="st2" d="M721.8,627.4c0,0,7.5,14.9,16.7,23.3c9.2,8.4,20.1,10.4,20.1,10.4l-2,308.3c0,0-110.7,52.6-121.1-1.7
			c-4.1-21.3-6.7-64.6-1.7-100.8c6.2-44.8,30.9-81.3,49.7-126.7C705.6,686.5,721.8,627.4,721.8,627.4z"/>
		<path class="st3" d="M1894,829.2c0,0-14-1.8-20.3-6.5c-3.8-2.8-3.7-7.6,0.9-11.1c9.8-7.6,60.5-18.1,69.2-17.8
			c19.2,0.6,21.8,56.3,21.8,56.3s14.1,5.7,8.4,21.6c-2.8,7.8,2.8,23.2-4.3,33.8c-2.5,3.8-7.6,9.4-9.2,13.9c-1.9,5.1,1.1,17.4-8.5,24
			c-7.2,5-37.8,13.7-37.8,13.7l-0.4-23.1c0,0-9.4-5.4-18.4-5.9c-10-0.5-20.2,3.9-27.2,2c-13.3-3.7-7.6-10.7-7.6-10.7
			s-4.2-3.4-4.2-9.4c0-6,4.2-14.7,4.2-14.7s-13.3-4.7-4.9-21.2c4.3-8.5,14.3-21.5,23-30.7C1886.9,834.4,1894,829.2,1894,829.2z"/>
		<path class="st3" d="M697.7,435.5c23.6-8.2,79.2,16.4,79.2,16.4s4.3,9.5-10,12.5c-14.3,2.9-47.3-0.7-47.3-0.7l-2.2,11.6l30.5-4.7
			l13,3.2c0,0,27.3,24.9,33.2,40.3c7.3,18.9-7.5,20.6-7.5,20.6s5.9,8.7,6.5,14.7c0.5,6-4.3,9.3-4.3,9.3s1.1,8.9-6.3,11.1
			c-7.4,2.2-23.3-2.4-23.3-2.4l-0.4,96c0,0-15.5-6.7-28.4-23.3c-8.2-10.5-6.4-29.3-13.7-42.7c-5.4-9.8-19.9-14.5-25.1-22
			c-2.6-3.7-2.1-13.2-3.9-17.9c-1.4-3.9-9.2-14.2-10.2-18.5c-0.8-3.7,0.4-14.8,0-18.5c-0.5-4.2-4.6-13.9-4.7-17.9
			c-0.2-5.6,11.3-12.4,11.3-12.4S684.3,440.2,697.7,435.5z"/>
		<path class="st4" d="M1064.3,331.3c10.1-2.5,22.3-1.8,32.9-4.3c12.6-2.9,23.7-8.7,38-6.7c14.3,2,38.1,9.6,59.8,22
			c16.6,9.5,31.7,22.5,42.5,30.8c8.9,6.8,14.9,9.8,14.9,9.8l-14.9,3.7c0,0,12.4,19.4,16.3,36.5c3.9,17.1-0.6,32-0.6,32l-13.1-21.2
			c0,0-1.7,21.3-6,35.8c-4.3,14.5-11.2,22.1-11.2,22.1l-36.1,19.5l-128.3-11l-40.4-33.9c0,0-4.1-20.2-3.3-38.4
			c0.9-18.3,6.7-34.7,6.7-34.7l-19.2,0.4c0,0,10.1-7.1,22.1-23.1C1033.9,358.1,1042.1,336.8,1064.3,331.3z"/>
		<path class="st2" d="M915.4,656.4l102.7-18.8l21.7-29.3l130.4,11l16.9,38.4c0,0,19.3,8.7,44.6,18.2c26.8,10.2,60.3,21.5,86.4,32.9
			c50.6,22.1,71.6,37.2,71.6,37.2l2,12.7L915.4,758V656.4z"/>
		<path class="st3" d="M1021.9,466.1c2.9-1.7,14.4,1.1,14.4,1.1s12.4,30.1,20.9,29.3c2.6-0.3,0.5-17.2,3.9-31.1
			c3.6-14.7,12.7-26.4,12.7-26.4s20.3,2,36.3-4.2c16-6.2,27.7-20.6,27.7-20.6s1.7,9.6-4.6,23.4c-6.3,13.9-20.5,32.1-20.5,32.1
			s8.3,2.7,19.8-3.2c11.4-5.9,25.9-20.4,25.9-20.4l0.2,9.8c0,0,10.1-3.3,16.5-12.8c6.4-9.5,9.2-25.1,9.2-25.1s13.4,10.2,16.5,31.6
			c3.1,21.4-4,54-4,54l19.8-13.6c0,0,15.1,5.6,8.5,24.6c-3.7,10.8-22.3,19.1-22.3,19.1l-10.5,32.6l-23.7,30.5l-8.1,43.2l-39.2,33
			l-8.6,35.6l-11.4,18.3l-12.4-26.5l-2.2-33.9c0,0-20.6-13.6-31.5-24.8c-10.9-11.2-12.2-20-12.2-20l2.9-56.8l-9-39.6
			c0,0-17.2-10.4-24-25.7C1008,488.7,1009.6,473.1,1021.9,466.1z"/>
		<g>
			<path d="M725.2,581.2c-1.5,0-3-0.9-3.7-2.3c-1-2.1-0.1-4.5,1.9-5.5c0.8-0.4,18.8-8.9,28.4-11c2.4-0.5,6,0.1,12.8,1.2
				c5.7,1,15.4,2.6,18.1,1.5c0.5-0.2,1.8-0.9,1.9-1.8c0.1-1.9-3.3-7-16.5-13.6c-2.7-1.4-9.8-4.1-14.1-4.2
				c-19.7-0.6-49.9,11.9-50.2,12c-2.1,0.9-4.5-0.1-5.4-2.2c-0.9-2.1,0.1-4.5,2.2-5.4c1.3-0.5,32.2-13.2,53.6-12.6
				c6,0.2,14.4,3.5,17.6,5.1c14.2,7.2,21.3,14.3,21.1,21.3c-0.1,3.9-2.7,7.3-6.9,9.1c-4.6,1.9-12.3,0.8-22.7-1
				c-3.6-0.6-8.4-1.5-9.7-1.3c-8.6,1.9-26.4,10.3-26.5,10.4C726.4,581.1,725.8,581.2,725.2,581.2z"/>
		</g>
		<g>
			<path d="M788.7,561.4c-1.6,0-3.1-0.9-3.8-2.5c-0.9-2.1,0.1-4.5,2.2-5.4c0.8-0.4,1.3-0.9,1.5-1.7c0.7-2.9-1.1-9.3-8.5-18.8
				c-10-12.8-17.7-19.2-24.4-20c-18.4-2.3-58.7,12-59.1,12.1c-2.1,0.8-4.5-0.4-5.3-2.5c-0.8-2.1,0.4-4.5,2.5-5.3
				c1.7-0.6,42.5-15.1,62.8-12.5c9.1,1.1,18.3,8.2,29.8,23.1c8.2,10.5,11.6,19.5,9.9,25.9c-0.9,3.3-3.1,5.9-6.2,7.2
				C789.8,561.3,789.2,561.4,788.7,561.4z"/>
		</g>
		<g>
			<path d="M788.7,561.4c-1.6,0-3.1-0.9-3.8-2.5c-0.9-2.1,0.1-4.5,2.2-5.4c0.8-0.4,1.3-0.9,1.5-1.7c0.7-2.9-1.1-9.3-8.5-18.8
				c-10-12.8-17.7-19.2-24.4-20c-18.4-2.3-58.7,12-59.1,12.1c-2.1,0.8-4.5-0.4-5.3-2.5c-0.8-2.1,0.4-4.5,2.5-5.3
				c1.7-0.6,42.5-15.1,62.8-12.5c9.1,1.1,18.3,8.2,29.8,23.1c8.2,10.5,11.6,19.5,9.9,25.9c-0.9,3.3-3.1,5.9-6.2,7.2
				C789.8,561.3,789.2,561.4,788.7,561.4z"/>
		</g>
		<g>
			<path d="M757.7,667c-0.4,0-0.7-0.1-1.1-0.2c-17.4-4.9-29.8-18.4-34.1-37.1c-0.4-1.5-0.7-3.5-1.1-5.8c-1.5-9.2-4.1-24.6-12.9-32.2
				c-4.3-3.7-7.9-5.9-10.8-7.7c-2.3-1.4-4.3-2.6-6-4.2c-4.5-4-6.9-9.3-7.3-16.1c-0.3-5.8-3.6-10.5-6.2-14.4c-1-1.5-1.9-2.8-2.5-3.9
				c-4.3-8.1-3.6-14.2-3-19.1c0.5-4,0.8-7.2-1.2-11.4c-6.3-13.2,0.4-22.6,8.1-26.5c24.4-12.6,59.5-24.4,76.4-21.3
				c9.1,1.6,18.5,11.9,30.6,28.1c11.3,15,15.5,25.7,13.3,33.5c-1.3,4.5-4.6,7.7-9.8,9.7c-2.1,0.8-4.5-0.2-5.3-2.4
				c-0.8-2.1,0.2-4.5,2.4-5.3c3.6-1.4,4.5-3.1,4.8-4.3c1-3.4-0.3-10.8-12-26.3c-5.7-7.6-17.7-23.5-25.5-24.9
				c-13-2.4-44.3,6.7-71.2,20.5c-3.6,1.8-8.9,6.3-4.5,15.7c3,6.3,2.4,11.4,1.9,15.9c-0.5,4.6-1,8.5,2.1,14.3c0.5,0.9,1.2,1.9,2,3.1
				c2.8,4.2,7.2,10.4,7.6,18.5c0.3,4.7,1.7,7.9,4.5,10.5c1.2,1.1,2.8,2,4.8,3.3c3.2,1.9,7.1,4.3,11.9,8.5
				c11,9.6,13.9,26.8,15.7,37.1c0.4,2.1,0.7,3.9,1,5.4c3.7,15.9,13.7,26.9,28.3,31c2.2,0.6,3.5,2.9,2.8,5.1
				C761.1,665.8,759.5,667,757.7,667z"/>
		</g>
		<g>
			<path d="M701.9,522.7c-1.6,0-3.1-0.9-3.8-2.5c-0.9-2.1,0.1-4.5,2.2-5.4c1.1-0.5,27.4-11.4,42.9-15.1c10.3-2.4,20,6.8,20.4,7.2
				c1.6,1.6,1.7,4.2,0.1,5.8c-1.6,1.6-4.2,1.7-5.8,0.1c-1.9-1.8-7.9-6.3-12.8-5.1c-14.8,3.5-41.3,14.6-41.6,14.7
				C702.9,522.6,702.4,522.7,701.9,522.7z"/>
		</g>
		<g>
			<path d="M683.9,494c0,0-0.1,0-0.1,0c-2.3-0.1-4.1-2-4-4.2c0-1.5,1.3-35.9,10.8-52.7c5.3-9.4,21.1-8.1,43.2-3.2
				c28.1,6.2,48.3,10.7,48.3,22.4c0,3.5-1.3,6.5-3.7,8.7c-6,5.5-18.6,5.7-35.5,4.2c-16.2-1.4-33-2.6-33-2.6l0.6-8.2
				c0,0,16.8,1.2,33.1,2.7c6.7,0.6,24.6,2.2,29.2-2.1c0.5-0.5,1-1.2,1.1-2.7c0-5-26.2-10.9-41.8-14.3c-7.6-1.7-30.8-6.8-34.2-0.8
				c-8.5,15.1-9.7,48.6-9.7,49C687.9,492.2,686.1,494,683.9,494z"/>
		</g>
		<g>
			<path d="M716.2,480.2c-0.3,0-0.6,0-0.9-0.1c-2.2-0.5-3.6-2.7-3.1-4.9l2.7-12.1c0.5-2.2,2.7-3.6,4.9-3.1c2.2,0.5,3.6,2.7,3.1,4.9
				l-2.7,12.1C719.8,478.9,718.1,480.2,716.2,480.2z"/>
		</g>
		<path class="st5" d="M1046.7,569.2c0,0,17.7,26.8,32.4,36.9c6.1,4.2,21.7,16.3,28.4,18.2c3.7,1.1,11.8,1.7,21.2-1.5
			c15.1-5.3,32.4-16,32.4-16s-26.2,40.4-55.4,38.7c-33.1-1.9-59.9-50.3-59.9-50.3L1046.7,569.2z"/>
		<g>
			<path d="M1031,521.9c-0.6,0-1.1-0.1-1.7-0.4c-8.1-3.6-15.7-7.1-21.4-22.2c-3.6-9.6-2.4-24.4,6-32.4c3.5-3.4,11.1-8.2,23.5-3.1
				c2.1,0.9,3.1,3.3,2.2,5.4c-0.9,2.1-3.3,3.1-5.4,2.2c-6.1-2.5-11.1-2-14.7,1.4c-5.1,5-6.9,15.8-4,23.6
				c4.5,11.9,9.5,14.2,17.1,17.6c2.1,0.9,3,3.4,2.1,5.4C1034,521,1032.5,521.9,1031,521.9z"/>
		</g>
		<g>
			<path d="M1032.4,501.2c-1.9,0-3.6-1.3-4-3.2c-1.3-5.8-4.5-8.4-4.6-8.5c-1.7-1.4-2-4-0.6-5.8c1.4-1.8,3.9-2.1,5.7-0.7
				c0.6,0.4,5.6,4.5,7.6,13.1c0.5,2.2-0.9,4.4-3.1,4.9C1033,501.2,1032.7,501.2,1032.4,501.2z"/>
		</g>
		<g>
			<path d="M1115.9,628.5c-2.3,0-4.4-0.3-6.5-0.8c-23.3-6.5-55.2-35.6-63.9-54.1c-7-14.7-8.9-26.5-11-39c-0.4-2.1-0.7-4.3-1.1-6.5
				c-0.4-2.2,1.1-4.4,3.3-4.8c2.3-0.4,4.4,1.1,4.8,3.3c0.4,2.3,0.8,4.5,1.1,6.6c2,12.4,3.8,23.2,10.3,36.8
				c7.2,15.2,36.4,43.5,58.7,49.7c19.9,5.5,65.3-31,74-51c6.8-15.7,9-23.7,13.7-41.2l1.4-5.2c3.8-14.2,7.7-26,10.5-34.6
				c1.1-3.4,2-6.3,2.8-8.7c0.7-2.2,3-3.4,5.1-2.7c2.2,0.7,3.4,3,2.7,5.1c-0.7,2.4-1.7,5.4-2.8,8.8c-2.8,8.5-6.6,20.2-10.3,34.2
				l-1.4,5.2c-4.7,17.4-7,26.1-14.1,42.3C1184.5,591.8,1142.7,628.5,1115.9,628.5z"/>
		</g>
		<g>
			<path d="M1202.5,538c-2.1,0-3.8-1.5-4.1-3.6c-0.3-2.3,1.3-4.3,3.6-4.6c8-1,16.9-9.9,19.2-19.1c3.6-14.9-3.7-16.8-6.4-17.5
				c-2.2-0.6-3.5-2.8-2.9-5c0.6-2.2,2.8-3.5,5-2.9c6.7,1.8,17.1,7.6,12.3,27.4c-3.1,12.6-14.8,23.9-26.2,25.3
				C1202.9,537.9,1202.7,538,1202.5,538z"/>
		</g>
		<g>
			<path d="M1126.8,536.4c-1.2,0-2.4-0.5-3.2-1.5c-1.4-1.8-1.2-4.4,0.6-5.8c9.3-7.5,8.6-10.5,8.3-11.1c-0.3-0.6-1-1.6-1.7-2.6
				c-4.3-6-12.4-17.3,0.8-39.7c1.2-2,3.7-2.6,5.6-1.5c2,1.2,2.6,3.7,1.5,5.6c-10.4,17.8-5.1,25.2-1.2,30.7c0.9,1.3,1.8,2.6,2.4,3.9
				c4.1,9-7,18-10.6,20.9C1128.6,536.1,1127.7,536.4,1126.8,536.4z"/>
		</g>
		<path class="st5" d="M1083.7,481.7c0.9-6.8,5.6-11.8,10.4-11.1c4.9,0.6,8.1,6.7,7.2,13.5c-0.9,6.8-5.6,11.8-10.4,11.1
			C1086,494.5,1082.8,488.5,1083.7,481.7z"/>
		<g>
			<path d="M1111.1,458.9c-0.8,0-1.5-0.2-2.2-0.6c-7.8-5-16.6-5.2-27.7-0.6c-2.1,0.9-4.5-0.1-5.4-2.2c-0.9-2.1,0.1-4.5,2.2-5.4
				c13.6-5.6,25.1-5.2,35.3,1.3c1.9,1.2,2.5,3.8,1.3,5.7C1113.8,458.2,1112.5,458.9,1111.1,458.9z"/>
		</g>
		<g>
			<path class="st1" d="M1088.9,544.6c0,0,14.6,5.5,32.8,8.4c18.1,2.9,32.8,1.3,32.8,1.3s-12.3,33.7-36.2,31.4
				C1089.7,583,1088.9,544.6,1088.9,544.6z"/>
			<path d="M1120.6,590c-0.9,0-1.8,0-2.8-0.1c-25.5-2.4-32.8-30.6-33-45.1c0-1.4,0.6-2.6,1.7-3.4c1.1-0.8,2.5-1,3.8-0.5
				c0.1,0.1,14.5,5.4,32,8.2c17.3,2.8,31.6,1.3,31.7,1.3c1.4-0.2,2.8,0.4,3.7,1.6c0.9,1.1,1.1,2.6,0.6,3.9
				C1157.8,557.2,1145.6,590,1120.6,590z M1093.6,550.5c1.4,10.1,6.6,29.3,25.1,31.1c14.8,1.4,24.8-14,29.3-22.8
				c-6.2,0.2-15.9,0-26.9-1.8C1109.6,555.2,1099.6,552.4,1093.6,550.5z"/>
		</g>
		<g>
			<path d="M1187.8,471c-1.1,0-2.3-0.5-3.1-1.4c-5.8-6.4-13.9-7.6-24.9-3.5c-2.1,0.8-4.5-0.3-5.3-2.4c-0.8-2.1,0.3-4.5,2.4-5.3
				c17.9-6.6,28.3-0.5,33.9,5.7c1.5,1.7,1.4,4.3-0.3,5.8C1189.8,470.6,1188.8,471,1187.8,471z"/>
		</g>
		<g>
			<path d="M1113.3,475.2c-0.9,0-1.4,0-1.5-0.1c-1.5-0.1-2.8-1.1-3.4-2.5c-0.6-1.4-0.3-3,0.6-4.2c0.2-0.2,15.5-18.8,21.7-34.5
				c6-15.2,4.3-30.7,4.3-30.9c-0.3-2.3,1.4-4.3,3.6-4.6c2.3-0.3,4.3,1.4,4.6,3.6c0.1,0.7,2,17.6-4.8,34.9
				c-4.1,10.4-11.6,21.6-17,28.9c4.7-1.2,11.1-3.6,18.1-8.4c19.6-13.3,22.7-32,22.7-32.2c0.4-2.2,2.4-3.8,4.7-3.4
				c2.2,0.3,3.8,2.4,3.4,4.7c-0.1,0.9-3.6,22.4-26.2,37.8C1129.5,474.2,1117.4,475.2,1113.3,475.2z"/>
		</g>
		<g>
			<path d="M1156.9,462.7c-1.1,0-2.2-0.5-3-1.3c-1.2-1.3-1.4-3.2-0.6-4.8c0-0.1,3.6-6.6,4.5-11.8c0.9-5.8,1.2-8,1.2-8.1
				c0.2-2.3,2.2-3.9,4.5-3.7c2.3,0.2,3.9,2.2,3.7,4.5c0,0-0.2,2.3-1.2,8.6c-0.1,0.3-0.1,0.7-0.2,1c4.2-4.1,8.6-10.1,11.2-18.3
				c5-15.3,0.3-35.1,0.3-35.3c-0.5-2.2,0.8-4.4,3-5c2.2-0.5,4.4,0.8,5,3c0.2,0.9,5.2,22.2-0.5,39.8c-7.3,22.4-25.4,30.7-26.2,31
				C1158,462.6,1157.4,462.7,1156.9,462.7z"/>
		</g>
		<g>
			<path d="M1081.6,443.9c-3.4,0-6.5-0.2-9.2-0.6c-2.3-0.3-3.8-2.4-3.5-4.6c0.3-2.2,2.4-3.8,4.6-3.5c17,2.4,53.7-3.1,61.8-26.3
				c0.7-2.1,3.1-3.3,5.2-2.5c2.1,0.7,3.3,3.1,2.5,5.2C1134.6,435.8,1102.8,443.9,1081.6,443.9z"/>
		</g>
		<g>
			<path d="M1058,502.3c-0.6,0-1.2-0.1-1.8-0.4c-1.2-0.6-28.6-14.8-24.5-63c0.2-2.3,2.2-4,4.4-3.8c2.3,0.2,3.9,2.2,3.8,4.4
				c-2.4,28.8,7.2,43.6,14,50.3c0.5-14.6,4.5-44.8,26.5-69c1.5-1.7,4.1-1.8,5.8-0.3c1.7,1.5,1.8,4.1,0.3,5.8
				c-27.2,29.9-24.3,71.1-24.3,71.5c0.1,1.5-0.6,2.9-1.8,3.7C1059.6,502,1058.8,502.3,1058,502.3z"/>
		</g>
		<g>
			<path d="M1195.5,508.8c-1.1,0-2.1-0.4-2.9-1.2c-1.1-1.1-1.5-2.8-0.9-4.3c0.2-0.6,19.4-55.9-10.3-85.2c-1.6-1.6-1.6-4.2,0-5.8
				c1.6-1.6,4.2-1.6,5.8,0c25.5,25.1,19.8,64.9,15.3,83.6c6.2-5.2,13.7-15.1,14.3-33c0.1-2.3,2-4.1,4.3-4c2.3,0.1,4,2,4,4.3
				c-1.2,36-27,45.2-28.1,45.5C1196.4,508.8,1196,508.8,1195.5,508.8z"/>
		</g>
		<g>
			<path d="M1224.1,495.1c-0.8,0-1.6-0.2-2.3-0.7c-1.9-1.3-2.3-3.9-1-5.7c16.8-24.3,16.5-61.7,6.6-82.3c-1-2-0.1-4.5,1.9-5.5
				c2-1,4.5-0.1,5.5,1.9c11.2,23.2,11.6,63.4-7.2,90.6C1226.7,494.5,1225.4,495.1,1224.1,495.1z"/>
		</g>
		<g>
			<path d="M1251.7,460.4c-1.6,0-3-0.9-3.7-2.3c-0.2-0.3-0.6-1.4-1.1-3c-2-5.7-7.4-20.8-13-28.1c-1.4-1.8-1-4.4,0.8-5.8
				c1.8-1.4,4.4-1,5.8,0.8c3.9,5.2,7.5,13,10.2,19.8c1.2-13-0.6-34.1-19.6-53c-1.6-1.6-1.6-4.2,0-5.8c1.6-1.6,4.2-1.6,5.8,0
				c28.3,28.2,23.3,63.1,19,74.1c-0.3,0.8-1.2,3.2-4,3.3C1251.8,460.4,1251.8,460.4,1251.7,460.4z M1251.7,456.3L1251.7,456.3
				L1251.7,456.3z"/>
		</g>
		<g>
			<path d="M1018.6,468.9c-1.8,0-3.5-1.2-4-3c-2.6-9.2-8.6-30.8,0-60.2c0.6-2.2,2.9-3.4,5.1-2.8c2.2,0.6,3.4,2.9,2.8,5.1
				c-7.9,27.2-2.4,47.2,0,55.7c0.6,2.2-0.7,4.5-2.9,5.1C1019.3,468.9,1018.9,468.9,1018.6,468.9z"/>
		</g>
		<g>
			<path d="M1243.9,390.3c-6.8,0-15.7-1.6-25.7-6.7c-2-1-2.8-3.5-1.8-5.5c1-2,3.5-2.8,5.5-1.8c8.8,4.5,16.2,5.8,21.6,5.9
				c-6.2-3.5-14-8.5-21.3-14.5l-2.1-1.8c-13.6-11.4-32.3-27-59-35.1c-28.8-8.8-48.1-8.1-57.4,2.1c-1.5,1.7-4.1,1.8-5.8,0.3
				c-1.7-1.5-1.8-4.1-0.3-5.8c11.8-12.9,33.3-14.3,65.9-4.4c28.4,8.7,47.8,24.9,61.9,36.7l2.1,1.8c12.2,10.1,26.8,17.3,29.6,18.7
				c1.1,0.5,2.1,1.6,2.4,2.9c0.3,1.4-0.1,3-1.2,4C1256.7,388.3,1251.5,390.3,1243.9,390.3z"/>
		</g>
		<g>
			<path d="M1013.5,398.3c-8.2,0-14.5-1.4-14.9-1.5c-1.7-0.4-3-1.9-3.2-3.6c-0.2-1.8,0.8-3.4,2.4-4.2c0.1,0,8.9-4.1,18.6-14.6
				c4-4.3,8.4-11.3,12.2-17.5c2.1-3.3,4.1-6.5,5.7-8.8c11.9-16.6,32.9-25.2,52.3-21.4c2.2,0.4,3.7,2.6,3.2,4.8
				c-0.4,2.2-2.6,3.7-4.8,3.2c-13.5-2.7-32.4,1.9-44,18.1c-1.5,2.1-3.4,5.2-5.4,8.4c-4,6.5-8.6,13.8-13.1,18.7
				c-3.9,4.2-7.6,7.5-10.9,10c6.8,0.2,15.5-0.5,22.9-4.4c2-1.1,4.5-0.3,5.6,1.7c1.1,2,0.3,4.5-1.7,5.6
				C1030.2,397.2,1021,398.3,1013.5,398.3z"/>
		</g>
		<g>
			<path d="M1042.6,624.2c-0.3,0-0.5,0-0.8-0.1c-2.2-0.4-3.7-2.6-3.2-4.8c2.6-13.3,4.1-32.2,4-51.7c0-2.3,1.8-4.1,4.1-4.1
				c0,0,0,0,0,0c2.3,0,4.1,1.8,4.1,4.1c0.1,20.3-1.4,39.3-4.2,53.3C1046.3,622.8,1044.6,624.2,1042.6,624.2z"/>
		</g>
		<g>
			<path d="M1162,640.8c-0.2,0-0.3,0-0.5,0c-2.3-0.3-3.9-2.3-3.6-4.6c1.2-10.6,4.3-25.5,8.6-41.8c0.6-2.2,2.8-3.5,5-2.9
				c2.2,0.6,3.5,2.8,2.9,5c-4.2,16-7.2,30.4-8.4,40.7C1165.9,639.3,1164.1,640.8,1162,640.8z"/>
		</g>
		<path class="st5" d="M1155.6,493.1c0.9-6.8,5.6-11.8,10.4-11.1c4.9,0.6,8.1,6.7,7.2,13.4c-0.9,6.8-5.6,11.8-10.4,11.1
			C1157.9,505.9,1154.7,499.8,1155.6,493.1z"/>
		<g>
			<path d="M675.3,996.9c-9.3,0-18.1-1.5-25.5-5.4c-11.2-5.8-17.8-16.2-19.8-30.9c-8.1-61-1.5-109.4,21.4-157
				c43.7-90.9,68.5-183.7,68.8-184.6c0.6-2.2,2.8-3.5,5-2.9c2.2,0.6,3.5,2.8,2.9,5c-0.2,0.9-25.2,94.4-69.3,186.1
				c-22.1,46.1-28.5,93.1-20.6,152.4c1.6,12,6.6,20.1,15.5,24.7c31.7,16.6,99.3-17.9,100-18.3c2-1,4.5-0.2,5.5,1.8
				c1,2,0.2,4.5-1.8,5.5C755.1,974.4,711.1,996.9,675.3,996.9z"/>
		</g>
		<g>
			<path d="M737.5,933.2c-0.6,0-1.2-0.1-1.7-0.4c-2.1-1-3-3.4-2-5.5c14.6-31.4,16.9-63,18.9-90.9c0.4-5.1,0.7-10.1,1.2-14.8
				c0.2-2.3,2.2-4,4.5-3.7c2.3,0.2,3.9,2.2,3.7,4.5c-0.4,4.7-0.8,9.6-1.2,14.7c-2.1,28.6-4.5,60.9-19.7,93.7
				C740.5,932.3,739.1,933.2,737.5,933.2z"/>
		</g>
		<g>
			<path d="M1923.6,942c-0.6,0-1.2-0.1-1.8-0.4c-0.2-0.1-17.9-8.5-26.6-10.4c-1.2-0.1-6.1,0.7-9.6,1.3c-10.4,1.8-18.1,2.9-22.7,1
				c-4.2-1.8-6.7-5.2-6.9-9.1c-0.2-6.9,6.9-14.1,21.1-21.3c3.1-1.6,11.6-4.9,17.5-5.1c21.6-0.6,52.3,12.1,53.6,12.6
				c2.1,0.9,3.1,3.3,2.2,5.4c-0.9,2.1-3.3,3.1-5.4,2.2c-0.3-0.1-29.3-12-49-12c-0.4,0-0.8,0-1.2,0c-4.2,0.1-11.4,2.8-14.1,4.2
				c-13.2,6.7-16.6,11.7-16.5,13.6c0,0.9,1.3,1.6,1.8,1.8c2.7,1.2,12.3-0.5,18.1-1.5c6.7-1.2,10.4-1.7,12.8-1.2
				c9.6,2.1,27.6,10.6,28.4,11c2.1,1,2.9,3.4,1.9,5.5C1926.6,941.1,1925.1,942,1923.6,942z"/>
		</g>
		<g>
			<path d="M1860.1,922.2c-0.5,0-1.1-0.1-1.6-0.3c-3.2-1.3-5.4-3.9-6.2-7.2c-1.7-6.5,1.8-15.4,9.9-25.9c11.5-14.8,20.7-22,29.8-23.1
				c20.3-2.5,61.1,11.9,62.9,12.5c2.1,0.8,3.3,3.1,2.5,5.3c-0.8,2.1-3.1,3.3-5.3,2.5c-0.4-0.1-40.7-14.4-59.1-12.1
				c-6.7,0.8-14.4,7.2-24.3,20c-7.4,9.5-9.2,15.9-8.5,18.8c0.2,0.9,0.7,1.4,1.5,1.7c2.1,0.9,3.1,3.3,2.2,5.4
				C1863.2,921.3,1861.7,922.2,1860.1,922.2z"/>
		</g>
		<g>
			<path d="M1860.1,922.2c-0.5,0-1.1-0.1-1.6-0.3c-3.2-1.3-5.4-3.9-6.2-7.2c-1.7-6.5,1.8-15.4,9.9-25.9c11.5-14.8,20.7-22,29.8-23.1
				c20.3-2.5,61.1,11.9,62.9,12.5c2.1,0.8,3.3,3.1,2.5,5.3c-0.8,2.1-3.1,3.3-5.3,2.5c-0.4-0.1-40.7-14.4-59.1-12.1
				c-6.7,0.8-14.4,7.2-24.3,20c-7.4,9.5-9.2,15.9-8.5,18.8c0.2,0.9,0.7,1.4,1.5,1.7c2.1,0.9,3.1,3.3,2.2,5.4
				C1863.2,921.3,1861.7,922.2,1860.1,922.2z"/>
		</g>
		<g>
			<path d="M1915,960.3c-1.8,0-3.5-1.2-4-3.1c-0.6-2.2,0.7-4.4,2.9-5c3.3-0.9,6.2-1.6,8.9-2.3c12.5-3.2,18.2-4.7,25.7-9.4
				c7.2-4.4,7.4-10.3,7.6-15l0.1-1.4c0.5-8.1,4.8-14.4,7.6-18.5c0.8-1.2,1.5-2.2,2-3.1c3.1-5.8,2.6-9.8,2.1-14.3
				c-0.5-4.5-1.1-9.5,1.9-15.9c4.4-9.3-0.9-13.8-4.5-15.7c-26.9-13.9-58.2-22.9-71.2-20.5c-7.8,1.4-19.7,17.3-25.5,24.9
				c-11.7,15.5-12.9,22.8-12,26.2c0.3,1.2,1.2,3,4.8,4.3c2.1,0.8,3.2,3.2,2.4,5.3c-0.8,2.1-3.2,3.2-5.3,2.4c-5.2-2-8.5-5.3-9.8-9.7
				c-2.2-7.8,2-18.4,13.3-33.5c12.1-16.1,21.5-26.4,30.6-28.1c16.9-3,51.9,8.7,76.4,21.3c7.7,4,14.4,13.3,8.1,26.5
				c-2,4.2-1.6,7.4-1.2,11.4c0.6,4.9,1.3,11-3,19.1c-0.6,1.1-1.5,2.4-2.5,3.9c-2.6,3.8-5.9,8.6-6.2,14.4l-0.1,1.3
				c-0.2,5.2-0.6,14.9-11.5,21.7c-8.6,5.4-15.5,7.1-28,10.4c-2.6,0.7-5.6,1.4-8.8,2.3C1915.7,960.3,1915.3,960.3,1915,960.3z"/>
		</g>
		<g>
			<path d="M1947,883.5c-0.5,0-1.1-0.1-1.6-0.3c-0.3-0.1-26.7-11.2-41.6-14.7c-4.9-1.2-11,3.4-12.8,5.1c-1.6,1.6-4.2,1.5-5.8-0.1
				c-1.6-1.6-1.5-4.2,0.1-5.8c0.4-0.4,10.1-9.6,20.4-7.2c15.5,3.6,41.8,14.6,42.9,15.1c2.1,0.9,3.1,3.3,2.2,5.4
				C1950.1,882.6,1948.6,883.5,1947,883.5z"/>
		</g>
		<g>
			<path d="M1964.9,854.8c-2.2,0-4-1.8-4.1-4c0-0.3-1.2-33.9-9.7-49c-3.4-6-26.6-0.9-34.2,0.8c-15.7,3.5-41.9,9.3-41.8,14.3
				c0,1.5,0.5,2.2,1.1,2.6c4.6,4.2,22.5,2.7,29.2,2.1c16.3-1.4,33.1-2.7,33.1-2.7c2.4-0.2,4.2,1.5,4.4,3.8c0.2,2.3-1.5,4.2-3.8,4.4
				c0,0-16.8,1.2-33,2.6c-16.9,1.5-29.4,1.3-35.5-4.2c-2.4-2.2-3.7-5.2-3.7-8.7c0-11.7,20.2-16.2,48.3-22.4
				c22.1-4.9,37.9-6.2,43.2,3.2c9.5,16.9,10.7,51.3,10.8,52.7c0.1,2.3-1.7,4.2-4,4.2C1965,854.8,1965,854.8,1964.9,854.8z"/>
		</g>
		<g>
			<path d="M1932.7,841c-1.9,0-3.6-1.3-4-3.2l-2.7-12.1c-0.5-2.2,0.9-4.4,3.1-4.9c2.2-0.5,4.4,0.9,4.9,3.1l2.7,12.1
				c0.5,2.2-0.9,4.4-3.1,4.9C1933.3,841,1932.9,841,1932.7,841z"/>
		</g>
		<g>
			<path d="M1103.1,759.5c-2.2,0-4.1-1.8-4.1-4c0-0.2-0.4-15.9-1.9-24c-1.4-6.9-3.6-12-5.8-17c-2.1-4.8-4.2-9.4-5.2-15.2
				c-1.2-6.3-1.2-11.4-1.3-15.8c-0.1-8.3-0.2-12.9-7.2-19.4c-4.3-4-8.5-7.2-12.6-10.4c-12.4-9.6-23.1-17.9-29.8-41.1
				c-0.6-2.2,0.6-4.5,2.8-5.1c2.2-0.6,4.5,0.6,5.1,2.8c5.9,20.6,15.2,27.8,26.9,36.9c4.2,3.2,8.5,6.6,13.1,10.9
				c9.6,8.9,9.7,16.5,9.8,25.4c0,4.1,0.1,8.8,1.1,14.4c0.9,4.8,2.6,8.8,4.7,13.3c2.3,5.1,4.8,10.9,6.4,18.7
				c1.7,8.8,2.1,24.7,2.1,25.4C1107.2,757.6,1105.4,759.5,1103.1,759.5C1103.1,759.5,1103.1,759.5,1103.1,759.5z"/>
		</g>
		<g>
			<path d="M1101.6,733.1c-0.8,0-1.7-0.3-2.4-0.8c-1.8-1.3-2.2-3.9-0.9-5.8c8.7-11.8,11.5-23.7,14-34.2c2.4-10.3,4.5-19.2,11.4-25.6
				c5.1-4.7,10-8.3,14.8-11.7c11.8-8.5,21.1-15.2,26.8-35c0.6-2.2,2.9-3.4,5.1-2.8c2.2,0.6,3.4,2.9,2.8,5.1
				c-6.5,22.5-17.8,30.7-29.8,39.4c-4.6,3.3-9.3,6.7-14,11.1c-5,4.6-6.8,12-8.9,21.4c-2.5,10.7-5.6,24.1-15.3,37.2
				C1104.1,732.5,1102.9,733.1,1101.6,733.1z"/>
		</g>
		<g>
			<path d="M1045.2,709.3c-0.1,0-0.2,0-0.2,0c-1.5-0.1-2.8-1-3.5-2.3c-13.7-29-29.1-65.2-24.7-73c11.1-19.8,23.9-33.4,24.5-34
				c1.6-1.6,4.2-1.7,5.8-0.1c1.6,1.6,1.7,4.2,0.1,5.8c-0.1,0.1-12.7,13.5-23.3,32.3c-1.1,4.7,10,32.9,21.8,58.7
				c3.8-5.8,9.6-14.4,14.8-20.7c6.8-8.4,14.1-15.4,27.7-9.7c2.1,0.9,3.1,3.3,2.2,5.4c-0.9,2.1-3.3,3.1-5.4,2.2
				c-7.4-3.1-10.7-1.7-18.1,7.3c-8.1,9.9-18.1,26.1-18.2,26.2C1047.9,708.6,1046.6,709.3,1045.2,709.3z"/>
		</g>
		<g>
			<path d="M1155.5,716.9c-0.2,0-0.4,0-0.5,0c-1.6-0.2-2.9-1.3-3.4-2.9c-0.1-0.2-5.8-18.4-12.2-29.3c-5-8.5-6.2-8.5-15.4-6.2
				c-2.2,0.6-4.4-0.8-5-3c-0.6-2.2,0.8-4.4,3-5c12.2-3,17.4-2,24.5,10.1c4,6.8,7.7,16,10.1,22.6c13-21.4,25.2-44.5,24.6-49.2
				c-7.5-20.1-17.3-35.3-17.4-35.4c-1.2-1.9-0.7-4.5,1.2-5.7c1.9-1.2,4.4-0.7,5.7,1.2c0.4,0.6,10.4,16.1,18.3,37.3
				c3.3,8.8-17.3,43.6-29.9,63.6C1158.2,716.2,1156.9,716.9,1155.5,716.9z"/>
		</g>
		<g>
			<path d="M917.8,659.6c-2.1,0-3.9-1.6-4.1-3.7c-0.2-2.3,1.5-4.3,3.7-4.5c36.9-3.4,99.4-16,100-16.1c2.2-0.4,4.4,1,4.8,3.2
				c0.4,2.2-1,4.4-3.2,4.8c-0.6,0.1-63.5,12.8-100.9,16.3C918,659.6,917.9,659.6,917.8,659.6z"/>
		</g>
		<g>
			<path d="M1390.8,749.4c-0.7,0-1.3-0.2-2-0.5c-35.2-19.3-63.4-33.2-111.7-51.2l-19-7.1c-39.4-14.6-65.4-24.3-74.6-31.1
				c-1.8-1.4-2.2-3.9-0.8-5.8c1.4-1.8,3.9-2.2,5.8-0.8c8.2,6.1,35.2,16.1,72.5,30l19,7.1c48.8,18.2,77.3,32.2,112.8,51.7
				c2,1.1,2.7,3.6,1.6,5.6C1393.6,748.7,1392.2,749.4,1390.8,749.4z"/>
		</g>
		<g>
			<path d="M1391.4,762.6H915c-2.3,0-4.1-1.8-4.1-4.1V284.8c0-2.3,1.8-4.1,4.1-4.1h476.4c2.3,0,4.1,1.8,4.1,4.1v473.7
				C1395.5,760.8,1393.6,762.6,1391.4,762.6z M919.1,754.4h468.1V288.9H919.1V754.4z"/>
		</g>
		<g>
			<path d="M1914.7,802.1c-2.3,0-4.1-1.7-4.1-4V137.5H762.3l-0.7,302c0,2.3-1.8,4.1-4.1,4.1c0,0,0,0,0,0c-2.3,0-4.1-1.9-4.1-4.1
				l0.7-306.1c0-2.3,1.8-4.1,4.1-4.1h1156.5c2.3,0,4.1,1.8,4.1,4.1v664.5C1918.8,800.1,1916.9,802.1,1914.7,802.1z"/>
		</g>
		<g>
			<path d="M1914.7,1709.3H758.2c-2.3,0-4.1-1.8-4.1-4.1V567.9c0-2.3,1.8-4.1,4.1-4.1s4.1,1.8,4.1,4.1v1133.2h1148.3V977.9
				l-0.3-44.1c0-2.3,1.8-4.1,4.1-4.1c0,0,0,0,0,0c2.3,0,4.1,1.8,4.1,4.1l0.3,44.1v727.4C1918.8,1707.5,1916.9,1709.3,1914.7,1709.3z
				"/>
		</g>
		<g>
			<path d="M743.3,708.3c-0.5,0-0.9-0.1-1.4-0.3c-1.2-0.5-30.6-11.5-35.6-40.2c-0.4-2.2,1.1-4.4,3.3-4.8c2.2-0.4,4.4,1.1,4.8,3.3
				c4.2,24,30,33.7,30.3,33.8c2.1,0.8,3.2,3.1,2.4,5.3C746.5,707.3,744.9,708.3,743.3,708.3z"/>
		</g>
		<path class="st5" d="M917,862.4c0-5.3,4-9.5,8.9-9.5c4.9,0,8.9,4.3,8.9,9.5c0,5.3-4,9.5-8.9,9.5C921,871.9,917,867.7,917,862.4z"
			/>
		<path class="st5" d="M917,965.6c0-5.3,4-9.5,8.9-9.5c4.9,0,8.9,4.3,8.9,9.5c0,5.3-4,9.5-8.9,9.5C921,975.2,917,970.9,917,965.6z"
			/>
		<path class="st5" d="M918.4,1196.2c0-5.3,4-9.5,8.9-9.5c4.9,0,8.9,4.3,8.9,9.5c0,5.3-4,9.5-8.9,9.5
			C922.4,1205.8,918.4,1201.5,918.4,1196.2z"/>
		<path class="st5" d="M917.9,1083.3c0-5.3,4-9.5,8.9-9.5c4.9,0,8.9,4.3,8.9,9.5s-4,9.5-8.9,9.5
			C921.9,1092.8,917.9,1088.5,917.9,1083.3z"/>
		<g>
			<path d="M1305.1,410.3c-2.1,0-3.9-1.6-4.1-3.7c-0.2-2.3,1.4-4.3,3.7-4.5l38.3-3.7c2.3-0.2,4.3,1.4,4.5,3.7
				c0.2,2.3-1.4,4.3-3.7,4.5l-38.3,3.7C1305.3,410.3,1305.2,410.3,1305.1,410.3z"/>
		</g>
		<g>
			<path d="M1344.4,477.6c-0.3,0-0.6,0-0.9-0.1l-40-9.1c-2.2-0.5-3.6-2.7-3.1-4.9c0.5-2.2,2.7-3.6,4.9-3.1l40,9.1
				c2.2,0.5,3.6,2.7,3.1,4.9C1347.9,476.3,1346.2,477.6,1344.4,477.6z"/>
		</g>
		<g>
			<path d="M1325,546.8c-0.6,0-1.3-0.2-1.9-0.5l-36.4-19.2c-2-1.1-2.8-3.5-1.7-5.6c1.1-2,3.5-2.8,5.6-1.7l36.4,19.2
				c2,1.1,2.8,3.5,1.7,5.6C1327.9,546,1326.5,546.8,1325,546.8z"/>
		</g>
		<g>
			<path d="M1272.7,586.4c-1.2,0-2.4-0.5-3.2-1.5l-19.7-24.5c-1.4-1.8-1.1-4.4,0.6-5.8c1.8-1.4,4.4-1.1,5.8,0.6l19.7,24.5
				c1.4,1.8,1.1,4.4-0.6,5.8C1274.5,586.1,1273.6,586.4,1272.7,586.4z"/>
		</g>
		<g>
			<path class="st5" d="M1161.7,236.1c-0.1,1.7-0.6,3-1.6,3.8c-1,0.9-2,1.3-3.2,1.3c-1.1,0-2.1-0.4-3-1.2c-0.9-0.8-1.5-2-1.7-3.6
				v-53.1c-1.2-0.1-2.2-0.6-3-1.4c-0.7-0.8-1.1-1.7-1.1-2.8c0-0.7,0.2-1.4,0.5-2.1c0.3-0.7,0.9-1.4,1.7-2c3.3-2,7.1-3.6,11.2-4.8
				c4.1-1.2,8.2-1.8,12.4-1.8c3.4,0,6.7,0.4,9.8,1.3c3.1,0.9,6,2.3,8.7,4.3c3.1,2.4,5.3,5,6.7,7.8c1.4,2.8,2.1,5.7,2.1,8.7
				c0,2.4-0.4,4.7-1.2,7c-0.8,2.3-2,4.5-3.4,6.5c-1.5,2-3.2,3.9-5.3,5.6c-2.1,1.7-4.4,3.1-6.9,4.2c2.9,3.2,6.1,6.6,9.5,10.1
				c3.4,3.6,6.6,6.9,9.5,10c0.9,1,1.3,2.2,1.3,3.4c0,1.3-0.4,2.3-1.3,3.1c-0.9,0.8-1.9,1.2-3.1,1.2c-0.6,0-1.3-0.1-2-0.4
				c-0.7-0.3-1.4-0.7-2-1.4c-0.5-0.5-1.3-1.4-2.4-2.6c-1.2-1.2-2.5-2.6-3.9-4.1c-1.5-1.5-3-3.2-4.6-4.9c-1.6-1.7-3.2-3.4-4.6-4.9
				c-1.4-1.5-2.7-2.9-3.9-4.1c-1.2-1.2-2-2-2.4-2.6c-2.1,0.4-4.2,0.6-6.3,0.8c-2.1,0.1-4.2,0.3-6.3,0.3V236.1z M1186.2,180.9
				c-1.9-1.3-3.9-2.2-6.1-2.7c-2.2-0.5-4.5-0.8-6.8-0.8c-2,0-4,0.2-5.9,0.6c-1.9,0.4-3.8,0.9-5.7,1.6v29c2.9-0.1,5.9-0.4,8.8-0.7
				c2.9-0.3,5.8-1,8.7-2c1.7-0.6,3.3-1.4,4.8-2.6c1.5-1.1,2.8-2.4,4-3.8c1.2-1.4,2.1-2.9,2.7-4.5c0.7-1.6,1-3.2,1-4.7
				c0-1.7-0.4-3.4-1.3-5C1189.7,183.7,1188.3,182.2,1186.2,180.9z"/>
			<path class="st5" d="M1256.6,227.7c1.5-0.1,2.7,0.2,3.7,0.8c1,0.6,1.6,1.4,1.9,2.3c0.3,0.9,0.2,1.9-0.2,2.9
				c-0.4,1-1.3,1.9-2.6,2.6c-2.8,0.7-5.8,1.3-8.9,1.8c-3.2,0.4-6.4,0.7-9.6,0.8c-3.3,0.1-6.5,0.1-9.6-0.2c-3.2-0.2-6.2-0.7-9.1-1.3
				c-1.2-0.6-2.1-1.3-2.7-2.2c-0.5-0.9-0.8-1.7-0.7-2.5v-0.1v-48.8c-1-0.3-1.8-0.8-2.3-1.6c-0.5-0.7-0.8-1.6-0.8-2.4
				c0-0.9,0.3-1.8,0.9-2.6c0.6-0.9,1.6-1.5,2.9-1.9c3-0.9,6.1-1.5,9.2-1.8c3.1-0.3,6.3-0.6,9.5-0.7c3.2-0.1,6.4-0.2,9.5-0.2
				c3.2,0,6.3-0.1,9.4-0.2c1.7-0.1,3,0.3,4,1.1c1,0.8,1.5,1.7,1.7,2.8c0.2,1-0.1,2.1-0.9,3.1c-0.7,1-2,1.7-3.7,2.1
				c-4.6,0.2-9.6,0.3-14.8,0.2c-5.2-0.1-10.3,0.3-15.2,1v19.6c4,0.1,8.1,0.1,12.1-0.1c4.1-0.2,8.2-0.5,12.3-0.8c1.7-0.1,3,0.3,4,1.1
				c1,0.8,1.5,1.7,1.7,2.8c0.2,1-0.1,2.1-0.9,3.1c-0.7,1-2,1.7-3.7,2.1c-4.3,0.4-8.5,0.7-12.8,0.9c-4.3,0.2-8.5,0.3-12.7,0.1v18
				c4.6,0.7,9.5,0.8,14.5,0.5C1247.6,229.6,1252.3,228.9,1256.6,227.7z"/>
			<path class="st5" d="M1275.8,230.9c-0.5-1-0.7-2-0.7-2.9c0-1.3,0.4-2.3,1.2-3.1c0.8-0.8,1.8-1.2,3.1-1.2s2.4,0.4,3.6,1.2
				c1.3,1.5,2.8,2.7,4.6,3.7c1.7,1,3.6,1.8,5.6,2.3c2,0.6,4,0.9,6,1.2c2.1,0.2,4,0.3,6,0.3c1.3-0.4,2.2-0.7,2.7-0.8
				c0.5-0.1,0.9-0.2,1.2-0.4c0.3-0.1,0.7-0.4,1-0.7c0.4-0.3,1.1-0.8,2.2-1.6c0.4-0.5,0.7-1,1-1.4c0.3-0.4,0.7-0.9,1-1.4l1-3
				c0-0.5,0-1,0-1.5c0-0.5,0-1-0.1-1.6c-0.2-0.5-0.3-1-0.6-1.5c-0.2-0.5-0.5-1-0.7-1.5c-0.5-0.5-0.9-1-1.3-1.4
				c-0.4-0.4-0.9-0.9-1.3-1.4c-0.7-0.4-1.4-0.8-2.1-1.2c-0.7-0.4-1.5-0.8-2.3-1c-3.2-1-6.1-1.8-8.8-2.2c-2.7-0.4-5.2-0.9-7.5-1.6
				c-2.4-0.6-4.6-1.6-6.7-3c-2.1-1.3-4.1-3.5-6.2-6.5c-0.4-0.6-0.6-1-0.7-1.3c-0.1-0.3-0.2-0.8-0.2-1.6c-0.1-0.6-0.1-1.2-0.2-1.7
				c0-0.6-0.1-1.1-0.1-1.6c0-1.3,0.1-2.5,0.4-3.6c0.3-1,0.7-2,1.2-3c0.5-1,1.2-1.9,2.1-2.9c0.9-1,1.9-2.1,3-3.3
				c1.3-1.3,2.8-2.4,4.5-3.3c1.7-0.9,3.5-1.5,5.3-2c1.9-0.5,3.8-0.8,5.8-1c2-0.2,3.9-0.3,5.8-0.3c0.6,0,1.2,0,1.7,0
				c0.5,0,1,0,1.6,0.1c1.8,0.1,3.5,0.6,5,1.2c1.6,0.7,3.2,1.2,4.9,1.7c1.8,1.2,2.7,2.6,2.7,4.3c0,1.1-0.4,2.1-1.3,2.9
				c-0.9,0.9-2.1,1.3-3.8,1.3c-0.2,0-0.3,0-0.5-0.1c-0.2,0-0.4-0.1-0.5-0.1c-2.5-0.7-4.7-1.3-6.6-1.7c-1.9-0.4-3.7-0.6-5.5-0.6
				c-1.9,0-3.8,0.3-5.7,0.9c-1.9,0.6-4.2,1.6-6.7,3c-0.5,0.6-0.9,1.1-1.4,1.6c-0.5,0.5-0.9,1-1.4,1.5c-0.2,0.4-0.4,0.9-0.6,1.3
				c-0.2,0.4-0.4,0.9-0.5,1.3c0,0.4,0,0.9,0.1,1.3c0,0.4,0.1,0.9,0.2,1.2c0.3,0.4,0.6,0.7,0.8,1.1c0.2,0.4,0.5,0.7,0.8,1.1l4.9,2.7
				c2.3,0.5,4.5,1,6.5,1.3c2,0.4,3.9,0.8,5.8,1.3c1.9,0.5,3.7,1.1,5.5,1.7c1.8,0.7,3.8,1.6,5.9,2.7c1.1,0.6,2,1.4,2.8,2.3
				c0.8,0.9,1.5,1.8,2.2,2.6c1.2,1.4,2.1,3,2.7,4.8c0.6,1.8,0.9,3.6,0.9,5.6c0,2.7-0.5,5.3-1.6,7.8c-1.1,2.5-2.6,4.6-4.6,6.2
				c-0.7,0.6-1.4,1.1-2.1,1.6c-0.7,0.5-1.5,0.9-2.2,1.4c-1.6,1-3.4,1.8-5.5,2.3c-2,0.5-4.1,0.8-6.4,0.8c-2.6,0-5.1-0.3-7.7-0.8
				c-2.6-0.6-5.1-1.3-7.5-2.3c-2.4-1-4.6-2.2-6.6-3.5C1278.9,233.9,1277.2,232.4,1275.8,230.9z"/>
			<path class="st5" d="M1383.5,176.3c0.4-1.5,1-2.6,1.9-3.3c0.9-0.7,1.8-1.1,2.9-1.1c1,0,2,0.3,2.8,1c0.9,0.7,1.5,1.7,1.9,3.1
				c-0.1,4.7-0.2,9.6-0.4,14.7s-0.5,10.2-1,15s-1.2,9.4-2.1,13.7c-0.9,4.3-2.1,7.9-3.7,10.8c-0.9,1.8-2.1,3.3-3.7,4.6
				c-1.6,1.3-3.4,2.4-5.3,3.2c-2,0.9-4,1.5-6.2,1.9c-2.2,0.4-4.3,0.6-6.3,0.6c-2.4,0-4.7-0.3-7-0.8c-2.3-0.5-4.4-1.3-6.4-2.4
				c-2-1.1-3.7-2.4-5.2-4c-1.5-1.6-2.7-3.5-3.4-5.6c-1.3-3.6-2.2-7.5-2.7-11.7c-0.5-4.3-0.8-8.7-0.9-13.2c-0.1-4.5-0.1-9-0.1-13.5
				c0.1-4.4,0.1-8.6,0.1-12.6c0.4-1.5,1-2.6,1.9-3.3c0.9-0.7,1.8-1.1,2.9-1.1c1,0,2,0.3,2.8,1c0.9,0.7,1.5,1.7,1.9,3.1
				c0,2.4,0,5.2-0.1,8.4c-0.1,3.2-0.1,6.4-0.2,9.8c0,3.4,0,6.7,0.1,10.1c0.1,3.4,0.3,6.5,0.7,9.5c0.3,3,0.9,5.6,1.6,7.9
				c0.7,2.3,1.7,4,3,5.2c1.6,1.6,3.5,2.7,5.5,3.3c2.1,0.6,4.1,0.8,6,0.8c2.3,0,4.6-0.5,6.9-1.4c2.2-1,4.3-2.5,6-4.7
				c0.9-1.1,1.7-2.8,2.3-5.2c0.6-2.3,1.1-5,1.5-8c0.4-3,0.8-6.1,1-9.5c0.2-3.4,0.4-6.7,0.6-10c0.2-3.3,0.3-6.3,0.3-9.2
				C1383.4,180.8,1383.4,178.3,1383.5,176.3z"/>
			<path class="st5" d="M1483.2,236c-0.1,1.7-0.6,3-1.6,3.8c-1,0.9-2,1.3-3.2,1.3c-1.1,0-2.1-0.4-3.1-1.2c-1-0.8-1.5-2-1.7-3.6
				c-0.4-3.6-0.9-7.3-1.5-11.3c-0.6-4-1.2-8-2-12c-0.7-4-1.5-8-2.4-12c-0.9-3.9-1.8-7.6-2.8-11c-1.5,3.4-2.9,7-4.4,10.7
				c-1.5,3.7-3,7.5-4.5,11.3c-1.5,3.8-3,7.6-4.5,11.4c-1.5,3.8-3,7.4-4.5,10.8c-1.2,1.4-2.6,2.1-4.1,2.1c-1.2,0-2.4-0.6-3.8-1.8
				l-23-43c-0.4,3.6-0.8,7.3-1.2,11.2c-0.4,3.9-0.8,7.9-1.1,11.9c-0.3,4-0.7,8-1.1,11.9c-0.4,3.9-0.8,7.7-1.2,11.2
				c-0.5,1.3-1.2,2.2-2.1,2.8c-0.8,0.6-1.7,0.9-2.7,0.9c-1.1,0-2.1-0.4-3-1.2c-0.9-0.8-1.5-2-1.6-3.6c0.5-4.7,1-9.7,1.5-14.7
				c0.5-5.1,1-10.2,1.5-15.4c0.5-5.2,1-10.3,1.5-15.4c0.5-5.1,1-10,1.5-14.8c0.3-1.3,0.9-2.4,1.8-3.1c0.9-0.7,1.9-1.1,3-1.1
				c1.7,0,3.1,0.8,4.3,2.4c2.1,3.6,4.2,7.4,6.3,11.4c2.1,4,4.2,8,6.3,12c2.1,4,4.2,8,6.3,12c2.1,4,4.2,7.8,6.3,11.4
				c1.5-3.6,3.1-7.4,4.7-11.4c1.6-4,3.2-8,4.8-12c1.6-4,3.2-8.1,4.8-12.1c1.6-4,3.2-7.8,4.8-11.5c0.6-1,1.3-1.7,2.1-2.1
				c0.8-0.4,1.6-0.7,2.4-0.7c0.9,0,1.8,0.3,2.7,1c0.9,0.7,1.5,1.6,1.9,2.9c1.4,4.7,2.7,9.5,4,14.6c1.3,5,2.5,10.1,3.6,15.3
				c1.1,5.2,2.1,10.3,3,15.5C1482.1,226.2,1482.7,231.1,1483.2,236z"/>
			<path class="st5" d="M1532.1,227.7c1.5-0.1,2.7,0.2,3.7,0.8c1,0.6,1.6,1.4,1.9,2.3c0.3,0.9,0.2,1.9-0.2,2.9
				c-0.4,1-1.3,1.9-2.6,2.6c-2.8,0.7-5.8,1.3-8.9,1.8c-3.2,0.4-6.4,0.7-9.6,0.8c-3.2,0.1-6.5,0.1-9.6-0.2c-3.2-0.2-6.2-0.7-9.1-1.3
				c-1.2-0.6-2.1-1.3-2.7-2.2c-0.5-0.9-0.8-1.7-0.7-2.5v-0.1v-48.8c-1-0.3-1.8-0.8-2.3-1.6c-0.5-0.7-0.8-1.6-0.8-2.4
				c0-0.9,0.3-1.8,0.9-2.6c0.6-0.9,1.6-1.5,2.9-1.9c3-0.9,6.1-1.5,9.2-1.8c3.1-0.3,6.3-0.6,9.5-0.7c3.2-0.1,6.4-0.2,9.5-0.2
				c3.2,0,6.3-0.1,9.4-0.2c1.7-0.1,3,0.3,4,1.1c1,0.8,1.5,1.7,1.7,2.8c0.2,1-0.1,2.1-0.9,3.1c-0.7,1-2,1.7-3.7,2.1
				c-4.6,0.2-9.6,0.3-14.8,0.2c-5.2-0.1-10.3,0.3-15.2,1v19.6c4,0.1,8.1,0.1,12.1-0.1c4.1-0.2,8.2-0.5,12.3-0.8c1.7-0.1,3,0.3,4,1.1
				c1,0.8,1.5,1.7,1.7,2.8c0.2,1-0.1,2.1-0.9,3.1c-0.7,1-2,1.7-3.7,2.1c-4.3,0.4-8.5,0.7-12.8,0.9c-4.3,0.2-8.5,0.3-12.7,0.1v18
				c4.6,0.7,9.5,0.8,14.5,0.5C1523.1,229.6,1527.8,228.9,1532.1,227.7z"/>
		</g>
		<g>
			<path d="M1114.2,892.6h-110.8c-2.3,0-4.1-1.8-4.1-4.1c0-2.3,1.8-4.1,4.1-4.1h110.8c2.3,0,4.1,1.8,4.1,4.1
				C1118.3,890.8,1116.5,892.6,1114.2,892.6z"/>
		</g>
		<g>
			<path d="M1113.9,918.2h-110.8c-2.3,0-4.1-1.8-4.1-4.1c0-2.3,1.8-4.1,4.1-4.1h110.8c2.3,0,4.1,1.8,4.1,4.1
				C1118,916.3,1116.2,918.2,1113.9,918.2z"/>
		</g>
		<g>
			<path d="M1114.2,943.8h-110.8c-2.3,0-4.1-1.8-4.1-4.1c0-2.3,1.8-4.1,4.1-4.1h110.8c2.3,0,4.1,1.8,4.1,4.1
				C1118.3,942,1116.5,943.8,1114.2,943.8z"/>
		</g>
		<g>
			<path d="M1111,1002.1h-110.8c-2.3,0-4.1-1.8-4.1-4.1s1.8-4.1,4.1-4.1H1111c2.3,0,4.1,1.8,4.1,4.1S1113.3,1002.1,1111,1002.1z"/>
		</g>
		<g>
			<path d="M1110.8,1027.7H1000c-2.3,0-4.1-1.8-4.1-4.1c0-2.3,1.8-4.1,4.1-4.1h110.8c2.3,0,4.1,1.8,4.1,4.1
				C1114.9,1025.8,1113,1027.7,1110.8,1027.7z"/>
		</g>
		<g>
			<path d="M1111,1053.3h-110.8c-2.3,0-4.1-1.8-4.1-4.1s1.8-4.1,4.1-4.1H1111c2.3,0,4.1,1.8,4.1,4.1S1113.3,1053.3,1111,1053.3z"/>
		</g>
		<g>
			<path d="M1109.3,1118.2H998.5c-2.3,0-4.1-1.8-4.1-4.1c0-2.3,1.8-4.1,4.1-4.1h110.8c2.3,0,4.1,1.8,4.1,4.1
				C1113.4,1116.4,1111.5,1118.2,1109.3,1118.2z"/>
		</g>
		<g>
			<path d="M1109,1143.7H998.2c-2.3,0-4.1-1.8-4.1-4.1s1.8-4.1,4.1-4.1H1109c2.3,0,4.1,1.8,4.1,4.1S1111.3,1143.7,1109,1143.7z"/>
		</g>
		<g>
			<path d="M1109.3,1169.4H998.5c-2.3,0-4.1-1.8-4.1-4.1c0-2.3,1.8-4.1,4.1-4.1h110.8c2.3,0,4.1,1.8,4.1,4.1
				C1113.4,1167.6,1111.5,1169.4,1109.3,1169.4z"/>
		</g>
		<path class="st5" d="M922,1517.8c0-5.3,4-9.5,8.9-9.5c4.9,0,9,4.3,9,9.5c0,5.3-4,9.5-9,9.5C926,1527.3,922,1523,922,1517.8z"/>
		<path class="st5" d="M921.4,1404.8c0-5.3,4-9.5,8.9-9.5c4.9,0,8.9,4.3,8.9,9.5c0,5.3-4,9.5-8.9,9.5
			C925.4,1414.3,921.4,1410.1,921.4,1404.8z"/>
		<g>
			<path d="M1046.4,1333.1H914.2c-2.3,0-4.1-1.8-4.1-4.1c0-2.3,1.8-4.1,4.1-4.1h132.2c2.3,0,4.1,1.8,4.1,4.1
				C1050.5,1331.2,1048.7,1333.1,1046.4,1333.1z"/>
		</g>
		<g>
			<path d="M1107.1,1443.1H996.3c-2.3,0-4.1-1.8-4.1-4.1c0-2.3,1.8-4.1,4.1-4.1h110.8c2.3,0,4.1,1.8,4.1,4.1
				C1111.2,1441.2,1109.3,1443.1,1107.1,1443.1z"/>
		</g>
		<g>
			<path d="M1106.8,1468.6H996c-2.3,0-4.1-1.8-4.1-4.1s1.8-4.1,4.1-4.1h110.8c2.3,0,4.1,1.8,4.1,4.1S1109.1,1468.6,1106.8,1468.6z"
				/>
		</g>
		<g>
			<path d="M1107.1,1494.3H996.3c-2.3,0-4.1-1.8-4.1-4.1c0-2.3,1.8-4.1,4.1-4.1h110.8c2.3,0,4.1,1.8,4.1,4.1
				C1111.2,1492.5,1109.3,1494.3,1107.1,1494.3z"/>
		</g>
		<g>
			<path d="M1778.3,856.4h-485c-2.3,0-4.1-1.8-4.1-4.1c0-2.3,1.8-4.1,4.1-4.1h485c2.3,0,4.1,1.8,4.1,4.1
				C1782.4,854.5,1780.6,856.4,1778.3,856.4z"/>
		</g>
		<g>
			<path d="M1777.2,881.9h-485c-2.3,0-4.1-1.8-4.1-4.1c0-2.3,1.8-4.1,4.1-4.1h485c2.3,0,4.1,1.8,4.1,4.1
				C1781.3,880.1,1779.5,881.9,1777.2,881.9z"/>
		</g>
		<g>
			<path d="M1778.3,907.6h-485c-2.3,0-4.1-1.8-4.1-4.1c0-2.3,1.8-4.1,4.1-4.1h485c2.3,0,4.1,1.8,4.1,4.1
				C1782.4,905.7,1780.6,907.6,1778.3,907.6z"/>
		</g>
		<g>
			<path d="M1775.5,934.7h-485c-2.3,0-4.1-1.8-4.1-4.1c0-2.3,1.8-4.1,4.1-4.1h485c2.3,0,4.1,1.8,4.1,4.1
				C1779.6,932.8,1777.8,934.7,1775.5,934.7z"/>
		</g>
		<g>
			<path d="M1777,1017.5h-485c-2.3,0-4.1-1.8-4.1-4.1c0-2.3,1.8-4.1,4.1-4.1h485c2.3,0,4.1,1.8,4.1,4.1
				C1781.1,1015.7,1779.3,1017.5,1777,1017.5z"/>
		</g>
		<g>
			<path d="M1775.9,1043h-485c-2.3,0-4.1-1.8-4.1-4.1s1.8-4.1,4.1-4.1h485c2.3,0,4.1,1.8,4.1,4.1S1778.2,1043,1775.9,1043z"/>
		</g>
		<g>
			<path d="M1777,1068.7h-485c-2.3,0-4.1-1.8-4.1-4.1c0-2.3,1.8-4.1,4.1-4.1h485c2.3,0,4.1,1.8,4.1,4.1
				C1781.1,1066.9,1779.3,1068.7,1777,1068.7z"/>
		</g>
		<g>
			<path d="M1774.2,1095.8h-485c-2.3,0-4.1-1.8-4.1-4.1c0-2.3,1.8-4.1,4.1-4.1h485c2.3,0,4.1,1.8,4.1,4.1
				C1778.3,1093.9,1776.5,1095.8,1774.2,1095.8z"/>
		</g>
		<g>
			<path d="M1778.3,1188.9h-485c-2.3,0-4.1-1.8-4.1-4.1c0-2.3,1.8-4.1,4.1-4.1h485c2.3,0,4.1,1.8,4.1,4.1
				C1782.4,1187.1,1780.6,1188.9,1778.3,1188.9z"/>
		</g>
		<g>
			<path d="M1777.2,1214.5h-485c-2.3,0-4.1-1.8-4.1-4.1s1.8-4.1,4.1-4.1h485c2.3,0,4.1,1.8,4.1,4.1S1779.5,1214.5,1777.2,1214.5z"/>
		</g>
		<g>
			<path d="M1778.3,1240.2h-485c-2.3,0-4.1-1.8-4.1-4.1s1.8-4.1,4.1-4.1h485c2.3,0,4.1,1.8,4.1,4.1S1780.6,1240.2,1778.3,1240.2z"/>
		</g>
		<g>
			<path d="M1775.5,1267.2h-485c-2.3,0-4.1-1.8-4.1-4.1s1.8-4.1,4.1-4.1h485c2.3,0,4.1,1.8,4.1,4.1S1777.8,1267.2,1775.5,1267.2z"/>
		</g>
		<g>
			<path d="M1777,1424.2h-485c-2.3,0-4.1-1.8-4.1-4.1c0-2.3,1.8-4.1,4.1-4.1h485c2.3,0,4.1,1.8,4.1,4.1
				C1781.1,1422.3,1779.3,1424.2,1777,1424.2z"/>
		</g>
		<g>
			<path d="M1775.9,1449.7h-485c-2.3,0-4.1-1.8-4.1-4.1s1.8-4.1,4.1-4.1h485c2.3,0,4.1,1.8,4.1,4.1S1778.1,1449.7,1775.9,1449.7z"/>
		</g>
		<g>
			<path d="M1777,1475.4h-485c-2.3,0-4.1-1.8-4.1-4.1c0-2.3,1.8-4.1,4.1-4.1h485c2.3,0,4.1,1.8,4.1,4.1
				C1781.1,1473.6,1779.3,1475.4,1777,1475.4z"/>
		</g>
		<g>
			<path d="M1774.2,1502.5h-485c-2.3,0-4.1-1.8-4.1-4.1c0-2.3,1.8-4.1,4.1-4.1h485c2.3,0,4.1,1.8,4.1,4.1
				C1778.3,1500.6,1776.4,1502.5,1774.2,1502.5z"/>
		</g>
		<g>
			<path d="M1775.7,1572.6h-485c-2.3,0-4.1-1.8-4.1-4.1s1.8-4.1,4.1-4.1h485c2.3,0,4.1,1.8,4.1,4.1S1777.9,1572.6,1775.7,1572.6z"/>
		</g>
		<g>
			<path d="M1774.5,1598.2h-485c-2.3,0-4.1-1.8-4.1-4.1s1.8-4.1,4.1-4.1h485c2.3,0,4.1,1.8,4.1,4.1S1776.8,1598.2,1774.5,1598.2z"/>
		</g>
		<g>
			<path d="M1105.1,1559.8H994.3c-2.3,0-4.1-1.8-4.1-4.1c0-2.3,1.8-4.1,4.1-4.1h110.8c2.3,0,4.1,1.8,4.1,4.1
				C1109.2,1558,1107.4,1559.8,1105.1,1559.8z"/>
		</g>
		<g>
			<path d="M1104.9,1585.4H994.1c-2.3,0-4.1-1.8-4.1-4.1s1.8-4.1,4.1-4.1h110.8c2.3,0,4.1,1.8,4.1,4.1S1107.1,1585.4,1104.9,1585.4z
				"/>
		</g>
		<g>
			<path d="M1757.2,331.4H1716c-2.3,0-4.1-1.8-4.1-4.1c0-2.3,1.8-4.1,4.1-4.1h41.1c2.3,0,4.1,1.8,4.1,4.1
				C1761.3,329.6,1759.4,331.4,1757.2,331.4z M1665.8,331.4h-41.1c-2.3,0-4.1-1.8-4.1-4.1c0-2.3,1.8-4.1,4.1-4.1h41.1
				c2.3,0,4.1,1.8,4.1,4.1C1669.9,329.6,1668,331.4,1665.8,331.4z M1574.4,331.4h-41.1c-2.3,0-4.1-1.8-4.1-4.1
				c0-2.3,1.8-4.1,4.1-4.1h41.1c2.3,0,4.1,1.8,4.1,4.1C1578.5,329.6,1576.6,331.4,1574.4,331.4z M1483,331.4h-41.1
				c-2.3,0-4.1-1.8-4.1-4.1c0-2.3,1.8-4.1,4.1-4.1h41.1c2.3,0,4.1,1.8,4.1,4.1C1487.1,329.6,1485.2,331.4,1483,331.4z"/>
		</g>
		<g>
			<path d="M1760.5,430.2h-41.1c-2.3,0-4.1-1.8-4.1-4.1c0-2.3,1.8-4.1,4.1-4.1h41.1c2.3,0,4.1,1.8,4.1,4.1
				C1764.6,428.4,1762.7,430.2,1760.5,430.2z M1669.1,430.2h-41.1c-2.3,0-4.1-1.8-4.1-4.1c0-2.3,1.8-4.1,4.1-4.1h41.1
				c2.3,0,4.1,1.8,4.1,4.1C1673.2,428.4,1671.3,430.2,1669.1,430.2z M1577.7,430.2h-41.1c-2.3,0-4.1-1.8-4.1-4.1
				c0-2.3,1.8-4.1,4.1-4.1h41.1c2.3,0,4.1,1.8,4.1,4.1C1581.8,428.4,1579.9,430.2,1577.7,430.2z M1486.3,430.2h-41.1
				c-2.3,0-4.1-1.8-4.1-4.1c0-2.3,1.8-4.1,4.1-4.1h41.1c2.3,0,4.1,1.8,4.1,4.1C1490.4,428.4,1488.5,430.2,1486.3,430.2z"/>
		</g>
		<g>
			<path d="M1779.1,514.1h-334.9c-2.3,0-4.1-1.8-4.1-4.1c0-2.3,1.8-4.1,4.1-4.1h334.9c2.3,0,4.1,1.8,4.1,4.1
				C1783.2,512.2,1781.4,514.1,1779.1,514.1z"/>
		</g>
		<g>
			<path d="M1779.1,538.3h-334.9c-2.3,0-4.1-1.8-4.1-4.1c0-2.3,1.8-4.1,4.1-4.1h334.9c2.3,0,4.1,1.8,4.1,4.1
				C1783.2,536.5,1781.4,538.3,1779.1,538.3z"/>
		</g>
		<g>
			<path d="M1777.6,565.6h-334.9c-2.3,0-4.1-1.8-4.1-4.1c0-2.3,1.8-4.1,4.1-4.1h334.9c2.3,0,4.1,1.8,4.1,4.1
				C1781.8,563.7,1779.9,565.6,1777.6,565.6z"/>
		</g>
		<g>
			<path d="M1777.6,589.8h-334.9c-2.3,0-4.1-1.8-4.1-4.1c0-2.3,1.8-4.1,4.1-4.1h334.9c2.3,0,4.1,1.8,4.1,4.1
				C1781.8,588,1779.9,589.8,1777.6,589.8z"/>
		</g>
		<g>
			<path d="M1778.4,617h-334.9c-2.3,0-4.1-1.8-4.1-4.1c0-2.3,1.8-4.1,4.1-4.1h334.9c2.3,0,4.1,1.8,4.1,4.1
				C1782.5,615.2,1780.7,617,1778.4,617z"/>
		</g>
		<g>
			<path d="M1778.4,641.3h-334.9c-2.3,0-4.1-1.8-4.1-4.1c0-2.3,1.8-4.1,4.1-4.1h334.9c2.3,0,4.1,1.8,4.1,4.1
				C1782.5,639.5,1780.7,641.3,1778.4,641.3z"/>
		</g>
		<g>
			<path d="M1778.4,667.8h-334.9c-2.3,0-4.1-1.8-4.1-4.1s1.8-4.1,4.1-4.1h334.9c2.3,0,4.1,1.8,4.1,4.1S1780.7,667.8,1778.4,667.8z"
				/>
		</g>
		<g>
			<path d="M1778.4,692.1h-334.9c-2.3,0-4.1-1.8-4.1-4.1c0-2.3,1.8-4.1,4.1-4.1h334.9c2.3,0,4.1,1.8,4.1,4.1
				C1782.5,690.2,1780.7,692.1,1778.4,692.1z"/>
		</g>
		<g>
			<path d="M1777.7,799.4h-36.9c-2.3,0-4.1-1.8-4.1-4.1c0-2.3,1.8-4.1,4.1-4.1h36.9c2.3,0,4.1,1.8,4.1,4.1
				C1781.8,797.6,1780,799.4,1777.7,799.4z M1690.6,799.4h-41.1c-2.3,0-4.1-1.8-4.1-4.1c0-2.3,1.8-4.1,4.1-4.1h41.1
				c2.3,0,4.1,1.8,4.1,4.1C1694.7,797.6,1692.8,799.4,1690.6,799.4z M1599.2,799.4H1558c-2.3,0-4.1-1.8-4.1-4.1
				c0-2.3,1.8-4.1,4.1-4.1h41.1c2.3,0,4.1,1.8,4.1,4.1C1603.3,797.6,1601.4,799.4,1599.2,799.4z M1507.8,799.4h-41.1
				c-2.3,0-4.1-1.8-4.1-4.1c0-2.3,1.8-4.1,4.1-4.1h41.1c2.3,0,4.1,1.8,4.1,4.1C1511.9,797.6,1510,799.4,1507.8,799.4z M1416.4,799.4
				h-41.1c-2.3,0-4.1-1.8-4.1-4.1c0-2.3,1.8-4.1,4.1-4.1h41.1c2.3,0,4.1,1.8,4.1,4.1C1420.5,797.6,1418.6,799.4,1416.4,799.4z
				 M1325,799.4h-41.1c-2.3,0-4.1-1.8-4.1-4.1c0-2.3,1.8-4.1,4.1-4.1h41.1c2.3,0,4.1,1.8,4.1,4.1
				C1329.1,797.6,1327.2,799.4,1325,799.4z M1233.6,799.4h-41.1c-2.3,0-4.1-1.8-4.1-4.1c0-2.3,1.8-4.1,4.1-4.1h41.1
				c2.3,0,4.1,1.8,4.1,4.1C1237.7,797.6,1235.8,799.4,1233.6,799.4z M1142.2,799.4H1101c-2.3,0-4.1-1.8-4.1-4.1
				c0-2.3,1.8-4.1,4.1-4.1h41.1c2.3,0,4.1,1.8,4.1,4.1C1146.3,797.6,1144.4,799.4,1142.2,799.4z M1050.8,799.4h-41.1
				c-2.3,0-4.1-1.8-4.1-4.1c0-2.3,1.8-4.1,4.1-4.1h41.1c2.3,0,4.1,1.8,4.1,4.1C1054.9,797.6,1053,799.4,1050.8,799.4z M959.4,799.4
				h-41.1c-2.3,0-4.1-1.8-4.1-4.1c0-2.3,1.8-4.1,4.1-4.1h41.1c2.3,0,4.1,1.8,4.1,4.1C963.5,797.6,961.6,799.4,959.4,799.4z"/>
		</g>
	</g>
</g>
</svg>
